<svg width="1066" height="377" viewBox="0 0 1066 377" fill="none" xmlns="http://www.w3.org/2000/svg">
<g filter="url(#filter0_d)">
<path d="M249.191 23.1045C248.884 25.7363 247.91 27.77 246.269 29.2056C244.64 30.6297 242.469 31.3418 239.758 31.3418C236.818 31.3418 234.46 30.2879 232.683 28.1802C230.917 26.0724 230.034 23.2526 230.034 19.7207V17.3281C230.034 15.0153 230.444 12.9816 231.264 11.2271C232.096 9.47249 233.269 8.12809 234.785 7.19385C236.3 6.24821 238.055 5.77539 240.048 5.77539C242.692 5.77539 244.811 6.51595 246.406 7.99707C248.001 9.4668 248.929 11.5062 249.191 14.1152H245.893C245.608 12.1328 244.987 10.6973 244.03 9.80859C243.085 8.91992 241.757 8.47559 240.048 8.47559C237.952 8.47559 236.306 9.25033 235.109 10.7998C233.924 12.3493 233.332 14.5539 233.332 17.4136V19.8232C233.332 22.5234 233.896 24.6711 235.024 26.2661C236.152 27.8612 237.73 28.6587 239.758 28.6587C241.581 28.6587 242.976 28.2485 243.945 27.4282C244.925 26.5965 245.574 25.1553 245.893 23.1045H249.191ZM261.018 19.9087C258.203 19.0998 256.153 18.1086 254.865 16.9351C253.589 15.7502 252.951 14.2918 252.951 12.5601C252.951 10.6004 253.732 8.98258 255.292 7.70654C256.865 6.41911 258.904 5.77539 261.411 5.77539C263.12 5.77539 264.641 6.10579 265.974 6.7666C267.318 7.42741 268.355 8.33887 269.084 9.50098C269.825 10.6631 270.195 11.9334 270.195 13.312H266.896C266.896 11.8081 266.418 10.6289 265.461 9.77441C264.504 8.90853 263.154 8.47559 261.411 8.47559C259.793 8.47559 258.528 8.83447 257.617 9.55225C256.717 10.2586 256.267 11.2441 256.267 12.5088C256.267 13.5228 256.694 14.383 257.548 15.0894C258.414 15.7843 259.878 16.4224 261.94 17.0034C264.014 17.5845 265.632 18.2282 266.794 18.9346C267.967 19.6296 268.833 20.4442 269.392 21.3784C269.961 22.3127 270.246 23.4121 270.246 24.6768C270.246 26.6934 269.46 28.3112 267.888 29.5303C266.315 30.738 264.213 31.3418 261.582 31.3418C259.873 31.3418 258.278 31.0171 256.796 30.3677C255.315 29.7069 254.17 28.8068 253.361 27.6675C252.564 26.5282 252.165 25.235 252.165 23.7881H255.463C255.463 25.292 256.016 26.4826 257.121 27.3599C258.238 28.2257 259.724 28.6587 261.582 28.6587C263.313 28.6587 264.641 28.3055 265.563 27.5991C266.486 26.8927 266.948 25.93 266.948 24.7109C266.948 23.4919 266.521 22.5519 265.666 21.8911C264.812 21.2189 263.262 20.5581 261.018 19.9087ZM281.799 19.9087C278.985 19.0998 276.934 18.1086 275.646 16.9351C274.37 15.7502 273.732 14.2918 273.732 12.5601C273.732 10.6004 274.513 8.98258 276.074 7.70654C277.646 6.41911 279.685 5.77539 282.192 5.77539C283.901 5.77539 285.422 6.10579 286.755 6.7666C288.099 7.42741 289.136 8.33887 289.865 9.50098C290.606 10.6631 290.976 11.9334 290.976 13.312H287.678C287.678 11.8081 287.199 10.6289 286.242 9.77441C285.285 8.90853 283.935 8.47559 282.192 8.47559C280.574 8.47559 279.309 8.83447 278.398 9.55225C277.498 10.2586 277.048 11.2441 277.048 12.5088C277.048 13.5228 277.475 14.383 278.33 15.0894C279.195 15.7843 280.66 16.4224 282.722 17.0034C284.795 17.5845 286.413 18.2282 287.575 18.9346C288.749 19.6296 289.615 20.4442 290.173 21.3784C290.743 22.3127 291.027 23.4121 291.027 24.6768C291.027 26.6934 290.241 28.3112 288.669 29.5303C287.097 30.738 284.995 31.3418 282.363 31.3418C280.654 31.3418 279.059 31.0171 277.578 30.3677C276.097 29.7069 274.951 28.8068 274.143 27.6675C273.345 26.5282 272.946 25.235 272.946 23.7881H276.245C276.245 25.292 276.797 26.4826 277.902 27.3599C279.019 28.2257 280.506 28.6587 282.363 28.6587C284.095 28.6587 285.422 28.3055 286.345 27.5991C287.268 26.8927 287.729 25.93 287.729 24.7109C287.729 23.4919 287.302 22.5519 286.447 21.8911C285.593 21.2189 284.043 20.5581 281.799 19.9087ZM302.666 21.6006C302.666 18.7637 303.338 16.485 304.682 14.7646C306.027 13.0329 307.787 12.167 309.963 12.167C312.128 12.167 313.842 12.9076 315.107 14.3887V4.75H318.269V31H315.363L315.209 29.0176C313.945 30.5671 312.185 31.3418 309.929 31.3418C307.787 31.3418 306.038 30.4645 304.682 28.71C303.338 26.9554 302.666 24.6654 302.666 21.8398V21.6006ZM305.827 21.9595C305.827 24.0558 306.26 25.6965 307.126 26.8813C307.992 28.0662 309.188 28.6587 310.715 28.6587C312.72 28.6587 314.184 27.7586 315.107 25.9585V17.4648C314.161 15.7217 312.709 14.8501 310.749 14.8501C309.2 14.8501 307.992 15.4482 307.126 16.6445C306.26 17.8408 305.827 19.6125 305.827 21.9595ZM332.128 15.3457C331.65 15.266 331.132 15.2261 330.573 15.2261C328.5 15.2261 327.093 16.109 326.352 17.875V31H323.19V12.5088H326.267L326.318 14.645C327.355 12.993 328.824 12.167 330.727 12.167C331.342 12.167 331.809 12.2467 332.128 12.4062V15.3457ZM333.872 21.5835C333.872 19.772 334.225 18.1427 334.931 16.6958C335.649 15.2489 336.64 14.1323 337.905 13.3462C339.181 12.5601 340.633 12.167 342.263 12.167C344.781 12.167 346.814 13.0386 348.364 14.7817C349.925 16.5249 350.705 18.8434 350.705 21.7373V21.9595C350.705 23.7596 350.358 25.3774 349.663 26.813C348.979 28.2371 347.993 29.348 346.706 30.1455C345.43 30.943 343.96 31.3418 342.297 31.3418C339.79 31.3418 337.757 30.4702 336.196 28.7271C334.646 26.9839 333.872 24.6768 333.872 21.8057V21.5835ZM337.05 21.9595C337.05 24.0103 337.523 25.6566 338.469 26.8984C339.426 28.1403 340.702 28.7612 342.297 28.7612C343.903 28.7612 345.179 28.1346 346.125 26.8813C347.071 25.6167 347.543 23.8507 347.543 21.5835C347.543 19.5555 347.059 17.9149 346.091 16.6616C345.134 15.397 343.858 14.7646 342.263 14.7646C340.702 14.7646 339.443 15.3856 338.486 16.6274C337.529 17.8693 337.05 19.6466 337.05 21.9595ZM370.29 21.9595C370.29 24.7736 369.646 27.0409 368.359 28.7612C367.071 30.4816 365.328 31.3418 363.129 31.3418C360.885 31.3418 359.119 30.6297 357.832 29.2056V38.1094H354.67V12.5088H357.558L357.712 14.5596C358.999 12.9645 360.788 12.167 363.078 12.167C365.3 12.167 367.054 13.0044 368.342 14.6792C369.641 16.354 370.29 18.6839 370.29 21.6689V21.9595ZM367.128 21.6006C367.128 19.5156 366.684 17.8693 365.795 16.6616C364.907 15.4539 363.688 14.8501 362.138 14.8501C360.224 14.8501 358.789 15.6989 357.832 17.3965V26.2319C358.777 27.9181 360.224 28.7612 362.172 28.7612C363.688 28.7612 364.89 28.1631 365.778 26.9668C366.678 25.7591 367.128 23.9704 367.128 21.6006ZM380.903 21.7202H372.563V19.1396H380.903V21.7202ZM394.763 26.0952C394.763 25.2407 394.438 24.5799 393.789 24.1128C393.151 23.6343 392.028 23.2241 390.422 22.8823C388.827 22.5405 387.556 22.1304 386.611 21.6519C385.677 21.1733 384.982 20.6037 384.526 19.9429C384.082 19.2821 383.859 18.4959 383.859 17.5845C383.859 16.0692 384.497 14.7874 385.773 13.7393C387.061 12.6911 388.701 12.167 390.695 12.167C392.792 12.167 394.489 12.7082 395.788 13.7905C397.098 14.8729 397.753 16.2572 397.753 17.9434H394.575C394.575 17.0775 394.204 16.3312 393.464 15.7046C392.735 15.078 391.812 14.7646 390.695 14.7646C389.545 14.7646 388.645 15.0153 387.995 15.5166C387.346 16.0179 387.021 16.673 387.021 17.4819C387.021 18.2453 387.323 18.8206 387.927 19.208C388.531 19.5954 389.619 19.9657 391.191 20.3188C392.775 20.672 394.056 21.0936 395.036 21.5835C396.016 22.0734 396.739 22.6659 397.207 23.3608C397.685 24.0444 397.924 24.8818 397.924 25.873C397.924 27.5251 397.264 28.8524 395.942 29.855C394.62 30.8462 392.906 31.3418 390.798 31.3418C389.317 31.3418 388.007 31.0798 386.867 30.5557C385.728 30.0316 384.833 29.3024 384.184 28.3682C383.546 27.4225 383.227 26.4028 383.227 25.3091H386.389C386.446 26.3687 386.867 27.2118 387.653 27.8384C388.451 28.4536 389.499 28.7612 390.798 28.7612C391.994 28.7612 392.951 28.522 393.669 28.0435C394.398 27.5535 394.763 26.9041 394.763 26.0952ZM405.205 14.7476C406.606 13.0272 408.429 12.167 410.673 12.167C414.581 12.167 416.552 14.3716 416.586 18.7808V31H413.425V18.7637C413.413 17.4307 413.106 16.4451 412.502 15.8071C411.91 15.1691 410.981 14.8501 409.716 14.8501C408.691 14.8501 407.791 15.1235 407.016 15.6704C406.241 16.2173 405.638 16.9351 405.205 17.8237V31H402.043V4.75H405.205V14.7476ZM432.736 31C432.554 30.6354 432.406 29.986 432.292 29.0518C430.822 30.5785 429.068 31.3418 427.028 31.3418C425.205 31.3418 423.707 30.8291 422.534 29.8037C421.372 28.7669 420.791 27.4567 420.791 25.873C420.791 23.9476 421.52 22.4551 422.978 21.3955C424.448 20.3245 426.51 19.7891 429.165 19.7891H432.241V18.3364C432.241 17.2313 431.91 16.354 431.25 15.7046C430.589 15.0438 429.615 14.7134 428.327 14.7134C427.199 14.7134 426.254 14.9982 425.49 15.5679C424.727 16.1375 424.345 16.8268 424.345 17.6357H421.167C421.167 16.7129 421.491 15.8242 422.141 14.9697C422.801 14.1038 423.69 13.4202 424.807 12.9189C425.935 12.4176 427.171 12.167 428.515 12.167C430.646 12.167 432.315 12.7025 433.522 13.7734C434.73 14.833 435.357 16.297 435.402 18.1655V26.6763C435.402 28.3739 435.619 29.724 436.052 30.7266V31H432.736ZM427.49 28.5903C428.481 28.5903 429.421 28.334 430.31 27.8213C431.198 27.3086 431.842 26.6421 432.241 25.8218V22.0278H429.763C425.889 22.0278 423.952 23.1615 423.952 25.4287C423.952 26.4199 424.283 27.1947 424.943 27.7529C425.604 28.3112 426.453 28.5903 427.49 28.5903ZM439.589 21.6006C439.589 18.7637 440.262 16.485 441.606 14.7646C442.95 13.0329 444.711 12.167 446.887 12.167C449.051 12.167 450.766 12.9076 452.031 14.3887V4.75H455.192V31H452.287L452.133 29.0176C450.869 30.5671 449.108 31.3418 446.853 31.3418C444.711 31.3418 442.962 30.4645 441.606 28.71C440.262 26.9554 439.589 24.6654 439.589 21.8398V21.6006ZM442.751 21.9595C442.751 24.0558 443.184 25.6965 444.05 26.8813C444.916 28.0662 446.112 28.6587 447.639 28.6587C449.644 28.6587 451.108 27.7586 452.031 25.9585V17.4648C451.085 15.7217 449.632 14.8501 447.673 14.8501C446.123 14.8501 444.916 15.4482 444.05 16.6445C443.184 17.8408 442.751 19.6125 442.751 21.9595ZM459.277 21.5835C459.277 19.772 459.63 18.1427 460.336 16.6958C461.054 15.2489 462.045 14.1323 463.31 13.3462C464.586 12.5601 466.039 12.167 467.668 12.167C470.186 12.167 472.22 13.0386 473.769 14.7817C475.33 16.5249 476.11 18.8434 476.11 21.7373V21.9595C476.11 23.7596 475.763 25.3774 475.068 26.813C474.384 28.2371 473.399 29.348 472.111 30.1455C470.835 30.943 469.366 31.3418 467.702 31.3418C465.196 31.3418 463.162 30.4702 461.601 28.7271C460.052 26.9839 459.277 24.6768 459.277 21.8057V21.5835ZM462.456 21.9595C462.456 24.0103 462.928 25.6566 463.874 26.8984C464.831 28.1403 466.107 28.7612 467.702 28.7612C469.309 28.7612 470.585 28.1346 471.53 26.8813C472.476 25.6167 472.949 23.8507 472.949 21.5835C472.949 19.5555 472.465 17.9149 471.496 16.6616C470.539 15.397 469.263 14.7646 467.668 14.7646C466.107 14.7646 464.848 15.3856 463.891 16.6274C462.934 17.8693 462.456 19.6466 462.456 21.9595ZM496.447 26.6421L500.002 12.5088H503.164L497.78 31H495.217L490.722 16.9863L486.347 31H483.784L478.417 12.5088H481.562L485.202 26.3516L489.509 12.5088H492.055L496.447 26.6421ZM526.491 31C526.309 30.6354 526.161 29.986 526.047 29.0518C524.577 30.5785 522.823 31.3418 520.783 31.3418C518.96 31.3418 517.462 30.8291 516.289 29.8037C515.126 28.7669 514.545 27.4567 514.545 25.873C514.545 23.9476 515.275 22.4551 516.733 21.3955C518.203 20.3245 520.265 19.7891 522.919 19.7891H525.996V18.3364C525.996 17.2313 525.665 16.354 525.004 15.7046C524.344 15.0438 523.369 14.7134 522.082 14.7134C520.954 14.7134 520.008 14.9982 519.245 15.5679C518.482 16.1375 518.1 16.8268 518.1 17.6357H514.921C514.921 16.7129 515.246 15.8242 515.896 14.9697C516.556 14.1038 517.445 13.4202 518.562 12.9189C519.689 12.4176 520.926 12.167 522.27 12.167C524.401 12.167 526.07 12.7025 527.277 13.7734C528.485 14.833 529.112 16.297 529.157 18.1655V26.6763C529.157 28.3739 529.374 29.724 529.807 30.7266V31H526.491ZM521.245 28.5903C522.236 28.5903 523.176 28.334 524.064 27.8213C524.953 27.3086 525.597 26.6421 525.996 25.8218V22.0278H523.518C519.644 22.0278 517.707 23.1615 517.707 25.4287C517.707 26.4199 518.037 27.1947 518.698 27.7529C519.359 28.3112 520.208 28.5903 521.245 28.5903ZM537.104 12.5088L537.207 14.833C538.619 13.0557 540.465 12.167 542.744 12.167C546.652 12.167 548.623 14.3716 548.657 18.7808V31H545.495V18.7637C545.484 17.4307 545.176 16.4451 544.572 15.8071C543.98 15.1691 543.051 14.8501 541.787 14.8501C540.761 14.8501 539.861 15.1235 539.086 15.6704C538.312 16.2173 537.708 16.9351 537.275 17.8237V31H534.113V12.5088H537.104ZM552.656 21.6006C552.656 18.7637 553.328 16.485 554.672 14.7646C556.017 13.0329 557.777 12.167 559.953 12.167C562.118 12.167 563.833 12.9076 565.097 14.3887V4.75H568.259V31H565.354L565.2 29.0176C563.935 30.5671 562.175 31.3418 559.919 31.3418C557.777 31.3418 556.028 30.4645 554.672 28.71C553.328 26.9554 552.656 24.6654 552.656 21.8398V21.6006ZM555.817 21.9595C555.817 24.0558 556.25 25.6965 557.116 26.8813C557.982 28.0662 559.178 28.6587 560.705 28.6587C562.71 28.6587 564.174 27.7586 565.097 25.9585V17.4648C564.152 15.7217 562.699 14.8501 560.739 14.8501C559.19 14.8501 557.982 15.4482 557.116 16.6445C556.25 17.8408 555.817 19.6125 555.817 21.9595ZM585.297 31H582.136V12.5088H585.297V31ZM581.879 7.604C581.879 7.09131 582.033 6.65837 582.341 6.30518C582.66 5.95199 583.127 5.77539 583.742 5.77539C584.357 5.77539 584.825 5.95199 585.144 6.30518C585.463 6.65837 585.622 7.09131 585.622 7.604C585.622 8.1167 585.463 8.54395 585.144 8.88574C584.825 9.22754 584.357 9.39844 583.742 9.39844C583.127 9.39844 582.66 9.22754 582.341 8.88574C582.033 8.54395 581.879 8.1167 581.879 7.604ZM593.347 12.5088L593.432 14.5596C594.788 12.9645 596.617 12.167 598.918 12.167C601.504 12.167 603.264 13.1582 604.199 15.1406C604.814 14.252 605.611 13.5342 606.591 12.9873C607.583 12.4404 608.75 12.167 610.095 12.167C614.151 12.167 616.213 14.3146 616.281 18.6099V31H613.12V18.7979C613.12 17.4762 612.818 16.4907 612.214 15.8413C611.61 15.1805 610.596 14.8501 609.172 14.8501C607.998 14.8501 607.024 15.2033 606.25 15.9097C605.475 16.6047 605.025 17.5446 604.899 18.7295V31H601.721V18.8833C601.721 16.1945 600.405 14.8501 597.773 14.8501C595.699 14.8501 594.281 15.7331 593.518 17.499V31H590.356V12.5088H593.347ZM632.482 31C632.3 30.6354 632.152 29.986 632.038 29.0518C630.568 30.5785 628.814 31.3418 626.774 31.3418C624.951 31.3418 623.453 30.8291 622.28 29.8037C621.118 28.7669 620.537 27.4567 620.537 25.873C620.537 23.9476 621.266 22.4551 622.724 21.3955C624.194 20.3245 626.256 19.7891 628.911 19.7891H631.987V18.3364C631.987 17.2313 631.656 16.354 630.996 15.7046C630.335 15.0438 629.361 14.7134 628.073 14.7134C626.945 14.7134 626 14.9982 625.236 15.5679C624.473 16.1375 624.091 16.8268 624.091 17.6357H620.913C620.913 16.7129 621.237 15.8242 621.887 14.9697C622.548 14.1038 623.436 13.4202 624.553 12.9189C625.681 12.4176 626.917 12.167 628.261 12.167C630.392 12.167 632.061 12.7025 633.269 13.7734C634.476 14.833 635.103 16.297 635.148 18.1655V26.6763C635.148 28.3739 635.365 29.724 635.798 30.7266V31H632.482ZM627.236 28.5903C628.227 28.5903 629.167 28.334 630.056 27.8213C630.944 27.3086 631.588 26.6421 631.987 25.8218V22.0278H629.509C625.635 22.0278 623.698 23.1615 623.698 25.4287C623.698 26.4199 624.029 27.1947 624.689 27.7529C625.35 28.3112 626.199 28.5903 627.236 28.5903ZM639.353 21.6006C639.353 18.7181 640.019 16.4281 641.352 14.7305C642.685 13.0215 644.451 12.167 646.65 12.167C648.906 12.167 650.666 12.9645 651.931 14.5596L652.084 12.5088H654.973V30.5557C654.973 32.9482 654.261 34.8338 652.836 36.2124C651.424 37.591 649.521 38.2803 647.128 38.2803C645.795 38.2803 644.491 37.9954 643.215 37.4258C641.939 36.8561 640.965 36.0757 640.292 35.0845L641.933 33.1875C643.289 34.8623 644.947 35.6997 646.906 35.6997C648.444 35.6997 649.641 35.2668 650.495 34.4009C651.361 33.535 651.794 32.3159 651.794 30.7437V29.1543C650.529 30.6126 648.803 31.3418 646.616 31.3418C644.451 31.3418 642.696 30.4702 641.352 28.7271C640.019 26.9839 639.353 24.6084 639.353 21.6006ZM642.531 21.9595C642.531 24.0444 642.958 25.6851 643.813 26.8813C644.667 28.0662 645.864 28.6587 647.402 28.6587C649.396 28.6587 650.86 27.7529 651.794 25.9414V17.499C650.826 15.7331 649.373 14.8501 647.436 14.8501C645.898 14.8501 644.696 15.4482 643.83 16.6445C642.964 17.8408 642.531 19.6125 642.531 21.9595ZM667.431 31.3418C664.925 31.3418 662.885 30.5215 661.313 28.8809C659.741 27.2288 658.955 25.0243 658.955 22.2671V21.686C658.955 19.8517 659.302 18.2168 659.997 16.7812C660.703 15.3343 661.683 14.2064 662.937 13.3975C664.201 12.5771 665.568 12.167 667.038 12.167C669.442 12.167 671.311 12.9588 672.644 14.5425C673.977 16.1261 674.643 18.3934 674.643 21.3442V22.6602H662.116C662.162 24.4831 662.692 25.9585 663.706 27.0864C664.731 28.203 666.03 28.7612 667.602 28.7612C668.719 28.7612 669.664 28.5334 670.439 28.0776C671.214 27.6219 671.892 27.0181 672.473 26.2661L674.404 27.77C672.854 30.1512 670.53 31.3418 667.431 31.3418ZM667.038 14.7646C665.762 14.7646 664.691 15.2318 663.825 16.166C662.959 17.0889 662.424 18.3877 662.219 20.0625H671.481V19.8232C671.39 18.2168 670.957 16.9749 670.183 16.0977C669.408 15.209 668.36 14.7646 667.038 14.7646ZM689.084 26.0952C689.084 25.2407 688.759 24.5799 688.11 24.1128C687.472 23.6343 686.35 23.2241 684.743 22.8823C683.148 22.5405 681.878 22.1304 680.932 21.6519C679.998 21.1733 679.303 20.6037 678.847 19.9429C678.403 19.2821 678.181 18.4959 678.181 17.5845C678.181 16.0692 678.819 14.7874 680.095 13.7393C681.382 12.6911 683.023 12.167 685.017 12.167C687.113 12.167 688.811 12.7082 690.109 13.7905C691.42 14.8729 692.075 16.2572 692.075 17.9434H688.896C688.896 17.0775 688.526 16.3312 687.785 15.7046C687.056 15.078 686.133 14.7646 685.017 14.7646C683.866 14.7646 682.966 15.0153 682.316 15.5166C681.667 16.0179 681.342 16.673 681.342 17.4819C681.342 18.2453 681.644 18.8206 682.248 19.208C682.852 19.5954 683.94 19.9657 685.512 20.3188C687.096 20.672 688.378 21.0936 689.357 21.5835C690.337 22.0734 691.061 22.6659 691.528 23.3608C692.006 24.0444 692.246 24.8818 692.246 25.873C692.246 27.5251 691.585 28.8524 690.263 29.855C688.942 30.8462 687.227 31.3418 685.119 31.3418C683.638 31.3418 682.328 31.0798 681.188 30.5557C680.049 30.0316 679.155 29.3024 678.505 28.3682C677.867 27.4225 677.548 26.4028 677.548 25.3091H680.71C680.767 26.3687 681.188 27.2118 681.975 27.8384C682.772 28.4536 683.82 28.7612 685.119 28.7612C686.315 28.7612 687.272 28.522 687.99 28.0435C688.719 27.5535 689.084 26.9041 689.084 26.0952ZM233.366 82.5088L233.452 84.5596C234.807 82.9645 236.636 82.167 238.938 82.167C241.524 82.167 243.284 83.1582 244.218 85.1406C244.833 84.252 245.631 83.5342 246.611 82.9873C247.602 82.4404 248.77 82.167 250.114 82.167C254.17 82.167 256.232 84.3146 256.301 88.6099V101H253.139V88.7979C253.139 87.4762 252.837 86.4907 252.233 85.8413C251.63 85.1805 250.616 84.8501 249.191 84.8501C248.018 84.8501 247.044 85.2033 246.269 85.9097C245.494 86.6047 245.044 87.5446 244.919 88.7295V101H241.74V88.8833C241.74 86.1945 240.424 84.8501 237.792 84.8501C235.719 84.8501 234.3 85.7331 233.537 87.499V101H230.375V82.5088H233.366ZM272.502 101C272.32 100.635 272.172 99.986 272.058 99.0518C270.588 100.578 268.833 101.342 266.794 101.342C264.971 101.342 263.473 100.829 262.299 99.8037C261.137 98.7669 260.556 97.4567 260.556 95.873C260.556 93.9476 261.285 92.4551 262.744 91.3955C264.213 90.3245 266.276 89.7891 268.93 89.7891H272.006V88.3364C272.006 87.2313 271.676 86.354 271.015 85.7046C270.354 85.0438 269.38 84.7134 268.093 84.7134C266.965 84.7134 266.019 84.9982 265.256 85.5679C264.493 86.1375 264.111 86.8268 264.111 87.6357H260.932C260.932 86.7129 261.257 85.8242 261.906 84.9697C262.567 84.1038 263.456 83.4202 264.572 82.9189C265.7 82.4176 266.936 82.167 268.281 82.167C270.411 82.167 272.08 82.7025 273.288 83.7734C274.496 84.833 275.122 86.297 275.168 88.1655V96.6763C275.168 98.3739 275.384 99.724 275.817 100.727V101H272.502ZM267.255 98.5903C268.247 98.5903 269.187 98.334 270.075 97.8213C270.964 97.3086 271.608 96.6421 272.006 95.8218V92.0278H269.528C265.655 92.0278 263.718 93.1615 263.718 95.4287C263.718 96.4199 264.048 97.1947 264.709 97.7529C265.37 98.3112 266.219 98.5903 267.255 98.5903ZM285.285 92.438L283.303 94.5059V101H280.141V74.75H283.303V90.6265L284.995 88.5928L290.754 82.5088H294.599L287.404 90.2334L295.437 101H291.728L285.285 92.438ZM305.195 101.342C302.688 101.342 300.649 100.521 299.077 98.8809C297.504 97.2288 296.718 95.0243 296.718 92.2671V91.686C296.718 89.8517 297.066 88.2168 297.761 86.7812C298.467 85.3343 299.447 84.2064 300.7 83.3975C301.965 82.5771 303.332 82.167 304.802 82.167C307.206 82.167 309.074 82.9588 310.407 84.5425C311.74 86.1261 312.407 88.3934 312.407 91.3442V92.6602H299.88C299.925 94.4831 300.455 95.9585 301.469 97.0864C302.495 98.203 303.793 98.7612 305.366 98.7612C306.482 98.7612 307.428 98.5334 308.203 98.0776C308.977 97.6219 309.655 97.0181 310.236 96.2661L312.167 97.77C310.618 100.151 308.294 101.342 305.195 101.342ZM304.802 84.7646C303.526 84.7646 302.455 85.2318 301.589 86.166C300.723 87.0889 300.188 88.3877 299.982 90.0625H309.245V89.8232C309.154 88.2168 308.721 86.9749 307.946 86.0977C307.172 85.209 306.123 84.7646 304.802 84.7646ZM336.179 101C335.996 100.635 335.848 99.986 335.734 99.0518C334.265 100.578 332.51 101.342 330.471 101.342C328.648 101.342 327.15 100.829 325.976 99.8037C324.814 98.7669 324.233 97.4567 324.233 95.873C324.233 93.9476 324.962 92.4551 326.42 91.3955C327.89 90.3245 329.952 89.7891 332.607 89.7891H335.683V88.3364C335.683 87.2313 335.353 86.354 334.692 85.7046C334.031 85.0438 333.057 84.7134 331.77 84.7134C330.642 84.7134 329.696 84.9982 328.933 85.5679C328.169 86.1375 327.788 86.8268 327.788 87.6357H324.609C324.609 86.7129 324.934 85.8242 325.583 84.9697C326.244 84.1038 327.132 83.4202 328.249 82.9189C329.377 82.4176 330.613 82.167 331.958 82.167C334.088 82.167 335.757 82.7025 336.965 83.7734C338.173 84.833 338.799 86.297 338.845 88.1655V96.6763C338.845 98.3739 339.061 99.724 339.494 100.727V101H336.179ZM330.932 98.5903C331.923 98.5903 332.863 98.334 333.752 97.8213C334.641 97.3086 335.284 96.6421 335.683 95.8218V92.0278H333.205C329.331 92.0278 327.395 93.1615 327.395 95.4287C327.395 96.4199 327.725 97.1947 328.386 97.7529C329.047 98.3112 329.895 98.5903 330.932 98.5903ZM368.137 91.9595C368.137 94.785 367.487 97.0579 366.188 98.7783C364.89 100.487 363.146 101.342 360.959 101.342C358.623 101.342 356.818 100.516 355.542 98.8638L355.388 101H352.482V74.75H355.644V84.5425C356.92 82.9588 358.68 82.167 360.925 82.167C363.169 82.167 364.93 83.0158 366.206 84.7134C367.493 86.411 368.137 88.7352 368.137 91.686V91.9595ZM364.975 91.6006C364.975 89.4473 364.559 87.7839 363.728 86.6104C362.896 85.4368 361.7 84.8501 360.139 84.8501C358.054 84.8501 356.556 85.8185 355.644 87.7554V95.7534C356.612 97.6903 358.122 98.6587 360.173 98.6587C361.688 98.6587 362.867 98.0719 363.71 96.8984C364.554 95.7249 364.975 93.959 364.975 91.6006ZM383.552 99.1714C382.321 100.618 380.515 101.342 378.134 101.342C376.163 101.342 374.659 100.772 373.623 99.6328C372.597 98.4821 372.079 96.7845 372.067 94.54V82.5088H375.229V94.4546C375.229 97.2573 376.368 98.6587 378.647 98.6587C381.062 98.6587 382.669 97.7586 383.466 95.9585V82.5088H386.628V101H383.62L383.552 99.1714ZM394.882 101H391.721V74.75H394.882V101ZM415.612 91.9595C415.612 94.785 414.963 97.0579 413.664 98.7783C412.365 100.487 410.622 101.342 408.435 101.342C406.099 101.342 404.293 100.516 403.017 98.8638L402.863 101H399.958V74.75H403.12V84.5425C404.396 82.9588 406.156 82.167 408.4 82.167C410.645 82.167 412.405 83.0158 413.681 84.7134C414.969 86.411 415.612 88.7352 415.612 91.686V91.9595ZM412.451 91.6006C412.451 89.4473 412.035 87.7839 411.203 86.6104C410.371 85.4368 409.175 84.8501 407.614 84.8501C405.529 84.8501 404.031 85.8185 403.12 87.7554V95.7534C404.088 97.6903 405.598 98.6587 407.648 98.6587C409.164 98.6587 410.343 98.0719 411.186 96.8984C412.029 95.7249 412.451 93.959 412.451 91.6006ZM427.541 91.6006C427.541 88.7181 428.208 86.4281 429.541 84.7305C430.874 83.0215 432.639 82.167 434.838 82.167C437.094 82.167 438.854 82.9645 440.119 84.5596L440.273 82.5088H443.161V100.556C443.161 102.948 442.449 104.834 441.025 106.212C439.612 107.591 437.709 108.28 435.317 108.28C433.984 108.28 432.679 107.995 431.403 107.426C430.127 106.856 429.153 106.076 428.481 105.084L430.122 103.188C431.477 104.862 433.135 105.7 435.095 105.7C436.633 105.7 437.829 105.267 438.684 104.401C439.549 103.535 439.982 102.316 439.982 100.744V99.1543C438.718 100.613 436.992 101.342 434.804 101.342C432.639 101.342 430.885 100.47 429.541 98.7271C428.208 96.9839 427.541 94.6084 427.541 91.6006ZM430.72 91.9595C430.72 94.0444 431.147 95.6851 432.001 96.8813C432.856 98.0662 434.052 98.6587 435.59 98.6587C437.584 98.6587 439.048 97.7529 439.982 95.9414V87.499C439.014 85.7331 437.561 84.8501 435.625 84.8501C434.086 84.8501 432.884 85.4482 432.019 86.6445C431.153 87.8408 430.72 89.6125 430.72 91.9595ZM451.381 101H448.22V74.75H451.381V101ZM455.62 91.5835C455.62 89.772 455.973 88.1427 456.679 86.6958C457.397 85.2489 458.388 84.1323 459.653 83.3462C460.929 82.5601 462.382 82.167 464.011 82.167C466.529 82.167 468.562 83.0386 470.112 84.7817C471.673 86.5249 472.453 88.8434 472.453 91.7373V91.9595C472.453 93.7596 472.106 95.3774 471.411 96.813C470.727 98.2371 469.742 99.348 468.454 100.146C467.178 100.943 465.708 101.342 464.045 101.342C461.538 101.342 459.505 100.47 457.944 98.7271C456.394 96.9839 455.62 94.6768 455.62 91.8057V91.5835ZM458.798 91.9595C458.798 94.0103 459.271 95.6566 460.217 96.8984C461.174 98.1403 462.45 98.7612 464.045 98.7612C465.651 98.7612 466.927 98.1346 467.873 96.8813C468.819 95.6167 469.292 93.8507 469.292 91.5835C469.292 89.5555 468.807 87.9149 467.839 86.6616C466.882 85.397 465.606 84.7646 464.011 84.7646C462.45 84.7646 461.191 85.3856 460.234 86.6274C459.277 87.8693 458.798 89.6466 458.798 91.9595ZM492.79 96.6421L496.345 82.5088H499.506L494.123 101H491.56L487.065 86.9863L482.69 101H480.126L474.76 82.5088H477.905L481.545 96.3516L485.852 82.5088H488.398L492.79 96.6421ZM250.029 124.362C250.029 126.8 249.619 128.931 248.798 130.753C247.978 132.565 246.816 133.949 245.312 134.906C243.808 135.863 242.054 136.342 240.048 136.342C238.089 136.342 236.351 135.863 234.836 134.906C233.321 133.938 232.141 132.565 231.298 130.788C230.467 128.999 230.039 126.931 230.017 124.584V122.79C230.017 120.397 230.432 118.284 231.264 116.449C232.096 114.615 233.269 113.214 234.785 112.245C236.311 111.265 238.055 110.775 240.014 110.775C242.008 110.775 243.763 111.26 245.278 112.228C246.805 113.185 247.978 114.581 248.798 116.415C249.619 118.238 250.029 120.363 250.029 122.79V124.362ZM246.765 122.755C246.765 119.805 246.172 117.543 244.987 115.971C243.802 114.387 242.145 113.595 240.014 113.595C237.941 113.595 236.306 114.387 235.109 115.971C233.924 117.543 233.315 119.73 233.281 122.533V124.362C233.281 127.222 233.879 129.472 235.075 131.112C236.283 132.742 237.941 133.556 240.048 133.556C242.167 133.556 243.808 132.787 244.97 131.249C246.132 129.7 246.73 127.484 246.765 124.601V122.755ZM257.446 117.509L257.548 119.833C258.961 118.056 260.807 117.167 263.085 117.167C266.993 117.167 268.964 119.372 268.999 123.781V136H265.837V123.764C265.826 122.431 265.518 121.445 264.914 120.807C264.322 120.169 263.393 119.85 262.128 119.85C261.103 119.85 260.203 120.124 259.428 120.67C258.653 121.217 258.05 121.935 257.617 122.824V136H254.455V117.509H257.446ZM285.422 117.509L285.507 119.56C286.863 117.965 288.692 117.167 290.993 117.167C293.579 117.167 295.34 118.158 296.274 120.141C296.889 119.252 297.687 118.534 298.667 117.987C299.658 117.44 300.826 117.167 302.17 117.167C306.226 117.167 308.288 119.315 308.356 123.61V136H305.195V123.798C305.195 122.476 304.893 121.491 304.289 120.841C303.685 120.181 302.671 119.85 301.247 119.85C300.074 119.85 299.099 120.203 298.325 120.91C297.55 121.605 297.1 122.545 296.975 123.729V136H293.796V123.883C293.796 121.194 292.48 119.85 289.848 119.85C287.775 119.85 286.356 120.733 285.593 122.499V136H282.431V117.509H285.422ZM312.304 126.583C312.304 124.772 312.657 123.143 313.364 121.696C314.082 120.249 315.073 119.132 316.337 118.346C317.613 117.56 319.066 117.167 320.695 117.167C323.213 117.167 325.247 118.039 326.796 119.782C328.357 121.525 329.138 123.843 329.138 126.737V126.959C329.138 128.76 328.79 130.377 328.095 131.813C327.412 133.237 326.426 134.348 325.139 135.146C323.863 135.943 322.393 136.342 320.729 136.342C318.223 136.342 316.189 135.47 314.628 133.727C313.079 131.984 312.304 129.677 312.304 126.806V126.583ZM315.483 126.959C315.483 129.01 315.956 130.657 316.901 131.898C317.858 133.14 319.134 133.761 320.729 133.761C322.336 133.761 323.612 133.135 324.558 131.881C325.503 130.617 325.976 128.851 325.976 126.583C325.976 124.556 325.492 122.915 324.523 121.662C323.566 120.397 322.29 119.765 320.695 119.765C319.134 119.765 317.875 120.386 316.918 121.627C315.961 122.869 315.483 124.647 315.483 126.959ZM344.519 134.171C343.288 135.618 341.482 136.342 339.101 136.342C337.13 136.342 335.626 135.772 334.589 134.633C333.564 133.482 333.046 131.785 333.034 129.54V117.509H336.196V129.455C336.196 132.257 337.335 133.659 339.614 133.659C342.029 133.659 343.636 132.759 344.433 130.958V117.509H347.595V136H344.587L344.519 134.171ZM363.181 131.095C363.181 130.241 362.856 129.58 362.207 129.113C361.569 128.634 360.446 128.224 358.84 127.882C357.245 127.541 355.974 127.13 355.029 126.652C354.095 126.173 353.4 125.604 352.944 124.943C352.5 124.282 352.277 123.496 352.277 122.584C352.277 121.069 352.915 119.787 354.191 118.739C355.479 117.691 357.119 117.167 359.113 117.167C361.21 117.167 362.907 117.708 364.206 118.791C365.516 119.873 366.171 121.257 366.171 122.943H362.993C362.993 122.077 362.622 121.331 361.882 120.705C361.153 120.078 360.23 119.765 359.113 119.765C357.963 119.765 357.062 120.015 356.413 120.517C355.764 121.018 355.439 121.673 355.439 122.482C355.439 123.245 355.741 123.821 356.345 124.208C356.949 124.595 358.037 124.966 359.609 125.319C361.193 125.672 362.474 126.094 363.454 126.583C364.434 127.073 365.157 127.666 365.625 128.361C366.103 129.044 366.342 129.882 366.342 130.873C366.342 132.525 365.681 133.852 364.36 134.855C363.038 135.846 361.324 136.342 359.216 136.342C357.735 136.342 356.424 136.08 355.285 135.556C354.146 135.032 353.251 134.302 352.602 133.368C351.964 132.423 351.645 131.403 351.645 130.309H354.807C354.864 131.369 355.285 132.212 356.071 132.838C356.869 133.454 357.917 133.761 359.216 133.761C360.412 133.761 361.369 133.522 362.087 133.043C362.816 132.554 363.181 131.904 363.181 131.095ZM378.134 136.342C375.628 136.342 373.588 135.521 372.016 133.881C370.444 132.229 369.658 130.024 369.658 127.267V126.686C369.658 124.852 370.005 123.217 370.7 121.781C371.407 120.334 372.386 119.206 373.64 118.397C374.904 117.577 376.271 117.167 377.741 117.167C380.145 117.167 382.014 117.959 383.347 119.542C384.68 121.126 385.346 123.393 385.346 126.344V127.66H372.819C372.865 129.483 373.395 130.958 374.409 132.086C375.434 133.203 376.733 133.761 378.305 133.761C379.422 133.761 380.367 133.533 381.142 133.078C381.917 132.622 382.595 132.018 383.176 131.266L385.107 132.77C383.557 135.151 381.233 136.342 378.134 136.342ZM377.741 119.765C376.465 119.765 375.394 120.232 374.528 121.166C373.662 122.089 373.127 123.388 372.922 125.062H382.185V124.823C382.093 123.217 381.66 121.975 380.886 121.098C380.111 120.209 379.063 119.765 377.741 119.765ZM400.864 119.748C402.265 118.027 404.088 117.167 406.333 117.167C410.24 117.167 412.211 119.372 412.246 123.781V136H409.084V123.764C409.073 122.431 408.765 121.445 408.161 120.807C407.569 120.169 406.64 119.85 405.375 119.85C404.35 119.85 403.45 120.124 402.675 120.67C401.901 121.217 401.297 121.935 400.864 122.824V136H397.702V109.75H400.864V119.748ZM416.142 126.583C416.142 124.772 416.495 123.143 417.202 121.696C417.919 120.249 418.911 119.132 420.175 118.346C421.451 117.56 422.904 117.167 424.533 117.167C427.051 117.167 429.085 118.039 430.634 119.782C432.195 121.525 432.976 123.843 432.976 126.737V126.959C432.976 128.76 432.628 130.377 431.933 131.813C431.25 133.237 430.264 134.348 428.977 135.146C427.701 135.943 426.231 136.342 424.567 136.342C422.061 136.342 420.027 135.47 418.466 133.727C416.917 131.984 416.142 129.677 416.142 126.806V126.583ZM419.321 126.959C419.321 129.01 419.794 130.657 420.739 131.898C421.696 133.14 422.972 133.761 424.567 133.761C426.174 133.761 427.45 133.135 428.396 131.881C429.341 130.617 429.814 128.851 429.814 126.583C429.814 124.556 429.33 122.915 428.361 121.662C427.404 120.397 426.128 119.765 424.533 119.765C422.972 119.765 421.713 120.386 420.756 121.627C419.799 122.869 419.321 124.647 419.321 126.959ZM442.768 131.71L447.348 117.509H450.578L443.947 136H441.538L434.838 117.509H438.068L442.768 131.71ZM461.054 136.342C458.548 136.342 456.508 135.521 454.936 133.881C453.364 132.229 452.578 130.024 452.578 127.267V126.686C452.578 124.852 452.925 123.217 453.62 121.781C454.326 120.334 455.306 119.206 456.56 118.397C457.824 117.577 459.191 117.167 460.661 117.167C463.065 117.167 464.934 117.959 466.267 119.542C467.6 121.126 468.266 123.393 468.266 126.344V127.66H455.739C455.785 129.483 456.315 130.958 457.329 132.086C458.354 133.203 459.653 133.761 461.225 133.761C462.342 133.761 463.287 133.533 464.062 133.078C464.837 132.622 465.515 132.018 466.096 131.266L468.027 132.77C466.477 135.151 464.153 136.342 461.054 136.342ZM460.661 119.765C459.385 119.765 458.314 120.232 457.448 121.166C456.582 122.089 456.047 123.388 455.842 125.062H465.104V124.823C465.013 123.217 464.58 121.975 463.806 121.098C463.031 120.209 461.983 119.765 460.661 119.765ZM480.878 120.346C480.4 120.266 479.882 120.226 479.323 120.226C477.25 120.226 475.843 121.109 475.102 122.875V136H471.94V117.509H475.017L475.068 119.645C476.105 117.993 477.574 117.167 479.477 117.167C480.092 117.167 480.559 117.247 480.878 117.406V120.346ZM248.405 181.117V198.036C248.394 200.383 247.653 202.303 246.184 203.795C244.725 205.288 242.743 206.125 240.236 206.308L239.365 206.342C236.642 206.342 234.471 205.607 232.854 204.137C231.236 202.667 230.415 200.645 230.393 198.07V181.117H233.64V197.968C233.64 199.768 234.135 201.169 235.126 202.172C236.118 203.163 237.53 203.659 239.365 203.659C241.222 203.659 242.64 203.163 243.62 202.172C244.611 201.181 245.107 199.785 245.107 197.985V181.117H248.405ZM263.854 201.095C263.854 200.241 263.53 199.58 262.88 199.113C262.242 198.634 261.12 198.224 259.514 197.882C257.919 197.541 256.648 197.13 255.703 196.652C254.768 196.173 254.073 195.604 253.618 194.943C253.173 194.282 252.951 193.496 252.951 192.584C252.951 191.069 253.589 189.787 254.865 188.739C256.153 187.691 257.793 187.167 259.787 187.167C261.883 187.167 263.581 187.708 264.88 188.791C266.19 189.873 266.845 191.257 266.845 192.943H263.667C263.667 192.077 263.296 191.331 262.556 190.705C261.826 190.078 260.904 189.765 259.787 189.765C258.636 189.765 257.736 190.015 257.087 190.517C256.438 191.018 256.113 191.673 256.113 192.482C256.113 193.245 256.415 193.821 257.019 194.208C257.622 194.595 258.71 194.966 260.283 195.319C261.866 195.672 263.148 196.094 264.128 196.583C265.108 197.073 265.831 197.666 266.298 198.361C266.777 199.044 267.016 199.882 267.016 200.873C267.016 202.525 266.355 203.852 265.034 204.855C263.712 205.846 261.997 206.342 259.89 206.342C258.409 206.342 257.098 206.08 255.959 205.556C254.82 205.032 253.925 204.302 253.276 203.368C252.638 202.423 252.319 201.403 252.319 200.309H255.48C255.537 201.369 255.959 202.212 256.745 202.838C257.543 203.454 258.591 203.761 259.89 203.761C261.086 203.761 262.043 203.522 262.761 203.043C263.49 202.554 263.854 201.904 263.854 201.095ZM278.808 206.342C276.302 206.342 274.262 205.521 272.69 203.881C271.118 202.229 270.332 200.024 270.332 197.267V196.686C270.332 194.852 270.679 193.217 271.374 191.781C272.08 190.334 273.06 189.206 274.313 188.397C275.578 187.577 276.945 187.167 278.415 187.167C280.819 187.167 282.688 187.959 284.021 189.542C285.354 191.126 286.02 193.393 286.02 196.344V197.66H273.493C273.539 199.483 274.069 200.958 275.083 202.086C276.108 203.203 277.407 203.761 278.979 203.761C280.096 203.761 281.041 203.533 281.816 203.078C282.591 202.622 283.269 202.018 283.85 201.266L285.781 202.77C284.231 205.151 281.907 206.342 278.808 206.342ZM278.415 189.765C277.139 189.765 276.068 190.232 275.202 191.166C274.336 192.089 273.801 193.388 273.596 195.062H282.858V194.823C282.767 193.217 282.334 191.975 281.56 191.098C280.785 190.209 279.737 189.765 278.415 189.765ZM297.539 196.583C297.539 194.772 297.892 193.143 298.598 191.696C299.316 190.249 300.307 189.132 301.572 188.346C302.848 187.56 304.3 187.167 305.93 187.167C308.448 187.167 310.481 188.039 312.031 189.782C313.592 191.525 314.372 193.843 314.372 196.737V196.959C314.372 198.76 314.025 200.377 313.33 201.813C312.646 203.237 311.66 204.348 310.373 205.146C309.097 205.943 307.627 206.342 305.964 206.342C303.457 206.342 301.424 205.47 299.863 203.727C298.313 201.984 297.539 199.677 297.539 196.806V196.583ZM300.717 196.959C300.717 199.01 301.19 200.657 302.136 201.898C303.093 203.14 304.369 203.761 305.964 203.761C307.57 203.761 308.846 203.135 309.792 201.881C310.738 200.617 311.21 198.851 311.21 196.583C311.21 194.556 310.726 192.915 309.758 191.662C308.801 190.397 307.525 189.765 305.93 189.765C304.369 189.765 303.11 190.386 302.153 191.627C301.196 192.869 300.717 194.647 300.717 196.959ZM321.328 187.509L321.43 189.833C322.843 188.056 324.689 187.167 326.967 187.167C330.875 187.167 332.846 189.372 332.88 193.781V206H329.719V193.764C329.707 192.431 329.4 191.445 328.796 190.807C328.203 190.169 327.275 189.85 326.01 189.85C324.985 189.85 324.085 190.124 323.31 190.67C322.535 191.217 321.931 191.935 321.499 192.824V206H318.337V187.509H321.328ZM341.083 206H337.922V179.75H341.083V206ZM352.209 201.369L356.516 187.509H359.899L352.465 208.854C351.315 211.93 349.486 213.468 346.979 213.468L346.381 213.417L345.202 213.195V210.631L346.057 210.7C347.128 210.7 347.959 210.483 348.552 210.05C349.156 209.617 349.651 208.826 350.039 207.675L350.739 205.795L344.143 187.509H347.595L352.209 201.369ZM382.834 206C382.652 205.635 382.504 204.986 382.39 204.052C380.92 205.578 379.165 206.342 377.126 206.342C375.303 206.342 373.805 205.829 372.631 204.804C371.469 203.767 370.888 202.457 370.888 200.873C370.888 198.948 371.617 197.455 373.076 196.396C374.545 195.325 376.608 194.789 379.262 194.789H382.338V193.336C382.338 192.231 382.008 191.354 381.347 190.705C380.686 190.044 379.712 189.713 378.425 189.713C377.297 189.713 376.351 189.998 375.588 190.568C374.825 191.138 374.443 191.827 374.443 192.636H371.264C371.264 191.713 371.589 190.824 372.238 189.97C372.899 189.104 373.788 188.42 374.904 187.919C376.032 187.418 377.268 187.167 378.613 187.167C380.743 187.167 382.412 187.702 383.62 188.773C384.828 189.833 385.454 191.297 385.5 193.166V201.676C385.5 203.374 385.716 204.724 386.149 205.727V206H382.834ZM377.587 203.59C378.579 203.59 379.519 203.334 380.407 202.821C381.296 202.309 381.94 201.642 382.338 200.822V197.028H379.86C375.987 197.028 374.05 198.161 374.05 200.429C374.05 201.42 374.38 202.195 375.041 202.753C375.702 203.311 376.551 203.59 377.587 203.59ZM409.904 201.095C409.904 200.241 409.58 199.58 408.93 199.113C408.292 198.634 407.17 198.224 405.563 197.882C403.968 197.541 402.698 197.13 401.752 196.652C400.818 196.173 400.123 195.604 399.667 194.943C399.223 194.282 399.001 193.496 399.001 192.584C399.001 191.069 399.639 189.787 400.915 188.739C402.202 187.691 403.843 187.167 405.837 187.167C407.933 187.167 409.631 187.708 410.93 188.791C412.24 189.873 412.895 191.257 412.895 192.943H409.716C409.716 192.077 409.346 191.331 408.605 190.705C407.876 190.078 406.953 189.765 405.837 189.765C404.686 189.765 403.786 190.015 403.137 190.517C402.487 191.018 402.163 191.673 402.163 192.482C402.163 193.245 402.465 193.821 403.068 194.208C403.672 194.595 404.76 194.966 406.333 195.319C407.916 195.672 409.198 196.094 410.178 196.583C411.158 197.073 411.881 197.666 412.348 198.361C412.827 199.044 413.066 199.882 413.066 200.873C413.066 202.525 412.405 203.852 411.083 204.855C409.762 205.846 408.047 206.342 405.939 206.342C404.458 206.342 403.148 206.08 402.009 205.556C400.869 205.032 399.975 204.302 399.326 203.368C398.688 202.423 398.369 201.403 398.369 200.309H401.53C401.587 201.369 402.009 202.212 402.795 202.838C403.592 203.454 404.641 203.761 405.939 203.761C407.136 203.761 408.093 203.522 408.811 203.043C409.54 202.554 409.904 201.904 409.904 201.095ZM420.62 206H417.458V187.509H420.62V206ZM417.202 182.604C417.202 182.091 417.355 181.658 417.663 181.305C417.982 180.952 418.449 180.775 419.064 180.775C419.68 180.775 420.147 180.952 420.466 181.305C420.785 181.658 420.944 182.091 420.944 182.604C420.944 183.117 420.785 183.544 420.466 183.886C420.147 184.228 419.68 184.398 419.064 184.398C418.449 184.398 417.982 184.228 417.663 183.886C417.355 183.544 417.202 183.117 417.202 182.604ZM428.686 187.509L428.789 189.833C430.201 188.056 432.047 187.167 434.326 187.167C438.234 187.167 440.205 189.372 440.239 193.781V206H437.077V193.764C437.066 192.431 436.758 191.445 436.154 190.807C435.562 190.169 434.633 189.85 433.369 189.85C432.343 189.85 431.443 190.124 430.668 190.67C429.894 191.217 429.29 191.935 428.857 192.824V206H425.695V187.509H428.686ZM444.255 196.601C444.255 193.718 444.921 191.428 446.254 189.73C447.587 188.021 449.353 187.167 451.552 187.167C453.808 187.167 455.568 187.965 456.833 189.56L456.987 187.509H459.875V205.556C459.875 207.948 459.163 209.834 457.739 211.212C456.326 212.591 454.423 213.28 452.031 213.28C450.698 213.28 449.393 212.995 448.117 212.426C446.841 211.856 445.867 211.076 445.195 210.084L446.835 208.188C448.191 209.862 449.849 210.7 451.809 210.7C453.347 210.7 454.543 210.267 455.397 209.401C456.263 208.535 456.696 207.316 456.696 205.744V204.154C455.432 205.613 453.706 206.342 451.518 206.342C449.353 206.342 447.599 205.47 446.254 203.727C444.921 201.984 444.255 199.608 444.255 196.601ZM447.434 196.959C447.434 199.044 447.861 200.685 448.715 201.881C449.57 203.066 450.766 203.659 452.304 203.659C454.298 203.659 455.762 202.753 456.696 200.941V192.499C455.728 190.733 454.275 189.85 452.338 189.85C450.8 189.85 449.598 190.448 448.732 191.645C447.867 192.841 447.434 194.612 447.434 196.959ZM468.095 206H464.934V179.75H468.095V206ZM480.844 206.342C478.338 206.342 476.298 205.521 474.726 203.881C473.154 202.229 472.368 200.024 472.368 197.267V196.686C472.368 194.852 472.715 193.217 473.41 191.781C474.117 190.334 475.096 189.206 476.35 188.397C477.614 187.577 478.981 187.167 480.451 187.167C482.855 187.167 484.724 187.959 486.057 189.542C487.39 191.126 488.056 193.393 488.056 196.344V197.66H475.529C475.575 199.483 476.105 200.958 477.119 202.086C478.144 203.203 479.443 203.761 481.015 203.761C482.132 203.761 483.077 203.533 483.852 203.078C484.627 202.622 485.305 202.018 485.886 201.266L487.817 202.77C486.267 205.151 483.943 206.342 480.844 206.342ZM480.451 189.765C479.175 189.765 478.104 190.232 477.238 191.166C476.372 192.089 475.837 193.388 475.632 195.062H484.895V194.823C484.803 193.217 484.37 191.975 483.596 191.098C482.821 190.209 481.773 189.765 480.451 189.765ZM503.847 206H500.686V187.509H503.847V206ZM500.429 182.604C500.429 182.091 500.583 181.658 500.891 181.305C501.21 180.952 501.677 180.775 502.292 180.775C502.907 180.775 503.374 180.952 503.693 181.305C504.012 181.658 504.172 182.091 504.172 182.604C504.172 183.117 504.012 183.544 503.693 183.886C503.374 184.228 502.907 184.398 502.292 184.398C501.677 184.398 501.21 184.228 500.891 183.886C500.583 183.544 500.429 183.117 500.429 182.604ZM511.896 187.509L511.982 189.56C513.338 187.965 515.166 187.167 517.468 187.167C520.054 187.167 521.814 188.158 522.749 190.141C523.364 189.252 524.161 188.534 525.141 187.987C526.132 187.44 527.3 187.167 528.645 187.167C532.701 187.167 534.763 189.315 534.831 193.61V206H531.669V193.798C531.669 192.476 531.368 191.491 530.764 190.841C530.16 190.181 529.146 189.85 527.722 189.85C526.548 189.85 525.574 190.203 524.799 190.91C524.025 191.605 523.575 192.545 523.449 193.729V206H520.271V193.883C520.271 191.194 518.955 189.85 516.323 189.85C514.249 189.85 512.831 190.733 512.067 192.499V206H508.906V187.509H511.896ZM551.032 206C550.85 205.635 550.702 204.986 550.588 204.052C549.118 205.578 547.364 206.342 545.324 206.342C543.501 206.342 542.003 205.829 540.83 204.804C539.667 203.767 539.086 202.457 539.086 200.873C539.086 198.948 539.816 197.455 541.274 196.396C542.744 195.325 544.806 194.789 547.46 194.789H550.537V193.336C550.537 192.231 550.206 191.354 549.545 190.705C548.885 190.044 547.91 189.713 546.623 189.713C545.495 189.713 544.549 189.998 543.786 190.568C543.023 191.138 542.641 191.827 542.641 192.636H539.462C539.462 191.713 539.787 190.824 540.437 189.97C541.097 189.104 541.986 188.42 543.103 187.919C544.23 187.418 545.467 187.167 546.811 187.167C548.942 187.167 550.611 187.702 551.818 188.773C553.026 189.833 553.653 191.297 553.698 193.166V201.676C553.698 203.374 553.915 204.724 554.348 205.727V206H551.032ZM545.786 203.59C546.777 203.59 547.717 203.334 548.605 202.821C549.494 202.309 550.138 201.642 550.537 200.822V197.028H548.059C544.185 197.028 542.248 198.161 542.248 200.429C542.248 201.42 542.578 202.195 543.239 202.753C543.9 203.311 544.749 203.59 545.786 203.59ZM557.902 196.601C557.902 193.718 558.569 191.428 559.902 189.73C561.235 188.021 563.001 187.167 565.2 187.167C567.456 187.167 569.216 187.965 570.48 189.56L570.634 187.509H573.522V205.556C573.522 207.948 572.81 209.834 571.386 211.212C569.973 212.591 568.071 213.28 565.678 213.28C564.345 213.28 563.041 212.995 561.765 212.426C560.489 211.856 559.514 211.076 558.842 210.084L560.483 208.188C561.839 209.862 563.496 210.7 565.456 210.7C566.994 210.7 568.19 210.267 569.045 209.401C569.911 208.535 570.344 207.316 570.344 205.744V204.154C569.079 205.613 567.353 206.342 565.166 206.342C563.001 206.342 561.246 205.47 559.902 203.727C558.569 201.984 557.902 199.608 557.902 196.601ZM561.081 196.959C561.081 199.044 561.508 200.685 562.363 201.881C563.217 203.066 564.414 203.659 565.952 203.659C567.945 203.659 569.41 202.753 570.344 200.941V192.499C569.375 190.733 567.923 189.85 565.986 189.85C564.448 189.85 563.246 190.448 562.38 191.645C561.514 192.841 561.081 194.612 561.081 196.959ZM585.981 206.342C583.474 206.342 581.435 205.521 579.863 203.881C578.291 202.229 577.504 200.024 577.504 197.267V196.686C577.504 194.852 577.852 193.217 578.547 191.781C579.253 190.334 580.233 189.206 581.486 188.397C582.751 187.577 584.118 187.167 585.588 187.167C587.992 187.167 589.86 187.959 591.193 189.542C592.526 191.126 593.193 193.393 593.193 196.344V197.66H580.666C580.712 199.483 581.241 200.958 582.255 202.086C583.281 203.203 584.58 203.761 586.152 203.761C587.268 203.761 588.214 203.533 588.989 203.078C589.764 202.622 590.441 202.018 591.022 201.266L592.954 202.77C591.404 205.151 589.08 206.342 585.981 206.342ZM585.588 189.765C584.312 189.765 583.241 190.232 582.375 191.166C581.509 192.089 580.974 193.388 580.769 195.062H590.031V194.823C589.94 193.217 589.507 191.975 588.732 191.098C587.958 190.209 586.91 189.765 585.588 189.765ZM238.801 247.255C236.784 246.685 235.263 245.745 234.238 244.435C233.224 243.136 232.717 241.416 232.717 239.274V235.873C232.717 233.104 231.509 231.72 229.094 231.72V229.242C231.509 229.242 232.717 227.864 232.717 225.106V221.552C232.74 219.467 233.247 217.786 234.238 216.51C235.24 215.223 236.761 214.289 238.801 213.708L239.45 215.673C237.069 216.436 235.878 218.424 235.878 221.637V225.089C235.878 227.676 234.927 229.476 233.024 230.49C234.927 231.515 235.878 233.332 235.878 235.941V239.462C235.913 242.595 237.103 244.538 239.45 245.29L238.801 247.255ZM254.472 233.976H251.618L251.396 216.117H254.711L254.472 233.976ZM251.276 239.411C251.276 238.898 251.43 238.471 251.738 238.129C252.057 237.776 252.524 237.599 253.139 237.599C253.754 237.599 254.222 237.776 254.541 238.129C254.86 238.471 255.019 238.898 255.019 239.411C255.019 239.923 254.86 240.351 254.541 240.692C254.222 241.023 253.754 241.188 253.139 241.188C252.524 241.188 252.057 241.023 251.738 240.692C251.43 240.351 251.276 239.923 251.276 239.411ZM269.135 241V216.117H276.159C278.324 216.117 280.238 216.596 281.901 217.553C283.565 218.51 284.847 219.871 285.747 221.637C286.658 223.403 287.119 225.431 287.131 227.721V229.311C287.131 231.658 286.675 233.714 285.764 235.48C284.864 237.246 283.57 238.602 281.884 239.547C280.209 240.493 278.256 240.977 276.022 241H269.135ZM272.417 218.817V238.317H275.869C278.398 238.317 280.363 237.531 281.765 235.958C283.177 234.386 283.884 232.147 283.884 229.242V227.79C283.884 224.964 283.217 222.771 281.884 221.21C280.563 219.638 278.683 218.84 276.245 218.817H272.417ZM311.245 229.362C311.245 231.8 310.834 233.931 310.014 235.753C309.194 237.565 308.032 238.949 306.528 239.906C305.024 240.863 303.269 241.342 301.264 241.342C299.305 241.342 297.567 240.863 296.052 239.906C294.536 238.938 293.357 237.565 292.514 235.788C291.682 233.999 291.255 231.931 291.232 229.584V227.79C291.232 225.397 291.648 223.284 292.48 221.449C293.312 219.615 294.485 218.214 296 217.245C297.527 216.265 299.27 215.775 301.23 215.775C303.224 215.775 304.978 216.26 306.494 217.228C308.02 218.185 309.194 219.581 310.014 221.415C310.834 223.238 311.245 225.363 311.245 227.79V229.362ZM307.98 227.755C307.98 224.805 307.388 222.543 306.203 220.971C305.018 219.387 303.361 218.595 301.23 218.595C299.156 218.595 297.521 219.387 296.325 220.971C295.14 222.543 294.531 224.73 294.497 227.533V229.362C294.497 232.222 295.095 234.472 296.291 236.112C297.499 237.742 299.156 238.556 301.264 238.556C303.383 238.556 305.024 237.787 306.186 236.249C307.348 234.7 307.946 232.484 307.98 229.601V227.755ZM343.972 241H340.673L328.146 221.825V241H324.848V216.117H328.146L340.708 235.377V216.117H343.972V241ZM368.94 229.362C368.94 231.8 368.53 233.931 367.709 235.753C366.889 237.565 365.727 238.949 364.223 239.906C362.719 240.863 360.965 241.342 358.959 241.342C357 241.342 355.262 240.863 353.747 239.906C352.232 238.938 351.053 237.565 350.209 235.788C349.378 233.999 348.951 231.931 348.928 229.584V227.79C348.928 225.397 349.344 223.284 350.175 221.449C351.007 219.615 352.181 218.214 353.696 217.245C355.222 216.265 356.966 215.775 358.925 215.775C360.919 215.775 362.674 216.26 364.189 217.228C365.716 218.185 366.889 219.581 367.709 221.415C368.53 223.238 368.94 225.363 368.94 227.79V229.362ZM365.676 227.755C365.676 224.805 365.083 222.543 363.898 220.971C362.714 219.387 361.056 218.595 358.925 218.595C356.852 218.595 355.217 219.387 354.021 220.971C352.836 222.543 352.226 224.73 352.192 227.533V229.362C352.192 232.222 352.79 234.472 353.986 236.112C355.194 237.742 356.852 238.556 358.959 238.556C361.079 238.556 362.719 237.787 363.881 236.249C365.043 234.7 365.642 232.484 365.676 229.601V227.755ZM390.576 218.817H382.578V241H379.313V218.817H371.333V216.117H390.576V218.817ZM419.782 216.117V233.036C419.771 235.383 419.03 237.303 417.561 238.795C416.102 240.288 414.12 241.125 411.613 241.308L410.742 241.342C408.019 241.342 405.848 240.607 404.23 239.137C402.613 237.667 401.792 235.645 401.77 233.07V216.117H405.017V232.968C405.017 234.768 405.512 236.169 406.503 237.172C407.495 238.163 408.907 238.659 410.742 238.659C412.599 238.659 414.017 238.163 414.997 237.172C415.988 236.181 416.484 234.785 416.484 232.985V216.117H419.782ZM432.292 229.909C429.478 229.1 427.427 228.109 426.14 226.935C424.864 225.75 424.226 224.292 424.226 222.56C424.226 220.6 425.006 218.983 426.567 217.707C428.139 216.419 430.179 215.775 432.685 215.775C434.394 215.775 435.915 216.106 437.248 216.767C438.592 217.427 439.629 218.339 440.358 219.501C441.099 220.663 441.469 221.933 441.469 223.312H438.171C438.171 221.808 437.692 220.629 436.735 219.774C435.778 218.909 434.428 218.476 432.685 218.476C431.067 218.476 429.803 218.834 428.891 219.552C427.991 220.259 427.541 221.244 427.541 222.509C427.541 223.523 427.968 224.383 428.823 225.089C429.689 225.784 431.153 226.422 433.215 227.003C435.288 227.584 436.906 228.228 438.068 228.935C439.242 229.63 440.108 230.444 440.666 231.378C441.236 232.313 441.521 233.412 441.521 234.677C441.521 236.693 440.734 238.311 439.162 239.53C437.59 240.738 435.488 241.342 432.856 241.342C431.147 241.342 429.552 241.017 428.071 240.368C426.59 239.707 425.445 238.807 424.636 237.667C423.838 236.528 423.439 235.235 423.439 233.788H426.738C426.738 235.292 427.29 236.483 428.396 237.36C429.512 238.226 430.999 238.659 432.856 238.659C434.588 238.659 435.915 238.306 436.838 237.599C437.761 236.893 438.222 235.93 438.222 234.711C438.222 233.492 437.795 232.552 436.94 231.891C436.086 231.219 434.536 230.558 432.292 229.909ZM459.807 229.499H449.023V238.317H461.55V241H445.742V216.117H461.379V218.817H449.023V226.815H459.807V229.499ZM489.799 241H473.496V238.727L482.109 229.157C483.385 227.71 484.262 226.536 484.741 225.636C485.231 224.725 485.476 223.785 485.476 222.816C485.476 221.518 485.083 220.452 484.296 219.621C483.51 218.789 482.462 218.373 481.152 218.373C479.58 218.373 478.355 218.823 477.478 219.723C476.612 220.612 476.179 221.854 476.179 223.449H473.017C473.017 221.159 473.752 219.307 475.222 217.895C476.703 216.482 478.68 215.775 481.152 215.775C483.465 215.775 485.293 216.385 486.638 217.604C487.982 218.812 488.654 220.424 488.654 222.44C488.654 224.89 487.093 227.807 483.972 231.19L477.307 238.419H489.799V241ZM506.171 241H502.89V216.117H506.171V241ZM516.425 216.117L524.56 236.42L532.695 216.117H536.95V241H533.669V231.31L533.977 220.851L525.808 241H523.295L515.144 220.902L515.468 231.31V241H512.187V216.117H516.425ZM556.792 234.506H546.367L544.025 241H540.642L550.144 216.117H553.015L562.534 241H559.167L556.792 234.506ZM547.358 231.806H555.817L551.579 220.167L547.358 231.806ZM584.05 237.736C583.207 238.944 582.028 239.849 580.512 240.453C579.008 241.046 577.254 241.342 575.249 241.342C573.221 241.342 571.42 240.869 569.848 239.923C568.276 238.966 567.057 237.611 566.191 235.856C565.336 234.101 564.898 232.068 564.875 229.755V227.584C564.875 223.836 565.747 220.931 567.49 218.869C569.244 216.806 571.705 215.775 574.873 215.775C577.47 215.775 579.561 216.442 581.145 217.775C582.728 219.097 583.697 220.976 584.05 223.415H580.769C580.153 220.122 578.194 218.476 574.89 218.476C572.691 218.476 571.022 219.25 569.882 220.8C568.754 222.338 568.185 224.571 568.173 227.499V229.533C568.173 232.324 568.811 234.546 570.087 236.198C571.363 237.838 573.09 238.659 575.266 238.659C576.496 238.659 577.573 238.522 578.496 238.249C579.418 237.975 580.182 237.514 580.786 236.864V231.276H575.026V228.61H584.05V237.736ZM603.601 229.499H592.817V238.317H605.344V241H589.536V216.117H605.173V218.817H592.817V226.815H603.601V229.499ZM616.76 229.909C613.946 229.1 611.895 228.109 610.607 226.935C609.331 225.75 608.693 224.292 608.693 222.56C608.693 220.6 609.474 218.983 611.035 217.707C612.607 216.419 614.646 215.775 617.153 215.775C618.862 215.775 620.383 216.106 621.716 216.767C623.06 217.427 624.097 218.339 624.826 219.501C625.567 220.663 625.937 221.933 625.937 223.312H622.639C622.639 221.808 622.16 220.629 621.203 219.774C620.246 218.909 618.896 218.476 617.153 218.476C615.535 218.476 614.27 218.834 613.359 219.552C612.459 220.259 612.009 221.244 612.009 222.509C612.009 223.523 612.436 224.383 613.291 225.089C614.156 225.784 615.62 226.422 617.683 227.003C619.756 227.584 621.374 228.228 622.536 228.935C623.71 229.63 624.576 230.444 625.134 231.378C625.703 232.313 625.988 233.412 625.988 234.677C625.988 236.693 625.202 238.311 623.63 239.53C622.058 240.738 619.956 241.342 617.324 241.342C615.615 241.342 614.02 241.017 612.539 240.368C611.057 239.707 609.912 238.807 609.104 237.667C608.306 236.528 607.907 235.235 607.907 233.788H611.206C611.206 235.292 611.758 236.483 612.863 237.36C613.98 238.226 615.467 238.659 617.324 238.659C619.056 238.659 620.383 238.306 621.306 237.599C622.229 236.893 622.69 235.93 622.69 234.711C622.69 233.492 622.263 232.552 621.408 231.891C620.554 231.219 619.004 230.558 616.76 229.909ZM652.631 234.506H642.207L639.865 241H636.481L645.983 216.117H648.854L658.374 241H655.007L652.631 234.506ZM643.198 231.806H651.657L647.419 220.167L643.198 231.806ZM680.847 241H677.548L665.021 221.825V241H661.723V216.117H665.021L677.583 235.377V216.117H680.847V241ZM686.674 241V216.117H693.698C695.863 216.117 697.777 216.596 699.44 217.553C701.104 218.51 702.386 219.871 703.286 221.637C704.197 223.403 704.659 225.431 704.67 227.721V229.311C704.67 231.658 704.214 233.714 703.303 235.48C702.403 237.246 701.11 238.602 699.423 239.547C697.749 240.493 695.795 240.977 693.562 241H686.674ZM689.956 218.817V238.317H693.408C695.937 238.317 697.902 237.531 699.304 235.958C700.716 234.386 701.423 232.147 701.423 229.242V227.79C701.423 224.964 700.756 222.771 699.423 221.21C698.102 219.638 696.222 218.84 693.784 218.817H689.956ZM734.833 218.817H726.835V241H723.571V218.817H715.59V216.117H734.833V218.817ZM757.187 229.362C757.187 231.8 756.777 233.931 755.957 235.753C755.136 237.565 753.974 238.949 752.47 239.906C750.966 240.863 749.212 241.342 747.207 241.342C745.247 241.342 743.509 240.863 741.994 239.906C740.479 238.938 739.3 237.565 738.457 235.788C737.625 233.999 737.198 231.931 737.175 229.584V227.79C737.175 225.397 737.591 223.284 738.422 221.449C739.254 219.615 740.428 218.214 741.943 217.245C743.47 216.265 745.213 215.775 747.172 215.775C749.166 215.775 750.921 216.26 752.436 217.228C753.963 218.185 755.136 219.581 755.957 221.415C756.777 223.238 757.187 225.363 757.187 227.79V229.362ZM753.923 227.755C753.923 224.805 753.33 222.543 752.146 220.971C750.961 219.387 749.303 218.595 747.172 218.595C745.099 218.595 743.464 219.387 742.268 220.971C741.083 222.543 740.473 224.73 740.439 227.533V229.362C740.439 232.222 741.037 234.472 742.233 236.112C743.441 237.742 745.099 238.556 747.207 238.556C749.326 238.556 750.966 237.787 752.128 236.249C753.291 234.7 753.889 232.484 753.923 229.601V227.755ZM780.48 237.736C779.637 238.944 778.458 239.849 776.943 240.453C775.439 241.046 773.684 241.342 771.679 241.342C769.651 241.342 767.851 240.869 766.279 239.923C764.707 238.966 763.487 237.611 762.622 235.856C761.767 234.101 761.328 232.068 761.306 229.755V227.584C761.306 223.836 762.177 220.931 763.92 218.869C765.675 216.806 768.136 215.775 771.303 215.775C773.901 215.775 775.992 216.442 777.575 217.775C779.159 219.097 780.127 220.976 780.48 223.415H777.199C776.584 220.122 774.624 218.476 771.32 218.476C769.121 218.476 767.452 219.25 766.313 220.8C765.185 222.338 764.615 224.571 764.604 227.499V229.533C764.604 232.324 765.242 234.546 766.518 236.198C767.794 237.838 769.52 238.659 771.696 238.659C772.927 238.659 774.003 238.522 774.926 238.249C775.849 237.975 776.612 237.514 777.216 236.864V231.276H771.457V228.61H780.48V237.736ZM804.338 237.736C803.495 238.944 802.316 239.849 800.8 240.453C799.296 241.046 797.542 241.342 795.537 241.342C793.509 241.342 791.708 240.869 790.136 239.923C788.564 238.966 787.345 237.611 786.479 235.856C785.625 234.101 785.186 232.068 785.163 229.755V227.584C785.163 223.836 786.035 220.931 787.778 218.869C789.532 216.806 791.993 215.775 795.161 215.775C797.758 215.775 799.849 216.442 801.433 217.775C803.016 219.097 803.985 220.976 804.338 223.415H801.057C800.441 220.122 798.482 218.476 795.178 218.476C792.979 218.476 791.31 219.25 790.17 220.8C789.042 222.338 788.473 224.571 788.461 227.499V229.533C788.461 232.324 789.099 234.546 790.375 236.198C791.652 237.838 793.378 238.659 795.554 238.659C796.784 238.659 797.861 238.522 798.784 238.249C799.707 237.975 800.47 237.514 801.074 236.864V231.276H795.314V228.61H804.338V237.736ZM813.122 238.317H824.914V241H809.824V216.117H813.122V238.317ZM842.722 229.499H831.938V238.317H844.465V241H828.657V216.117H844.294V218.817H831.938V226.815H842.722V229.499ZM860.751 241H857.47V216.117H860.751V241ZM883.447 218.817H875.449V241H872.185V218.817H864.204V216.117H883.447V218.817ZM892.573 245.29C894.886 244.549 896.082 242.663 896.162 239.633V235.873C896.162 233.241 897.193 231.447 899.255 230.49C897.193 229.556 896.162 227.761 896.162 225.106V221.637C896.162 218.424 894.971 216.436 892.59 215.673L893.239 213.708C895.256 214.277 896.771 215.206 897.785 216.493C898.799 217.769 899.312 219.461 899.323 221.569V225.158C899.323 227.881 900.531 229.242 902.946 229.242V231.72C900.531 231.72 899.323 233.104 899.323 235.873V239.325C899.323 241.467 898.805 243.182 897.768 244.469C896.743 245.757 895.233 246.685 893.239 247.255L892.573 245.29Z" fill="#494C58"/>
</g>
<g filter="url(#filter1_d)">
<path d="M28.0806 8.81738H20.0825V31H16.8184V8.81738H8.8374V6.11719H28.0806V8.81738ZM40.7441 31C40.5618 30.6354 40.4137 29.986 40.2998 29.0518C38.8301 30.5785 37.0755 31.3418 35.0361 31.3418C33.2132 31.3418 31.715 30.8291 30.5415 29.8037C29.3794 28.7669 28.7983 27.4567 28.7983 25.873C28.7983 23.9476 29.5275 22.4551 30.9858 21.3955C32.4556 20.3245 34.5177 19.7891 37.1724 19.7891H40.2485V18.3364C40.2485 17.2313 39.9181 16.354 39.2573 15.7046C38.5965 15.0438 37.6224 14.7134 36.335 14.7134C35.207 14.7134 34.2614 14.9982 33.498 15.5679C32.7347 16.1375 32.353 16.8268 32.353 17.6357H29.1743C29.1743 16.7129 29.499 15.8242 30.1484 14.9697C30.8092 14.1038 31.6979 13.4202 32.8145 12.9189C33.9424 12.4176 35.1785 12.167 36.5229 12.167C38.6535 12.167 40.3226 12.7025 41.5303 13.7734C42.738 14.833 43.3646 16.297 43.4102 18.1655V26.6763C43.4102 28.3739 43.6266 29.724 44.0596 30.7266V31H40.7441ZM35.4976 28.5903C36.4888 28.5903 37.4287 28.334 38.3174 27.8213C39.2061 27.3086 39.8498 26.6421 40.2485 25.8218V22.0278H37.7705C33.8968 22.0278 31.96 23.1615 31.96 25.4287C31.96 26.4199 32.2904 27.1947 32.9512 27.7529C33.612 28.3112 34.4608 28.5903 35.4976 28.5903ZM57.3042 15.3457C56.8257 15.266 56.3073 15.2261 55.749 15.2261C53.6755 15.2261 52.2684 16.109 51.5278 17.875V31H48.3662V12.5088H51.4424L51.4937 14.645C52.5304 12.993 54.0002 12.167 55.9028 12.167C56.5181 12.167 56.9852 12.2467 57.3042 12.4062V15.3457ZM59.1328 21.6006C59.1328 18.7181 59.7993 16.4281 61.1323 14.7305C62.4653 13.0215 64.2313 12.167 66.4302 12.167C68.686 12.167 70.4463 12.9645 71.7109 14.5596L71.8647 12.5088H74.7529V30.5557C74.7529 32.9482 74.0409 34.8338 72.6167 36.2124C71.2039 37.591 69.3013 38.2803 66.9087 38.2803C65.5757 38.2803 64.2712 37.9954 62.9951 37.4258C61.7191 36.8561 60.745 36.0757 60.0728 35.0845L61.7134 33.1875C63.0692 34.8623 64.7269 35.6997 66.6865 35.6997C68.2246 35.6997 69.4209 35.2668 70.2754 34.4009C71.1413 33.535 71.5742 32.3159 71.5742 30.7437V29.1543C70.3096 30.6126 68.5835 31.3418 66.396 31.3418C64.2313 31.3418 62.4767 30.4702 61.1323 28.7271C59.7993 26.9839 59.1328 24.6084 59.1328 21.6006ZM62.3115 21.9595C62.3115 24.0444 62.7388 25.6851 63.5933 26.8813C64.4478 28.0662 65.644 28.6587 67.1821 28.6587C69.1759 28.6587 70.64 27.7529 71.5742 25.9414V17.499C70.6058 15.7331 69.1532 14.8501 67.2163 14.8501C65.6782 14.8501 64.4762 15.4482 63.6104 16.6445C62.7445 17.8408 62.3115 19.6125 62.3115 21.9595ZM87.2114 31.3418C84.7049 31.3418 82.6655 30.5215 81.0933 28.8809C79.521 27.2288 78.7349 25.0243 78.7349 22.2671V21.686C78.7349 19.8517 79.0824 18.2168 79.7773 16.7812C80.4837 15.3343 81.4635 14.2064 82.7168 13.3975C83.9814 12.5771 85.3486 12.167 86.8184 12.167C89.2223 12.167 91.0908 12.9588 92.4238 14.5425C93.7568 16.1261 94.4233 18.3934 94.4233 21.3442V22.6602H81.8965C81.9421 24.4831 82.4718 25.9585 83.4858 27.0864C84.5112 28.203 85.8101 28.7612 87.3823 28.7612C88.4989 28.7612 89.4445 28.5334 90.2192 28.0776C90.994 27.6219 91.6719 27.0181 92.2529 26.2661L94.1841 27.77C92.6346 30.1512 90.3104 31.3418 87.2114 31.3418ZM86.8184 14.7646C85.5423 14.7646 84.4714 15.2318 83.6055 16.166C82.7396 17.0889 82.2041 18.3877 81.999 20.0625H91.2617V19.8232C91.1706 18.2168 90.7376 16.9749 89.9629 16.0977C89.1882 15.209 88.14 14.7646 86.8184 14.7646ZM102.387 8.03125V12.5088H105.839V14.9526H102.387V26.4199C102.387 27.1605 102.541 27.7188 102.849 28.0947C103.156 28.4593 103.68 28.6416 104.421 28.6416C104.785 28.6416 105.287 28.5732 105.925 28.4365V31C105.093 31.2279 104.284 31.3418 103.498 31.3418C102.085 31.3418 101.02 30.9146 100.302 30.0601C99.5845 29.2056 99.2256 27.9922 99.2256 26.4199V14.9526H95.8589V12.5088H99.2256V8.03125H102.387ZM28.0806 78.8174H20.0825V101H16.8184V78.8174H8.8374V76.1172H28.0806V78.8174ZM40.7441 101C40.5618 100.635 40.4137 99.986 40.2998 99.0518C38.8301 100.578 37.0755 101.342 35.0361 101.342C33.2132 101.342 31.715 100.829 30.5415 99.8037C29.3794 98.7669 28.7983 97.4567 28.7983 95.873C28.7983 93.9476 29.5275 92.4551 30.9858 91.3955C32.4556 90.3245 34.5177 89.7891 37.1724 89.7891H40.2485V88.3364C40.2485 87.2313 39.9181 86.354 39.2573 85.7046C38.5965 85.0438 37.6224 84.7134 36.335 84.7134C35.207 84.7134 34.2614 84.9982 33.498 85.5679C32.7347 86.1375 32.353 86.8268 32.353 87.6357H29.1743C29.1743 86.7129 29.499 85.8242 30.1484 84.9697C30.8092 84.1038 31.6979 83.4202 32.8145 82.9189C33.9424 82.4176 35.1785 82.167 36.5229 82.167C38.6535 82.167 40.3226 82.7025 41.5303 83.7734C42.738 84.833 43.3646 86.297 43.4102 88.1655V96.6763C43.4102 98.3739 43.6266 99.724 44.0596 100.727V101H40.7441ZM35.4976 98.5903C36.4888 98.5903 37.4287 98.334 38.3174 97.8213C39.2061 97.3086 39.8498 96.6421 40.2485 95.8218V92.0278H37.7705C33.8968 92.0278 31.96 93.1615 31.96 95.4287C31.96 96.4199 32.2904 97.1947 32.9512 97.7529C33.612 98.3112 34.4608 98.5903 35.4976 98.5903ZM59.1328 96.0952C59.1328 95.2407 58.8081 94.5799 58.1587 94.1128C57.5207 93.6343 56.3984 93.2241 54.792 92.8823C53.1969 92.5405 51.9266 92.1304 50.981 91.6519C50.0467 91.1733 49.3517 90.6037 48.896 89.9429C48.4517 89.2821 48.2295 88.4959 48.2295 87.5845C48.2295 86.0692 48.8675 84.7874 50.1436 83.7393C51.431 82.6911 53.0716 82.167 55.0654 82.167C57.1618 82.167 58.8594 82.7082 60.1582 83.7905C61.4684 84.8729 62.1235 86.2572 62.1235 87.9434H58.9448C58.9448 87.0775 58.5745 86.3312 57.834 85.7046C57.1048 85.078 56.182 84.7646 55.0654 84.7646C53.9147 84.7646 53.0146 85.0153 52.3652 85.5166C51.7158 86.0179 51.3911 86.673 51.3911 87.4819C51.3911 88.2453 51.693 88.8206 52.2969 89.208C52.9007 89.5954 53.9888 89.9657 55.561 90.3188C57.1447 90.672 58.4264 91.0936 59.4062 91.5835C60.3861 92.0734 61.1095 92.6659 61.5767 93.3608C62.0552 94.0444 62.2944 94.8818 62.2944 95.873C62.2944 97.5251 61.6336 98.8524 60.312 99.855C58.9904 100.846 57.2757 101.342 55.168 101.342C53.6868 101.342 52.3766 101.08 51.2373 100.556C50.098 100.032 49.2036 99.3024 48.5542 98.3682C47.9162 97.4225 47.5972 96.4028 47.5972 95.3091H50.7588C50.8158 96.3687 51.2373 97.2118 52.0234 97.8384C52.821 98.4536 53.8691 98.7612 55.168 98.7612C56.3643 98.7612 57.3213 98.522 58.0391 98.0435C58.7682 97.5535 59.1328 96.9041 59.1328 96.0952ZM71.5742 92.438L69.5918 94.5059V101H66.4302V74.75H69.5918V90.6265L71.2837 88.5928L77.043 82.5088H80.8882L73.6934 90.2334L81.7256 101H78.0171L71.5742 92.438ZM29.1914 198.104C28.8838 200.736 27.9097 202.77 26.269 204.206C24.6398 205.63 22.4694 206.342 19.7578 206.342C16.8184 206.342 14.46 205.288 12.6826 203.18C10.9167 201.072 10.0337 198.253 10.0337 194.721V192.328C10.0337 190.015 10.4438 187.982 11.2642 186.227C12.0959 184.472 13.2694 183.128 14.7847 182.194C16.3 181.248 18.0545 180.775 20.0483 180.775C22.6916 180.775 24.8107 181.516 26.4058 182.997C28.0008 184.467 28.9294 186.506 29.1914 189.115H25.8931C25.6082 187.133 24.9873 185.697 24.0303 184.809C23.0846 183.92 21.7573 183.476 20.0483 183.476C17.952 183.476 16.3057 184.25 15.1094 185.8C13.9245 187.349 13.332 189.554 13.332 192.414V194.823C13.332 197.523 13.896 199.671 15.0239 201.266C16.1519 202.861 17.7298 203.659 19.7578 203.659C21.5807 203.659 22.9764 203.249 23.9448 202.428C24.9246 201.597 25.5741 200.155 25.8931 198.104H29.1914ZM32.353 196.583C32.353 194.772 32.7062 193.143 33.4126 191.696C34.1304 190.249 35.1216 189.132 36.3862 188.346C37.6623 187.56 39.1149 187.167 40.7441 187.167C43.262 187.167 45.2957 188.039 46.8452 189.782C48.4061 191.525 49.1865 193.843 49.1865 196.737V196.959C49.1865 198.76 48.839 200.377 48.144 201.813C47.4604 203.237 46.4749 204.348 45.1875 205.146C43.9115 205.943 42.4417 206.342 40.7783 206.342C38.2718 206.342 36.2381 205.47 34.6772 203.727C33.1278 201.984 32.353 199.677 32.353 196.806V196.583ZM35.5317 196.959C35.5317 199.01 36.0046 200.657 36.9502 201.898C37.9072 203.14 39.1833 203.761 40.7783 203.761C42.3848 203.761 43.6608 203.135 44.6064 201.881C45.5521 200.617 46.0249 198.851 46.0249 196.583C46.0249 194.556 45.5407 192.915 44.5723 191.662C43.6152 190.397 42.3392 189.765 40.7441 189.765C39.1833 189.765 37.9243 190.386 36.9673 191.627C36.0103 192.869 35.5317 194.647 35.5317 196.959ZM56.1421 187.509L56.2446 189.833C57.6574 188.056 59.5031 187.167 61.7817 187.167C65.6896 187.167 67.6606 189.372 67.6948 193.781V206H64.5332V193.764C64.5218 192.431 64.2142 191.445 63.6104 190.807C63.0179 190.169 62.0894 189.85 60.8247 189.85C59.7993 189.85 58.8993 190.124 58.1245 190.67C57.3498 191.217 56.7459 191.935 56.313 192.824V206H53.1514V187.509H56.1421ZM76.7524 183.031V187.509H80.2046V189.953H76.7524V201.42C76.7524 202.16 76.9062 202.719 77.2139 203.095C77.5215 203.459 78.0456 203.642 78.7861 203.642C79.1507 203.642 79.652 203.573 80.29 203.437V206C79.4583 206.228 78.6494 206.342 77.8633 206.342C76.4505 206.342 75.3853 205.915 74.6675 205.06C73.9497 204.206 73.5908 202.992 73.5908 201.42V189.953H70.2241V187.509H73.5908V183.031H76.7524ZM92.8511 190.346C92.3726 190.266 91.8542 190.226 91.2959 190.226C89.2223 190.226 87.8153 191.109 87.0747 192.875V206H83.9131V187.509H86.9893L87.0405 189.645C88.0773 187.993 89.547 187.167 91.4497 187.167C92.0649 187.167 92.5321 187.247 92.8511 187.406V190.346ZM106.506 206C106.324 205.635 106.175 204.986 106.062 204.052C104.592 205.578 102.837 206.342 100.798 206.342C98.9749 206.342 97.4767 205.829 96.3032 204.804C95.1411 203.767 94.5601 202.457 94.5601 200.873C94.5601 198.948 95.2892 197.455 96.7476 196.396C98.2173 195.325 100.279 194.789 102.934 194.789H106.01V193.336C106.01 192.231 105.68 191.354 105.019 190.705C104.358 190.044 103.384 189.713 102.097 189.713C100.969 189.713 100.023 189.998 99.2598 190.568C98.4964 191.138 98.1147 191.827 98.1147 192.636H94.936C94.936 191.713 95.2607 190.824 95.9102 189.97C96.571 189.104 97.4596 188.42 98.5762 187.919C99.7041 187.418 100.94 187.167 102.285 187.167C104.415 187.167 106.084 187.702 107.292 188.773C108.5 189.833 109.126 191.297 109.172 193.166V201.676C109.172 203.374 109.388 204.724 109.821 205.727V206H106.506ZM101.259 203.59C102.25 203.59 103.19 203.334 104.079 202.821C104.968 202.309 105.611 201.642 106.01 200.822V197.028H103.532C99.6585 197.028 97.7217 198.161 97.7217 200.429C97.7217 201.42 98.0521 202.195 98.7129 202.753C99.3737 203.311 100.222 203.59 101.259 203.59ZM117.563 206H114.401V187.509H117.563V206ZM114.145 182.604C114.145 182.091 114.299 181.658 114.606 181.305C114.925 180.952 115.393 180.775 116.008 180.775C116.623 180.775 117.09 180.952 117.409 181.305C117.728 181.658 117.888 182.091 117.888 182.604C117.888 183.117 117.728 183.544 117.409 183.886C117.09 184.228 116.623 184.398 116.008 184.398C115.393 184.398 114.925 184.228 114.606 183.886C114.299 183.544 114.145 183.117 114.145 182.604ZM125.629 187.509L125.732 189.833C127.145 188.056 128.99 187.167 131.269 187.167C135.177 187.167 137.148 189.372 137.182 193.781V206H134.021V193.764C134.009 192.431 133.701 191.445 133.098 190.807C132.505 190.169 131.577 189.85 130.312 189.85C129.287 189.85 128.387 190.124 127.612 190.67C126.837 191.217 126.233 191.935 125.8 192.824V206H122.639V187.509H125.629ZM146.24 183.031V187.509H149.692V189.953H146.24V201.42C146.24 202.16 146.394 202.719 146.701 203.095C147.009 203.459 147.533 203.642 148.273 203.642C148.638 203.642 149.139 203.573 149.777 203.437V206C148.946 206.228 148.137 206.342 147.351 206.342C145.938 206.342 144.873 205.915 144.155 205.06C143.437 204.206 143.078 202.992 143.078 201.42V189.953H139.711V187.509H143.078V183.031H146.24ZM164.167 201.095C164.167 200.241 163.842 199.58 163.193 199.113C162.555 198.634 161.433 198.224 159.826 197.882C158.231 197.541 156.961 197.13 156.015 196.652C155.081 196.173 154.386 195.604 153.93 194.943C153.486 194.282 153.264 193.496 153.264 192.584C153.264 191.069 153.902 189.787 155.178 188.739C156.465 187.691 158.106 187.167 160.1 187.167C162.196 187.167 163.894 187.708 165.192 188.791C166.503 189.873 167.158 191.257 167.158 192.943H163.979C163.979 192.077 163.609 191.331 162.868 190.705C162.139 190.078 161.216 189.765 160.1 189.765C158.949 189.765 158.049 190.015 157.399 190.517C156.75 191.018 156.425 191.673 156.425 192.482C156.425 193.245 156.727 193.821 157.331 194.208C157.935 194.595 159.023 194.966 160.595 195.319C162.179 195.672 163.461 196.094 164.44 196.583C165.42 197.073 166.144 197.666 166.611 198.361C167.089 199.044 167.329 199.882 167.329 200.873C167.329 202.525 166.668 203.852 165.346 204.855C164.025 205.846 162.31 206.342 160.202 206.342C158.721 206.342 157.411 206.08 156.271 205.556C155.132 205.032 154.238 204.302 153.588 203.368C152.95 202.423 152.631 201.403 152.631 200.309H155.793C155.85 201.369 156.271 202.212 157.058 202.838C157.855 203.454 158.903 203.761 160.202 203.761C161.398 203.761 162.355 203.522 163.073 203.043C163.802 202.554 164.167 201.904 164.167 201.095Z" fill="#494C58"/>
</g>
<g filter="url(#filter2_d)">
<path d="M198.29 29.3423C198.29 28.7954 198.45 28.3397 198.769 27.9751C199.099 27.6105 199.589 27.4282 200.238 27.4282C200.888 27.4282 201.378 27.6105 201.708 27.9751C202.05 28.3397 202.221 28.7954 202.221 29.3423C202.221 29.8664 202.05 30.305 201.708 30.6582C201.378 31.0114 200.888 31.188 200.238 31.188C199.589 31.188 199.099 31.0114 198.769 30.6582C198.45 30.305 198.29 29.8664 198.29 29.3423ZM198.307 14.252C198.307 13.7051 198.467 13.2493 198.786 12.8848C199.116 12.5202 199.606 12.3379 200.255 12.3379C200.905 12.3379 201.395 12.5202 201.725 12.8848C202.067 13.2493 202.238 13.7051 202.238 14.252C202.238 14.776 202.067 15.2147 201.725 15.5679C201.395 15.9211 200.905 16.0977 200.255 16.0977C199.606 16.0977 199.116 15.9211 198.786 15.5679C198.467 15.2147 198.307 14.776 198.307 14.252ZM198.29 99.3423C198.29 98.7954 198.45 98.3397 198.769 97.9751C199.099 97.6105 199.589 97.4282 200.238 97.4282C200.888 97.4282 201.378 97.6105 201.708 97.9751C202.05 98.3397 202.221 98.7954 202.221 99.3423C202.221 99.8664 202.05 100.305 201.708 100.658C201.378 101.011 200.888 101.188 200.238 101.188C199.589 101.188 199.099 101.011 198.769 100.658C198.45 100.305 198.29 99.8664 198.29 99.3423ZM198.307 84.252C198.307 83.7051 198.467 83.2493 198.786 82.8848C199.116 82.5202 199.606 82.3379 200.255 82.3379C200.905 82.3379 201.395 82.5202 201.725 82.8848C202.067 83.2493 202.238 83.7051 202.238 84.252C202.238 84.776 202.067 85.2147 201.725 85.5679C201.395 85.9211 200.905 86.0977 200.255 86.0977C199.606 86.0977 199.116 85.9211 198.786 85.5679C198.467 85.2147 198.307 84.776 198.307 84.252ZM198.29 204.342C198.29 203.795 198.45 203.34 198.769 202.975C199.099 202.611 199.589 202.428 200.238 202.428C200.888 202.428 201.378 202.611 201.708 202.975C202.05 203.34 202.221 203.795 202.221 204.342C202.221 204.866 202.05 205.305 201.708 205.658C201.378 206.011 200.888 206.188 200.238 206.188C199.589 206.188 199.099 206.011 198.769 205.658C198.45 205.305 198.29 204.866 198.29 204.342ZM198.307 189.252C198.307 188.705 198.467 188.249 198.786 187.885C199.116 187.52 199.606 187.338 200.255 187.338C200.905 187.338 201.395 187.52 201.725 187.885C202.067 188.249 202.238 188.705 202.238 189.252C202.238 189.776 202.067 190.215 201.725 190.568C201.395 190.921 200.905 191.098 200.255 191.098C199.606 191.098 199.116 190.921 198.786 190.568C198.467 190.215 198.307 189.776 198.307 189.252Z" fill="#494C58"/>
</g>
<defs>
<filter id="filter0_d" x="221.094" y="0.75" width="689.853" height="258.505" filterUnits="userSpaceOnUse" color-interpolation-filters="sRGB">
<feFlood flood-opacity="0" result="BackgroundImageFix"/>
<feColorMatrix in="SourceAlpha" type="matrix" values="0 0 0 0 0 0 0 0 0 0 0 0 0 0 0 0 0 0 127 0"/>
<feOffset dy="4"/>
<feGaussianBlur stdDeviation="4"/>
<feColorMatrix type="matrix" values="0 0 0 0 0.114792 0 0 0 0 0.126667 0 0 0 0 0.158333 0 0 0 1 0"/>
<feBlend mode="normal" in2="BackgroundImageFix" result="effect1_dropShadow"/>
<feBlend mode="normal" in="SourceGraphic" in2="effect1_dropShadow" result="shape"/>
</filter>
<filter id="filter1_d" x="0.837402" y="2.11719" width="174.491" height="216.225" filterUnits="userSpaceOnUse" color-interpolation-filters="sRGB">
<feFlood flood-opacity="0" result="BackgroundImageFix"/>
<feColorMatrix in="SourceAlpha" type="matrix" values="0 0 0 0 0 0 0 0 0 0 0 0 0 0 0 0 0 0 127 0"/>
<feOffset dy="4"/>
<feGaussianBlur stdDeviation="4"/>
<feColorMatrix type="matrix" values="0 0 0 0 0.114792 0 0 0 0 0.126667 0 0 0 0 0.158333 0 0 0 1 0"/>
<feBlend mode="normal" in2="BackgroundImageFix" result="effect1_dropShadow"/>
<feBlend mode="normal" in="SourceGraphic" in2="effect1_dropShadow" result="shape"/>
</filter>
<filter id="filter2_d" x="190.29" y="8.33789" width="19.9478" height="209.85" filterUnits="userSpaceOnUse" color-interpolation-filters="sRGB">
<feFlood flood-opacity="0" result="BackgroundImageFix"/>
<feColorMatrix in="SourceAlpha" type="matrix" values="0 0 0 0 0 0 0 0 0 0 0 0 0 0 0 0 0 0 127 0"/>
<feOffset dy="4"/>
<feGaussianBlur stdDeviation="4"/>
<feColorMatrix type="matrix" values="0 0 0 0 0.149722 0 0 0 0 0.164571 0 0 0 0 0.204167 0 0 0 1 0"/>
<feBlend mode="normal" in2="BackgroundImageFix" result="effect1_dropShadow"/>
<feBlend mode="normal" in="SourceGraphic" in2="effect1_dropShadow" result="shape"/>
</filter>
</defs>
</svg>
