<svg width="1066" height="377" viewBox="0 0 1066 377" fill="none" xmlns="http://www.w3.org/2000/svg">
<g filter="url(#filter0_d)">
<path d="M249.191 23.1045C248.884 25.7363 247.91 27.77 246.269 29.2056C244.64 30.6297 242.469 31.3418 239.758 31.3418C236.818 31.3418 234.46 30.2879 232.683 28.1802C230.917 26.0724 230.034 23.2526 230.034 19.7207V17.3281C230.034 15.0153 230.444 12.9816 231.264 11.2271C232.096 9.47249 233.269 8.12809 234.785 7.19385C236.3 6.24821 238.055 5.77539 240.048 5.77539C242.692 5.77539 244.811 6.51595 246.406 7.99707C248.001 9.4668 248.929 11.5062 249.191 14.1152H245.893C245.608 12.1328 244.987 10.6973 244.03 9.80859C243.085 8.91992 241.757 8.47559 240.048 8.47559C237.952 8.47559 236.306 9.25033 235.109 10.7998C233.924 12.3493 233.332 14.5539 233.332 17.4136V19.8232C233.332 22.5234 233.896 24.6711 235.024 26.2661C236.152 27.8612 237.73 28.6587 239.758 28.6587C241.581 28.6587 242.976 28.2485 243.945 27.4282C244.925 26.5965 245.574 25.1553 245.893 23.1045H249.191ZM261.018 19.9087C258.203 19.0998 256.153 18.1086 254.865 16.9351C253.589 15.7502 252.951 14.2918 252.951 12.5601C252.951 10.6004 253.732 8.98258 255.292 7.70654C256.865 6.41911 258.904 5.77539 261.411 5.77539C263.12 5.77539 264.641 6.10579 265.974 6.7666C267.318 7.42741 268.355 8.33887 269.084 9.50098C269.825 10.6631 270.195 11.9334 270.195 13.312H266.896C266.896 11.8081 266.418 10.6289 265.461 9.77441C264.504 8.90853 263.154 8.47559 261.411 8.47559C259.793 8.47559 258.528 8.83447 257.617 9.55225C256.717 10.2586 256.267 11.2441 256.267 12.5088C256.267 13.5228 256.694 14.383 257.548 15.0894C258.414 15.7843 259.878 16.4224 261.94 17.0034C264.014 17.5845 265.632 18.2282 266.794 18.9346C267.967 19.6296 268.833 20.4442 269.392 21.3784C269.961 22.3127 270.246 23.4121 270.246 24.6768C270.246 26.6934 269.46 28.3112 267.888 29.5303C266.315 30.738 264.213 31.3418 261.582 31.3418C259.873 31.3418 258.278 31.0171 256.796 30.3677C255.315 29.7069 254.17 28.8068 253.361 27.6675C252.564 26.5282 252.165 25.235 252.165 23.7881H255.463C255.463 25.292 256.016 26.4826 257.121 27.3599C258.238 28.2257 259.724 28.6587 261.582 28.6587C263.313 28.6587 264.641 28.3055 265.563 27.5991C266.486 26.8927 266.948 25.93 266.948 24.7109C266.948 23.4919 266.521 22.5519 265.666 21.8911C264.812 21.2189 263.262 20.5581 261.018 19.9087ZM281.799 19.9087C278.985 19.0998 276.934 18.1086 275.646 16.9351C274.37 15.7502 273.732 14.2918 273.732 12.5601C273.732 10.6004 274.513 8.98258 276.074 7.70654C277.646 6.41911 279.685 5.77539 282.192 5.77539C283.901 5.77539 285.422 6.10579 286.755 6.7666C288.099 7.42741 289.136 8.33887 289.865 9.50098C290.606 10.6631 290.976 11.9334 290.976 13.312H287.678C287.678 11.8081 287.199 10.6289 286.242 9.77441C285.285 8.90853 283.935 8.47559 282.192 8.47559C280.574 8.47559 279.309 8.83447 278.398 9.55225C277.498 10.2586 277.048 11.2441 277.048 12.5088C277.048 13.5228 277.475 14.383 278.33 15.0894C279.195 15.7843 280.66 16.4224 282.722 17.0034C284.795 17.5845 286.413 18.2282 287.575 18.9346C288.749 19.6296 289.615 20.4442 290.173 21.3784C290.743 22.3127 291.027 23.4121 291.027 24.6768C291.027 26.6934 290.241 28.3112 288.669 29.5303C287.097 30.738 284.995 31.3418 282.363 31.3418C280.654 31.3418 279.059 31.0171 277.578 30.3677C276.097 29.7069 274.951 28.8068 274.143 27.6675C273.345 26.5282 272.946 25.235 272.946 23.7881H276.245C276.245 25.292 276.797 26.4826 277.902 27.3599C279.019 28.2257 280.506 28.6587 282.363 28.6587C284.095 28.6587 285.422 28.3055 286.345 27.5991C287.268 26.8927 287.729 25.93 287.729 24.7109C287.729 23.4919 287.302 22.5519 286.447 21.8911C285.593 21.2189 284.043 20.5581 281.799 19.9087ZM314.987 7.43311C313.575 7.20524 312.435 7.09131 311.569 7.09131C309.291 7.09131 308.151 8.2876 308.151 10.6802V12.5088H312.099V14.9526H308.151V31H304.99V14.9526H302.067V12.5088H304.99V10.4922C305.001 8.52116 305.554 7.01156 306.647 5.96338C307.741 4.9152 309.296 4.39111 311.313 4.39111C312.464 4.39111 314.742 4.73861 318.149 5.43359V31H314.987V7.43311ZM331 31.3418C328.494 31.3418 326.455 30.5215 324.882 28.8809C323.31 27.2288 322.524 25.0243 322.524 22.2671V21.686C322.524 19.8517 322.871 18.2168 323.566 16.7812C324.273 15.3343 325.253 14.2064 326.506 13.3975C327.771 12.5771 329.138 12.167 330.607 12.167C333.011 12.167 334.88 12.9588 336.213 14.5425C337.546 16.1261 338.212 18.3934 338.212 21.3442V22.6602H325.686C325.731 24.4831 326.261 25.9585 327.275 27.0864C328.3 28.203 329.599 28.7612 331.171 28.7612C332.288 28.7612 333.234 28.5334 334.008 28.0776C334.783 27.6219 335.461 27.0181 336.042 26.2661L337.973 27.77C336.424 30.1512 334.099 31.3418 331 31.3418ZM330.607 14.7646C329.331 14.7646 328.26 15.2318 327.395 16.166C326.529 17.0889 325.993 18.3877 325.788 20.0625H335.051V19.8232C334.96 18.2168 334.527 16.9749 333.752 16.0977C332.977 15.209 331.929 14.7646 330.607 14.7646ZM348.09 19.2593L352.192 12.5088H355.883L349.833 21.6519L356.071 31H352.414L348.142 24.0786L343.869 31H340.195L346.433 21.6519L340.383 12.5088H344.04L348.09 19.2593ZM365.83 21.7202H357.49V19.1396H365.83V21.7202ZM384.577 21.9595C384.577 24.785 383.928 27.0579 382.629 28.7783C381.33 30.4873 379.587 31.3418 377.399 31.3418C375.064 31.3418 373.258 30.5158 371.982 28.8638L371.828 31H368.923V4.75H372.084V14.5425C373.361 12.9588 375.121 12.167 377.365 12.167C379.61 12.167 381.37 13.0158 382.646 14.7134C383.933 16.411 384.577 18.7352 384.577 21.686V21.9595ZM381.416 21.6006C381.416 19.4473 381 17.7839 380.168 16.6104C379.336 15.4368 378.14 14.8501 376.579 14.8501C374.494 14.8501 372.996 15.8185 372.084 17.7554V25.7534C373.053 27.6903 374.562 28.6587 376.613 28.6587C378.129 28.6587 379.308 28.0719 380.151 26.8984C380.994 25.7249 381.416 23.959 381.416 21.6006ZM387.739 21.5835C387.739 19.772 388.092 18.1427 388.798 16.6958C389.516 15.2489 390.507 14.1323 391.772 13.3462C393.048 12.5601 394.501 12.167 396.13 12.167C398.648 12.167 400.681 13.0386 402.231 14.7817C403.792 16.5249 404.572 18.8434 404.572 21.7373V21.9595C404.572 23.7596 404.225 25.3774 403.53 26.813C402.846 28.2371 401.861 29.348 400.573 30.1455C399.297 30.943 397.827 31.3418 396.164 31.3418C393.658 31.3418 391.624 30.4702 390.063 28.7271C388.514 26.9839 387.739 24.6768 387.739 21.8057V21.5835ZM390.917 21.9595C390.917 24.0103 391.39 25.6566 392.336 26.8984C393.293 28.1403 394.569 28.7612 396.164 28.7612C397.771 28.7612 399.047 28.1346 399.992 26.8813C400.938 25.6167 401.411 23.8507 401.411 21.5835C401.411 19.5555 400.926 17.9149 399.958 16.6616C399.001 15.397 397.725 14.7646 396.13 14.7646C394.569 14.7646 393.31 15.3856 392.353 16.6274C391.396 17.8693 390.917 19.6466 390.917 21.9595ZM414.365 19.2593L418.466 12.5088H422.158L416.108 21.6519L422.346 31H418.688L414.416 24.0786L410.144 31H406.469L412.707 21.6519L406.657 12.5088H410.314L414.365 19.2593ZM233.366 82.5088L233.452 84.5596C234.807 82.9645 236.636 82.167 238.938 82.167C241.524 82.167 243.284 83.1582 244.218 85.1406C244.833 84.252 245.631 83.5342 246.611 82.9873C247.602 82.4404 248.77 82.167 250.114 82.167C254.17 82.167 256.232 84.3146 256.301 88.6099V101H253.139V88.7979C253.139 87.4762 252.837 86.4907 252.233 85.8413C251.63 85.1805 250.616 84.8501 249.191 84.8501C248.018 84.8501 247.044 85.2033 246.269 85.9097C245.494 86.6047 245.044 87.5446 244.919 88.7295V101H241.74V88.8833C241.74 86.1945 240.424 84.8501 237.792 84.8501C235.719 84.8501 234.3 85.7331 233.537 87.499V101H230.375V82.5088H233.366ZM272.502 101C272.32 100.635 272.172 99.986 272.058 99.0518C270.588 100.578 268.833 101.342 266.794 101.342C264.971 101.342 263.473 100.829 262.299 99.8037C261.137 98.7669 260.556 97.4567 260.556 95.873C260.556 93.9476 261.285 92.4551 262.744 91.3955C264.213 90.3245 266.276 89.7891 268.93 89.7891H272.006V88.3364C272.006 87.2313 271.676 86.354 271.015 85.7046C270.354 85.0438 269.38 84.7134 268.093 84.7134C266.965 84.7134 266.019 84.9982 265.256 85.5679C264.493 86.1375 264.111 86.8268 264.111 87.6357H260.932C260.932 86.7129 261.257 85.8242 261.906 84.9697C262.567 84.1038 263.456 83.4202 264.572 82.9189C265.7 82.4176 266.936 82.167 268.281 82.167C270.411 82.167 272.08 82.7025 273.288 83.7734C274.496 84.833 275.122 86.297 275.168 88.1655V96.6763C275.168 98.3739 275.384 99.724 275.817 100.727V101H272.502ZM267.255 98.5903C268.247 98.5903 269.187 98.334 270.075 97.8213C270.964 97.3086 271.608 96.6421 272.006 95.8218V92.0278H269.528C265.655 92.0278 263.718 93.1615 263.718 95.4287C263.718 96.4199 264.048 97.1947 264.709 97.7529C265.37 98.3112 266.219 98.5903 267.255 98.5903ZM285.285 92.438L283.303 94.5059V101H280.141V74.75H283.303V90.6265L284.995 88.5928L290.754 82.5088H294.599L287.404 90.2334L295.437 101H291.728L285.285 92.438ZM305.195 101.342C302.688 101.342 300.649 100.521 299.077 98.8809C297.504 97.2288 296.718 95.0243 296.718 92.2671V91.686C296.718 89.8517 297.066 88.2168 297.761 86.7812C298.467 85.3343 299.447 84.2064 300.7 83.3975C301.965 82.5771 303.332 82.167 304.802 82.167C307.206 82.167 309.074 82.9588 310.407 84.5425C311.74 86.1261 312.407 88.3934 312.407 91.3442V92.6602H299.88C299.925 94.4831 300.455 95.9585 301.469 97.0864C302.495 98.203 303.793 98.7612 305.366 98.7612C306.482 98.7612 307.428 98.5334 308.203 98.0776C308.977 97.6219 309.655 97.0181 310.236 96.2661L312.167 97.77C310.618 100.151 308.294 101.342 305.195 101.342ZM304.802 84.7646C303.526 84.7646 302.455 85.2318 301.589 86.166C300.723 87.0889 300.188 88.3877 299.982 90.0625H309.245V89.8232C309.154 88.2168 308.721 86.9749 307.946 86.0977C307.172 85.209 306.123 84.7646 304.802 84.7646ZM336.179 101C335.996 100.635 335.848 99.986 335.734 99.0518C334.265 100.578 332.51 101.342 330.471 101.342C328.648 101.342 327.15 100.829 325.976 99.8037C324.814 98.7669 324.233 97.4567 324.233 95.873C324.233 93.9476 324.962 92.4551 326.42 91.3955C327.89 90.3245 329.952 89.7891 332.607 89.7891H335.683V88.3364C335.683 87.2313 335.353 86.354 334.692 85.7046C334.031 85.0438 333.057 84.7134 331.77 84.7134C330.642 84.7134 329.696 84.9982 328.933 85.5679C328.169 86.1375 327.788 86.8268 327.788 87.6357H324.609C324.609 86.7129 324.934 85.8242 325.583 84.9697C326.244 84.1038 327.132 83.4202 328.249 82.9189C329.377 82.4176 330.613 82.167 331.958 82.167C334.088 82.167 335.757 82.7025 336.965 83.7734C338.173 84.833 338.799 86.297 338.845 88.1655V96.6763C338.845 98.3739 339.061 99.724 339.494 100.727V101H336.179ZM330.932 98.5903C331.923 98.5903 332.863 98.334 333.752 97.8213C334.641 97.3086 335.284 96.6421 335.683 95.8218V92.0278H333.205C329.331 92.0278 327.395 93.1615 327.395 95.4287C327.395 96.4199 327.725 97.1947 328.386 97.7529C329.047 98.3112 329.895 98.5903 330.932 98.5903ZM355.456 82.5088L355.542 84.5596C356.897 82.9645 358.726 82.167 361.027 82.167C363.614 82.167 365.374 83.1582 366.308 85.1406C366.923 84.252 367.721 83.5342 368.701 82.9873C369.692 82.4404 370.86 82.167 372.204 82.167C376.26 82.167 378.322 84.3146 378.391 88.6099V101H375.229V88.7979C375.229 87.4762 374.927 86.4907 374.323 85.8413C373.719 85.1805 372.705 84.8501 371.281 84.8501C370.108 84.8501 369.134 85.2033 368.359 85.9097C367.584 86.6047 367.134 87.5446 367.009 88.7295V101H363.83V88.8833C363.83 86.1945 362.514 84.8501 359.882 84.8501C357.809 84.8501 356.39 85.7331 355.627 87.499V101H352.465V82.5088H355.456ZM394.592 99.1714C393.361 100.618 391.556 101.342 389.174 101.342C387.203 101.342 385.699 100.772 384.663 99.6328C383.637 98.4821 383.119 96.7845 383.107 94.54V82.5088H386.269V94.4546C386.269 97.2573 387.408 98.6587 389.687 98.6587C392.102 98.6587 393.709 97.7586 394.506 95.9585V82.5088H397.668V101H394.66L394.592 99.1714ZM405.922 101H402.761V74.75H405.922V101ZM415.288 78.0312V82.5088H418.74V84.9526H415.288V96.4199C415.288 97.1605 415.441 97.7188 415.749 98.0947C416.057 98.4593 416.581 98.6416 417.321 98.6416C417.686 98.6416 418.187 98.5732 418.825 98.4365V101C417.993 101.228 417.185 101.342 416.398 101.342C414.986 101.342 413.92 100.915 413.203 100.06C412.485 99.2056 412.126 97.9922 412.126 96.4199V84.9526H408.759V82.5088H412.126V78.0312H415.288ZM425.883 101H422.722V82.5088H425.883V101ZM422.465 77.604C422.465 77.0913 422.619 76.6584 422.927 76.3052C423.246 75.952 423.713 75.7754 424.328 75.7754C424.943 75.7754 425.41 75.952 425.729 76.3052C426.049 76.6584 426.208 77.0913 426.208 77.604C426.208 78.1167 426.049 78.5439 425.729 78.8857C425.41 79.2275 424.943 79.3984 424.328 79.3984C423.713 79.3984 423.246 79.2275 422.927 78.8857C422.619 78.5439 422.465 78.1167 422.465 77.604ZM446.579 91.9595C446.579 94.7736 445.935 97.0409 444.648 98.7612C443.361 100.482 441.617 101.342 439.418 101.342C437.174 101.342 435.408 100.63 434.121 99.2056V108.109H430.959V82.5088H433.847L434.001 84.5596C435.288 82.9645 437.077 82.167 439.367 82.167C441.589 82.167 443.343 83.0044 444.631 84.6792C445.93 86.354 446.579 88.6839 446.579 91.6689V91.9595ZM443.417 91.6006C443.417 89.5156 442.973 87.8693 442.084 86.6616C441.196 85.4539 439.977 84.8501 438.427 84.8501C436.513 84.8501 435.078 85.6989 434.121 87.3965V96.2319C435.066 97.9181 436.513 98.7612 438.461 98.7612C439.977 98.7612 441.179 98.1631 442.067 96.9668C442.967 95.7591 443.417 93.9704 443.417 91.6006ZM454.047 101H450.886V74.75H454.047V101ZM466.796 101.342C464.29 101.342 462.25 100.521 460.678 98.8809C459.106 97.2288 458.32 95.0243 458.32 92.2671V91.686C458.32 89.8517 458.667 88.2168 459.362 86.7812C460.069 85.3343 461.049 84.2064 462.302 83.3975C463.566 82.5771 464.934 82.167 466.403 82.167C468.807 82.167 470.676 82.9588 472.009 84.5425C473.342 86.1261 474.008 88.3934 474.008 91.3442V92.6602H461.481C461.527 94.4831 462.057 95.9585 463.071 97.0864C464.096 98.203 465.395 98.7612 466.967 98.7612C468.084 98.7612 469.029 98.5334 469.804 98.0776C470.579 97.6219 471.257 97.0181 471.838 96.2661L473.769 97.77C472.22 100.151 469.895 101.342 466.796 101.342ZM466.403 84.7646C465.127 84.7646 464.056 85.2318 463.19 86.166C462.325 87.0889 461.789 88.3877 461.584 90.0625H470.847V89.8232C470.756 88.2168 470.323 86.9749 469.548 86.0977C468.773 85.209 467.725 84.7646 466.403 84.7646ZM485.595 91.6006C485.595 88.7637 486.267 86.485 487.612 84.7646C488.956 83.0329 490.716 82.167 492.893 82.167C495.057 82.167 496.772 82.9076 498.037 84.3887V74.75H501.198V101H498.293L498.139 99.0176C496.875 100.567 495.114 101.342 492.858 101.342C490.716 101.342 488.968 100.465 487.612 98.71C486.267 96.9554 485.595 94.6654 485.595 91.8398V91.6006ZM488.757 91.9595C488.757 94.0558 489.19 95.6965 490.056 96.8813C490.922 98.0662 492.118 98.6587 493.645 98.6587C495.65 98.6587 497.114 97.7586 498.037 95.9585V87.4648C497.091 85.7217 495.638 84.8501 493.679 84.8501C492.129 84.8501 490.922 85.4482 490.056 86.6445C489.19 87.8408 488.757 89.6125 488.757 91.9595ZM509.555 101H506.394V82.5088H509.555V101ZM506.137 77.604C506.137 77.0913 506.291 76.6584 506.599 76.3052C506.918 75.952 507.385 75.7754 508 75.7754C508.615 75.7754 509.082 75.952 509.401 76.3052C509.72 76.6584 509.88 77.0913 509.88 77.604C509.88 78.1167 509.72 78.5439 509.401 78.8857C509.082 79.2275 508.615 79.3984 508 79.3984C507.385 79.3984 506.918 79.2275 506.599 78.8857C506.291 78.5439 506.137 78.1167 506.137 77.604ZM520.732 96.7104L525.312 82.5088H528.542L521.911 101H519.501L512.802 82.5088H516.032L520.732 96.7104ZM551.682 101C551.499 100.635 551.351 99.986 551.237 99.0518C549.768 100.578 548.013 101.342 545.974 101.342C544.151 101.342 542.653 100.829 541.479 99.8037C540.317 98.7669 539.736 97.4567 539.736 95.873C539.736 93.9476 540.465 92.4551 541.923 91.3955C543.393 90.3245 545.455 89.7891 548.11 89.7891H551.186V88.3364C551.186 87.2313 550.856 86.354 550.195 85.7046C549.534 85.0438 548.56 84.7134 547.272 84.7134C546.145 84.7134 545.199 84.9982 544.436 85.5679C543.672 86.1375 543.291 86.8268 543.291 87.6357H540.112C540.112 86.7129 540.437 85.8242 541.086 84.9697C541.747 84.1038 542.635 83.4202 543.752 82.9189C544.88 82.4176 546.116 82.167 547.46 82.167C549.591 82.167 551.26 82.7025 552.468 83.7734C553.675 84.833 554.302 86.297 554.348 88.1655V96.6763C554.348 98.3739 554.564 99.724 554.997 100.727V101H551.682ZM546.435 98.5903C547.426 98.5903 548.366 98.334 549.255 97.8213C550.144 97.3086 550.787 96.6421 551.186 95.8218V92.0278H548.708C544.834 92.0278 542.897 93.1615 542.897 95.4287C542.897 96.4199 543.228 97.1947 543.889 97.7529C544.549 98.3112 545.398 98.5903 546.435 98.5903ZM562.294 82.5088L562.397 84.833C563.81 83.0557 565.655 82.167 567.934 82.167C571.842 82.167 573.813 84.3716 573.847 88.7808V101H570.686V88.7637C570.674 87.4307 570.367 86.4451 569.763 85.8071C569.17 85.1691 568.242 84.8501 566.977 84.8501C565.952 84.8501 565.052 85.1235 564.277 85.6704C563.502 86.2173 562.898 86.9351 562.465 87.8237V101H559.304V82.5088H562.294ZM577.846 91.6006C577.846 88.7637 578.518 86.485 579.863 84.7646C581.207 83.0329 582.967 82.167 585.144 82.167C587.308 82.167 589.023 82.9076 590.288 84.3887V74.75H593.449V101H590.544L590.39 99.0176C589.125 100.567 587.365 101.342 585.109 101.342C582.967 101.342 581.219 100.465 579.863 98.71C578.518 96.9554 577.846 94.6654 577.846 91.8398V91.6006ZM581.008 91.9595C581.008 94.0558 581.441 95.6965 582.307 96.8813C583.173 98.0662 584.369 98.6587 585.896 98.6587C587.901 98.6587 589.365 97.7586 590.288 95.9585V87.4648C589.342 85.7217 587.889 84.8501 585.93 84.8501C584.38 84.8501 583.173 85.4482 582.307 86.6445C581.441 87.8408 581.008 89.6125 581.008 91.9595ZM618.469 101C618.286 100.635 618.138 99.986 618.024 99.0518C616.555 100.578 614.8 101.342 612.761 101.342C610.938 101.342 609.44 100.829 608.266 99.8037C607.104 98.7669 606.523 97.4567 606.523 95.873C606.523 93.9476 607.252 92.4551 608.71 91.3955C610.18 90.3245 612.242 89.7891 614.897 89.7891H617.973V88.3364C617.973 87.2313 617.643 86.354 616.982 85.7046C616.321 85.0438 615.347 84.7134 614.06 84.7134C612.932 84.7134 611.986 84.9982 611.223 85.5679C610.459 86.1375 610.078 86.8268 610.078 87.6357H606.899C606.899 86.7129 607.224 85.8242 607.873 84.9697C608.534 84.1038 609.423 83.4202 610.539 82.9189C611.667 82.4176 612.903 82.167 614.248 82.167C616.378 82.167 618.047 82.7025 619.255 83.7734C620.463 84.833 621.089 86.297 621.135 88.1655V96.6763C621.135 98.3739 621.351 99.724 621.784 100.727V101H618.469ZM613.222 98.5903C614.213 98.5903 615.153 98.334 616.042 97.8213C616.931 97.3086 617.574 96.6421 617.973 95.8218V92.0278H615.495C611.621 92.0278 609.685 93.1615 609.685 95.4287C609.685 96.4199 610.015 97.1947 610.676 97.7529C611.337 98.3112 612.185 98.5903 613.222 98.5903ZM635.029 85.3457C634.55 85.266 634.032 85.2261 633.474 85.2261C631.4 85.2261 629.993 86.109 629.252 87.875V101H626.091V82.5088H629.167L629.218 84.645C630.255 82.993 631.725 82.167 633.627 82.167C634.243 82.167 634.71 82.2467 635.029 82.4062V85.3457ZM646.889 85.3457C646.411 85.266 645.892 85.2261 645.334 85.2261C643.26 85.2261 641.853 86.109 641.113 87.875V101H637.951V82.5088H641.027L641.079 84.645C642.115 82.993 643.585 82.167 645.488 82.167C646.103 82.167 646.57 82.2467 646.889 82.4062V85.3457ZM660.544 101C660.362 100.635 660.214 99.986 660.1 99.0518C658.63 100.578 656.875 101.342 654.836 101.342C653.013 101.342 651.515 100.829 650.341 99.8037C649.179 98.7669 648.598 97.4567 648.598 95.873C648.598 93.9476 649.327 92.4551 650.786 91.3955C652.255 90.3245 654.318 89.7891 656.972 89.7891H660.048V88.3364C660.048 87.2313 659.718 86.354 659.057 85.7046C658.396 85.0438 657.422 84.7134 656.135 84.7134C655.007 84.7134 654.061 84.9982 653.298 85.5679C652.535 86.1375 652.153 86.8268 652.153 87.6357H648.974C648.974 86.7129 649.299 85.8242 649.948 84.9697C650.609 84.1038 651.498 83.4202 652.614 82.9189C653.742 82.4176 654.978 82.167 656.323 82.167C658.453 82.167 660.122 82.7025 661.33 83.7734C662.538 84.833 663.164 86.297 663.21 88.1655V96.6763C663.21 98.3739 663.426 99.724 663.859 100.727V101H660.544ZM655.297 98.5903C656.289 98.5903 657.229 98.334 658.117 97.8213C659.006 97.3086 659.65 96.6421 660.048 95.8218V92.0278H657.57C653.697 92.0278 651.76 93.1615 651.76 95.4287C651.76 96.4199 652.09 97.1947 652.751 97.7529C653.412 98.3112 654.261 98.5903 655.297 98.5903ZM671.157 82.5088L671.259 84.833C672.672 83.0557 674.518 82.167 676.796 82.167C680.704 82.167 682.675 84.3716 682.709 88.7808V101H679.548V88.7637C679.536 87.4307 679.229 86.4451 678.625 85.8071C678.033 85.1691 677.104 84.8501 675.839 84.8501C674.814 84.8501 673.914 85.1235 673.139 85.6704C672.364 86.2173 671.761 86.9351 671.328 87.8237V101H668.166V82.5088H671.157ZM686.726 91.6006C686.726 88.7181 687.392 86.4281 688.725 84.7305C690.058 83.0215 691.824 82.167 694.023 82.167C696.279 82.167 698.039 82.9645 699.304 84.5596L699.458 82.5088H702.346V100.556C702.346 102.948 701.634 104.834 700.209 106.212C698.797 107.591 696.894 108.28 694.501 108.28C693.168 108.28 691.864 107.995 690.588 107.426C689.312 106.856 688.338 106.076 687.666 105.084L689.306 103.188C690.662 104.862 692.32 105.7 694.279 105.7C695.817 105.7 697.014 105.267 697.868 104.401C698.734 103.535 699.167 102.316 699.167 100.744V99.1543C697.902 100.613 696.176 101.342 693.989 101.342C691.824 101.342 690.069 100.47 688.725 98.7271C687.392 96.9839 686.726 94.6084 686.726 91.6006ZM689.904 91.9595C689.904 94.0444 690.332 95.6851 691.186 96.8813C692.041 98.0662 693.237 98.6587 694.775 98.6587C696.769 98.6587 698.233 97.7529 699.167 95.9414V87.499C698.199 85.7331 696.746 84.8501 694.809 84.8501C693.271 84.8501 692.069 85.4482 691.203 86.6445C690.337 87.8408 689.904 89.6125 689.904 91.9595ZM714.804 101.342C712.298 101.342 710.258 100.521 708.686 98.8809C707.114 97.2288 706.328 95.0243 706.328 92.2671V91.686C706.328 89.8517 706.675 88.2168 707.37 86.7812C708.076 85.3343 709.056 84.2064 710.31 83.3975C711.574 82.5771 712.941 82.167 714.411 82.167C716.815 82.167 718.684 82.9588 720.017 84.5425C721.35 86.1261 722.016 88.3934 722.016 91.3442V92.6602H709.489C709.535 94.4831 710.065 95.9585 711.079 97.0864C712.104 98.203 713.403 98.7612 714.975 98.7612C716.092 98.7612 717.037 98.5334 717.812 98.0776C718.587 97.6219 719.265 97.0181 719.846 96.2661L721.777 97.77C720.227 100.151 717.903 101.342 714.804 101.342ZM714.411 84.7646C713.135 84.7646 712.064 85.2318 711.198 86.166C710.332 87.0889 709.797 88.3877 709.592 90.0625H718.854V89.8232C718.763 88.2168 718.33 86.9749 717.556 86.0977C716.781 85.209 715.733 84.7646 714.411 84.7646ZM241.809 136C241.626 135.635 241.478 134.986 241.364 134.052C239.895 135.578 238.14 136.342 236.101 136.342C234.278 136.342 232.779 135.829 231.606 134.804C230.444 133.767 229.863 132.457 229.863 130.873C229.863 128.948 230.592 127.455 232.05 126.396C233.52 125.325 235.582 124.789 238.237 124.789H241.313V123.336C241.313 122.231 240.983 121.354 240.322 120.705C239.661 120.044 238.687 119.713 237.399 119.713C236.271 119.713 235.326 119.998 234.562 120.568C233.799 121.138 233.417 121.827 233.417 122.636H230.239C230.239 121.713 230.563 120.824 231.213 119.97C231.874 119.104 232.762 118.42 233.879 117.919C235.007 117.418 236.243 117.167 237.587 117.167C239.718 117.167 241.387 117.702 242.595 118.773C243.802 119.833 244.429 121.297 244.475 123.166V131.676C244.475 133.374 244.691 134.724 245.124 135.727V136H241.809ZM236.562 133.59C237.553 133.59 238.493 133.334 239.382 132.821C240.271 132.309 240.914 131.642 241.313 130.822V127.028H238.835C234.961 127.028 233.024 128.161 233.024 130.429C233.024 131.42 233.355 132.195 234.016 132.753C234.676 133.311 235.525 133.59 236.562 133.59ZM260.197 131.095C260.197 130.241 259.873 129.58 259.223 129.113C258.585 128.634 257.463 128.224 255.856 127.882C254.261 127.541 252.991 127.13 252.045 126.652C251.111 126.173 250.416 125.604 249.96 124.943C249.516 124.282 249.294 123.496 249.294 122.584C249.294 121.069 249.932 119.787 251.208 118.739C252.495 117.691 254.136 117.167 256.13 117.167C258.226 117.167 259.924 117.708 261.223 118.791C262.533 119.873 263.188 121.257 263.188 122.943H260.009C260.009 122.077 259.639 121.331 258.898 120.705C258.169 120.078 257.246 119.765 256.13 119.765C254.979 119.765 254.079 120.015 253.43 120.517C252.78 121.018 252.456 121.673 252.456 122.482C252.456 123.245 252.757 123.821 253.361 124.208C253.965 124.595 255.053 124.966 256.625 125.319C258.209 125.672 259.491 126.094 260.471 126.583C261.451 127.073 262.174 127.666 262.641 128.361C263.12 129.044 263.359 129.882 263.359 130.873C263.359 132.525 262.698 133.852 261.376 134.855C260.055 135.846 258.34 136.342 256.232 136.342C254.751 136.342 253.441 136.08 252.302 135.556C251.162 135.032 250.268 134.302 249.619 133.368C248.981 132.423 248.662 131.403 248.662 130.309H251.823C251.88 131.369 252.302 132.212 253.088 132.838C253.885 133.454 254.934 133.761 256.232 133.761C257.429 133.761 258.386 133.522 259.104 133.043C259.833 132.554 260.197 131.904 260.197 131.095ZM286.926 131.095C286.926 130.241 286.601 129.58 285.952 129.113C285.314 128.634 284.191 128.224 282.585 127.882C280.99 127.541 279.72 127.13 278.774 126.652C277.84 126.173 277.145 125.604 276.689 124.943C276.245 124.282 276.022 123.496 276.022 122.584C276.022 121.069 276.66 119.787 277.937 118.739C279.224 117.691 280.865 117.167 282.858 117.167C284.955 117.167 286.652 117.708 287.951 118.791C289.261 119.873 289.917 121.257 289.917 122.943H286.738C286.738 122.077 286.368 121.331 285.627 120.705C284.898 120.078 283.975 119.765 282.858 119.765C281.708 119.765 280.808 120.015 280.158 120.517C279.509 121.018 279.184 121.673 279.184 122.482C279.184 123.245 279.486 123.821 280.09 124.208C280.694 124.595 281.782 124.966 283.354 125.319C284.938 125.672 286.219 126.094 287.199 126.583C288.179 127.073 288.903 127.666 289.37 128.361C289.848 129.044 290.087 129.882 290.087 130.873C290.087 132.525 289.427 133.852 288.105 134.855C286.783 135.846 285.069 136.342 282.961 136.342C281.48 136.342 280.17 136.08 279.03 135.556C277.891 135.032 276.997 134.302 276.347 133.368C275.709 132.423 275.39 131.403 275.39 130.309H278.552C278.609 131.369 279.03 132.212 279.816 132.838C280.614 133.454 281.662 133.761 282.961 133.761C284.157 133.761 285.114 133.522 285.832 133.043C286.561 132.554 286.926 131.904 286.926 131.095ZM297.368 119.748C298.769 118.027 300.592 117.167 302.836 117.167C306.744 117.167 308.715 119.372 308.75 123.781V136H305.588V123.764C305.576 122.431 305.269 121.445 304.665 120.807C304.073 120.169 303.144 119.85 301.879 119.85C300.854 119.85 299.954 120.124 299.179 120.67C298.404 121.217 297.801 121.935 297.368 122.824V136H294.206V109.75H297.368V119.748ZM312.646 126.583C312.646 124.772 312.999 123.143 313.706 121.696C314.423 120.249 315.415 119.132 316.679 118.346C317.955 117.56 319.408 117.167 321.037 117.167C323.555 117.167 325.589 118.039 327.138 119.782C328.699 121.525 329.479 123.843 329.479 126.737V126.959C329.479 128.76 329.132 130.377 328.437 131.813C327.753 133.237 326.768 134.348 325.48 135.146C324.204 135.943 322.735 136.342 321.071 136.342C318.565 136.342 316.531 135.47 314.97 133.727C313.421 131.984 312.646 129.677 312.646 126.806V126.583ZM315.825 126.959C315.825 129.01 316.298 130.657 317.243 131.898C318.2 133.14 319.476 133.761 321.071 133.761C322.678 133.761 323.954 133.135 324.899 131.881C325.845 130.617 326.318 128.851 326.318 126.583C326.318 124.556 325.834 122.915 324.865 121.662C323.908 120.397 322.632 119.765 321.037 119.765C319.476 119.765 318.217 120.386 317.26 121.627C316.303 122.869 315.825 124.647 315.825 126.959ZM349.816 131.642L353.371 117.509H356.533L351.149 136H348.586L344.091 121.986L339.716 136H337.153L331.787 117.509H334.931L338.571 131.352L342.878 117.509H345.424L349.816 131.642ZM362.753 117.509L362.856 119.833C364.269 118.056 366.114 117.167 368.393 117.167C372.301 117.167 374.272 119.372 374.306 123.781V136H371.145V123.764C371.133 122.431 370.826 121.445 370.222 120.807C369.629 120.169 368.701 119.85 367.436 119.85C366.411 119.85 365.511 120.124 364.736 120.67C363.961 121.217 363.357 121.935 362.924 122.824V136H359.763V117.509H362.753ZM391.191 136H388.029V117.509H391.191V136ZM387.773 112.604C387.773 112.091 387.927 111.658 388.234 111.305C388.553 110.952 389.021 110.775 389.636 110.775C390.251 110.775 390.718 110.952 391.037 111.305C391.356 111.658 391.516 112.091 391.516 112.604C391.516 113.117 391.356 113.544 391.037 113.886C390.718 114.228 390.251 114.398 389.636 114.398C389.021 114.398 388.553 114.228 388.234 113.886C387.927 113.544 387.773 113.117 387.773 112.604ZM399.257 117.509L399.36 119.833C400.773 118.056 402.618 117.167 404.897 117.167C408.805 117.167 410.776 119.372 410.81 123.781V136H407.648V123.764C407.637 122.431 407.329 121.445 406.726 120.807C406.133 120.169 405.205 119.85 403.94 119.85C402.915 119.85 402.014 120.124 401.24 120.67C400.465 121.217 399.861 121.935 399.428 122.824V136H396.267V117.509H399.257ZM425.319 136V119.953H422.397V117.509H425.319V115.937C425.319 113.874 425.906 112.268 427.08 111.117C428.264 109.966 429.934 109.391 432.087 109.391C433.363 109.391 434.975 109.739 436.923 110.434L436.394 113.1C434.969 112.53 433.614 112.245 432.326 112.245C430.97 112.245 429.991 112.553 429.387 113.168C428.794 113.772 428.498 114.683 428.498 115.902V117.509H432.275V119.953H428.498V136H425.319ZM438.496 136H435.317V117.509H438.496V136ZM442.888 126.601C442.888 123.718 443.554 121.428 444.887 119.73C446.22 118.021 447.986 117.167 450.185 117.167C452.441 117.167 454.201 117.965 455.466 119.56L455.62 117.509H458.508V135.556C458.508 137.948 457.796 139.834 456.372 141.212C454.959 142.591 453.056 143.28 450.664 143.28C449.331 143.28 448.026 142.995 446.75 142.426C445.474 141.856 444.5 141.076 443.828 140.084L445.468 138.188C446.824 139.862 448.482 140.7 450.441 140.7C451.979 140.7 453.176 140.267 454.03 139.401C454.896 138.535 455.329 137.316 455.329 135.744V134.154C454.064 135.613 452.338 136.342 450.151 136.342C447.986 136.342 446.232 135.47 444.887 133.727C443.554 131.984 442.888 129.608 442.888 126.601ZM446.066 126.959C446.066 129.044 446.494 130.685 447.348 131.881C448.203 133.066 449.399 133.659 450.937 133.659C452.931 133.659 454.395 132.753 455.329 130.941V122.499C454.361 120.733 452.908 119.85 450.971 119.85C449.433 119.85 448.231 120.448 447.365 121.645C446.499 122.841 446.066 124.612 446.066 126.959ZM230.888 206V181.117H237.912C240.077 181.117 241.991 181.596 243.654 182.553C245.318 183.51 246.599 184.871 247.5 186.637C248.411 188.403 248.872 190.431 248.884 192.721V194.311C248.884 196.658 248.428 198.714 247.517 200.48C246.617 202.246 245.323 203.602 243.637 204.547C241.962 205.493 240.008 205.977 237.775 206H230.888ZM234.169 183.817V203.317H237.622C240.151 203.317 242.116 202.531 243.518 200.958C244.93 199.386 245.637 197.147 245.637 194.242V192.79C245.637 189.964 244.97 187.771 243.637 186.21C242.316 184.638 240.436 183.84 237.998 183.817H234.169ZM252.524 196.583C252.524 194.772 252.877 193.143 253.583 191.696C254.301 190.249 255.292 189.132 256.557 188.346C257.833 187.56 259.286 187.167 260.915 187.167C263.433 187.167 265.467 188.039 267.016 189.782C268.577 191.525 269.357 193.843 269.357 196.737V196.959C269.357 198.76 269.01 200.377 268.315 201.813C267.631 203.237 266.646 204.348 265.358 205.146C264.082 205.943 262.613 206.342 260.949 206.342C258.443 206.342 256.409 205.47 254.848 203.727C253.299 201.984 252.524 199.677 252.524 196.806V196.583ZM255.703 196.959C255.703 199.01 256.175 200.657 257.121 201.898C258.078 203.14 259.354 203.761 260.949 203.761C262.556 203.761 263.832 203.135 264.777 201.881C265.723 200.617 266.196 198.851 266.196 196.583C266.196 194.556 265.712 192.915 264.743 191.662C263.786 190.397 262.51 189.765 260.915 189.765C259.354 189.765 258.095 190.386 257.138 191.627C256.181 192.869 255.703 194.647 255.703 196.959ZM284.995 187.509L285.097 189.833C286.51 188.056 288.356 187.167 290.634 187.167C294.542 187.167 296.513 189.372 296.547 193.781V206H293.386V193.764C293.374 192.431 293.067 191.445 292.463 190.807C291.87 190.169 290.942 189.85 289.677 189.85C288.652 189.85 287.752 190.124 286.977 190.67C286.202 191.217 285.598 191.935 285.166 192.824V206H282.004V187.509H284.995ZM300.478 196.583C300.478 194.772 300.831 193.143 301.538 191.696C302.255 190.249 303.247 189.132 304.511 188.346C305.787 187.56 307.24 187.167 308.869 187.167C311.387 187.167 313.421 188.039 314.97 189.782C316.531 191.525 317.312 193.843 317.312 196.737V196.959C317.312 198.76 316.964 200.377 316.269 201.813C315.585 203.237 314.6 204.348 313.312 205.146C312.036 205.943 310.567 206.342 308.903 206.342C306.397 206.342 304.363 205.47 302.802 203.727C301.253 201.984 300.478 199.677 300.478 196.806V196.583ZM303.657 196.959C303.657 199.01 304.13 200.657 305.075 201.898C306.032 203.14 307.308 203.761 308.903 203.761C310.51 203.761 311.786 203.135 312.731 201.881C313.677 200.617 314.15 198.851 314.15 196.583C314.15 194.556 313.666 192.915 312.697 191.662C311.74 190.397 310.464 189.765 308.869 189.765C307.308 189.765 306.049 190.386 305.092 191.627C304.135 192.869 303.657 194.647 303.657 196.959ZM325.566 183.031V187.509H329.018V189.953H325.566V201.42C325.566 202.16 325.72 202.719 326.027 203.095C326.335 203.459 326.859 203.642 327.6 203.642C327.964 203.642 328.465 203.573 329.104 203.437V206C328.272 206.228 327.463 206.342 326.677 206.342C325.264 206.342 324.199 205.915 323.481 205.06C322.763 204.206 322.404 202.992 322.404 201.42V189.953H319.038V187.509H322.404V183.031H325.566ZM352.824 204.171C351.594 205.618 349.788 206.342 347.407 206.342C345.436 206.342 343.932 205.772 342.895 204.633C341.87 203.482 341.351 201.785 341.34 199.54V187.509H344.501V199.455C344.501 202.257 345.641 203.659 347.919 203.659C350.335 203.659 351.941 202.759 352.739 200.958V187.509H355.9V206H352.893L352.824 204.171ZM371.486 201.095C371.486 200.241 371.162 199.58 370.512 199.113C369.874 198.634 368.752 198.224 367.146 197.882C365.55 197.541 364.28 197.13 363.334 196.652C362.4 196.173 361.705 195.604 361.25 194.943C360.805 194.282 360.583 193.496 360.583 192.584C360.583 191.069 361.221 189.787 362.497 188.739C363.785 187.691 365.425 187.167 367.419 187.167C369.515 187.167 371.213 187.708 372.512 188.791C373.822 189.873 374.477 191.257 374.477 192.943H371.298C371.298 192.077 370.928 191.331 370.188 190.705C369.458 190.078 368.535 189.765 367.419 189.765C366.268 189.765 365.368 190.015 364.719 190.517C364.069 191.018 363.745 191.673 363.745 192.482C363.745 193.245 364.047 193.821 364.65 194.208C365.254 194.595 366.342 194.966 367.915 195.319C369.498 195.672 370.78 196.094 371.76 196.583C372.74 197.073 373.463 197.666 373.93 198.361C374.409 199.044 374.648 199.882 374.648 200.873C374.648 202.525 373.987 203.852 372.666 204.855C371.344 205.846 369.629 206.342 367.521 206.342C366.04 206.342 364.73 206.08 363.591 205.556C362.451 205.032 361.557 204.302 360.908 203.368C360.27 202.423 359.951 201.403 359.951 200.309H363.112C363.169 201.369 363.591 202.212 364.377 202.838C365.174 203.454 366.223 203.761 367.521 203.761C368.718 203.761 369.675 203.522 370.393 203.043C371.122 202.554 371.486 201.904 371.486 201.095ZM386.44 206.342C383.933 206.342 381.894 205.521 380.322 203.881C378.75 202.229 377.963 200.024 377.963 197.267V196.686C377.963 194.852 378.311 193.217 379.006 191.781C379.712 190.334 380.692 189.206 381.945 188.397C383.21 187.577 384.577 187.167 386.047 187.167C388.451 187.167 390.319 187.959 391.652 189.542C392.985 191.126 393.652 193.393 393.652 196.344V197.66H381.125C381.171 199.483 381.7 200.958 382.714 202.086C383.74 203.203 385.039 203.761 386.611 203.761C387.727 203.761 388.673 203.533 389.448 203.078C390.222 202.622 390.9 202.018 391.481 201.266L393.413 202.77C391.863 205.151 389.539 206.342 386.44 206.342ZM386.047 189.765C384.771 189.765 383.7 190.232 382.834 191.166C381.968 192.089 381.433 193.388 381.228 195.062H390.49V194.823C390.399 193.217 389.966 191.975 389.191 191.098C388.417 190.209 387.368 189.765 386.047 189.765ZM408.981 187.509L409.067 189.56C410.423 187.965 412.251 187.167 414.553 187.167C417.139 187.167 418.899 188.158 419.833 190.141C420.449 189.252 421.246 188.534 422.226 187.987C423.217 187.44 424.385 187.167 425.729 187.167C429.785 187.167 431.848 189.315 431.916 193.61V206H428.754V193.798C428.754 192.476 428.452 191.491 427.849 190.841C427.245 190.181 426.231 189.85 424.807 189.85C423.633 189.85 422.659 190.203 421.884 190.91C421.11 191.605 420.66 192.545 420.534 193.729V206H417.355V193.883C417.355 191.194 416.04 189.85 413.408 189.85C411.334 189.85 409.916 190.733 409.152 192.499V206H405.991V187.509H408.981ZM448.117 206C447.935 205.635 447.787 204.986 447.673 204.052C446.203 205.578 444.449 206.342 442.409 206.342C440.586 206.342 439.088 205.829 437.915 204.804C436.752 203.767 436.171 202.457 436.171 200.873C436.171 198.948 436.901 197.455 438.359 196.396C439.829 195.325 441.891 194.789 444.545 194.789H447.622V193.336C447.622 192.231 447.291 191.354 446.63 190.705C445.97 190.044 444.995 189.713 443.708 189.713C442.58 189.713 441.634 189.998 440.871 190.568C440.108 191.138 439.726 191.827 439.726 192.636H436.547C436.547 191.713 436.872 190.824 437.521 189.97C438.182 189.104 439.071 188.42 440.188 187.919C441.315 187.418 442.552 187.167 443.896 187.167C446.027 187.167 447.696 187.702 448.903 188.773C450.111 189.833 450.738 191.297 450.783 193.166V201.676C450.783 203.374 451 204.724 451.433 205.727V206H448.117ZM442.871 203.59C443.862 203.59 444.802 203.334 445.69 202.821C446.579 202.309 447.223 201.642 447.622 200.822V197.028H445.144C441.27 197.028 439.333 198.161 439.333 200.429C439.333 201.42 439.663 202.195 440.324 202.753C440.985 203.311 441.834 203.59 442.871 203.59ZM464.677 190.346C464.199 190.266 463.68 190.226 463.122 190.226C461.049 190.226 459.641 191.109 458.901 192.875V206H455.739V187.509H458.815L458.867 189.645C459.903 187.993 461.373 187.167 463.276 187.167C463.891 187.167 464.358 187.247 464.677 187.406V190.346ZM466.506 196.601C466.506 193.718 467.172 191.428 468.505 189.73C469.838 188.021 471.604 187.167 473.803 187.167C476.059 187.167 477.819 187.965 479.084 189.56L479.238 187.509H482.126V205.556C482.126 207.948 481.414 209.834 479.99 211.212C478.577 212.591 476.674 213.28 474.282 213.28C472.949 213.28 471.644 212.995 470.368 212.426C469.092 211.856 468.118 211.076 467.446 210.084L469.086 208.188C470.442 209.862 472.1 210.7 474.06 210.7C475.598 210.7 476.794 210.267 477.648 209.401C478.514 208.535 478.947 207.316 478.947 205.744V204.154C477.683 205.613 475.957 206.342 473.769 206.342C471.604 206.342 469.85 205.47 468.505 203.727C467.172 201.984 466.506 199.608 466.506 196.601ZM469.685 196.959C469.685 199.044 470.112 200.685 470.966 201.881C471.821 203.066 473.017 203.659 474.555 203.659C476.549 203.659 478.013 202.753 478.947 200.941V192.499C477.979 190.733 476.526 189.85 474.589 189.85C473.051 189.85 471.849 190.448 470.983 191.645C470.118 192.841 469.685 194.612 469.685 196.959ZM490.346 206H487.185V187.509H490.346V206ZM486.928 182.604C486.928 182.091 487.082 181.658 487.39 181.305C487.709 180.952 488.176 180.775 488.791 180.775C489.406 180.775 489.873 180.952 490.192 181.305C490.511 181.658 490.671 182.091 490.671 182.604C490.671 183.117 490.511 183.544 490.192 183.886C489.873 184.228 489.406 184.398 488.791 184.398C488.176 184.398 487.709 184.228 487.39 183.886C487.082 183.544 486.928 183.117 486.928 182.604ZM498.413 187.509L498.515 189.833C499.928 188.056 501.774 187.167 504.052 187.167C507.96 187.167 509.931 189.372 509.965 193.781V206H506.804V193.764C506.792 192.431 506.485 191.445 505.881 190.807C505.288 190.169 504.36 189.85 503.095 189.85C502.07 189.85 501.17 190.124 500.395 190.67C499.62 191.217 499.016 191.935 498.583 192.824V206H495.422V187.509H498.413ZM523.312 210.956L521.518 209.726C522.589 208.233 523.147 206.695 523.193 205.111V202.257H526.286V204.735C526.286 205.886 526.001 207.037 525.432 208.188C524.873 209.338 524.167 210.261 523.312 210.956ZM545.905 196.959C545.905 199.774 545.262 202.041 543.974 203.761C542.687 205.482 540.944 206.342 538.745 206.342C536.5 206.342 534.734 205.63 533.447 204.206V213.109H530.285V187.509H533.173L533.327 189.56C534.615 187.965 536.403 187.167 538.693 187.167C540.915 187.167 542.67 188.004 543.957 189.679C545.256 191.354 545.905 193.684 545.905 196.669V196.959ZM542.744 196.601C542.744 194.516 542.299 192.869 541.411 191.662C540.522 190.454 539.303 189.85 537.753 189.85C535.839 189.85 534.404 190.699 533.447 192.396V201.232C534.392 202.918 535.839 203.761 537.788 203.761C539.303 203.761 540.505 203.163 541.394 201.967C542.294 200.759 542.744 198.97 542.744 196.601ZM561.354 206C561.172 205.635 561.024 204.986 560.91 204.052C559.44 205.578 557.686 206.342 555.646 206.342C553.824 206.342 552.325 205.829 551.152 204.804C549.99 203.767 549.409 202.457 549.409 200.873C549.409 198.948 550.138 197.455 551.596 196.396C553.066 195.325 555.128 194.789 557.783 194.789H560.859V193.336C560.859 192.231 560.528 191.354 559.868 190.705C559.207 190.044 558.233 189.713 556.945 189.713C555.817 189.713 554.872 189.998 554.108 190.568C553.345 191.138 552.963 191.827 552.963 192.636H549.785C549.785 191.713 550.109 190.824 550.759 189.97C551.42 189.104 552.308 188.42 553.425 187.919C554.553 187.418 555.789 187.167 557.133 187.167C559.264 187.167 560.933 187.702 562.141 188.773C563.348 189.833 563.975 191.297 564.021 193.166V201.676C564.021 203.374 564.237 204.724 564.67 205.727V206H561.354ZM556.108 203.59C557.099 203.59 558.039 203.334 558.928 202.821C559.816 202.309 560.46 201.642 560.859 200.822V197.028H558.381C554.507 197.028 552.57 198.161 552.57 200.429C552.57 201.42 552.901 202.195 553.562 202.753C554.222 203.311 555.071 203.59 556.108 203.59ZM568.208 196.601C568.208 193.764 568.88 191.485 570.224 189.765C571.569 188.033 573.329 187.167 575.505 187.167C577.67 187.167 579.384 187.908 580.649 189.389V179.75H583.811V206H580.905L580.751 204.018C579.487 205.567 577.727 206.342 575.471 206.342C573.329 206.342 571.58 205.465 570.224 203.71C568.88 201.955 568.208 199.665 568.208 196.84V196.601ZM571.369 196.959C571.369 199.056 571.802 200.696 572.668 201.881C573.534 203.066 574.73 203.659 576.257 203.659C578.262 203.659 579.726 202.759 580.649 200.958V192.465C579.703 190.722 578.251 189.85 576.291 189.85C574.742 189.85 573.534 190.448 572.668 191.645C571.802 192.841 571.369 194.612 571.369 196.959ZM587.963 196.601C587.963 193.764 588.636 191.485 589.98 189.765C591.324 188.033 593.085 187.167 595.261 187.167C597.425 187.167 599.14 187.908 600.405 189.389V179.75H603.566V206H600.661L600.507 204.018C599.243 205.567 597.482 206.342 595.227 206.342C593.085 206.342 591.336 205.465 589.98 203.71C588.636 201.955 587.963 199.665 587.963 196.84V196.601ZM591.125 196.959C591.125 199.056 591.558 200.696 592.424 201.881C593.29 203.066 594.486 203.659 596.013 203.659C598.018 203.659 599.482 202.759 600.405 200.958V192.465C599.459 190.722 598.007 189.85 596.047 189.85C594.497 189.85 593.29 190.448 592.424 191.645C591.558 192.841 591.125 194.612 591.125 196.959ZM611.923 206H608.762V187.509H611.923V206ZM608.505 182.604C608.505 182.091 608.659 181.658 608.967 181.305C609.286 180.952 609.753 180.775 610.368 180.775C610.983 180.775 611.451 180.952 611.77 181.305C612.089 181.658 612.248 182.091 612.248 182.604C612.248 183.117 612.089 183.544 611.77 183.886C611.451 184.228 610.983 184.398 610.368 184.398C609.753 184.398 609.286 184.228 608.967 183.886C608.659 183.544 608.505 183.117 608.505 182.604ZM619.99 187.509L620.092 189.833C621.505 188.056 623.351 187.167 625.629 187.167C629.537 187.167 631.508 189.372 631.542 193.781V206H628.381V193.764C628.369 192.431 628.062 191.445 627.458 190.807C626.866 190.169 625.937 189.85 624.672 189.85C623.647 189.85 622.747 190.124 621.972 190.67C621.197 191.217 620.594 191.935 620.161 192.824V206H616.999V187.509H619.99ZM635.559 196.601C635.559 193.718 636.225 191.428 637.558 189.73C638.891 188.021 640.657 187.167 642.856 187.167C645.112 187.167 646.872 187.965 648.137 189.56L648.291 187.509H651.179V205.556C651.179 207.948 650.467 209.834 649.042 211.212C647.63 212.591 645.727 213.28 643.334 213.28C642.001 213.28 640.697 212.995 639.421 212.426C638.145 211.856 637.171 211.076 636.499 210.084L638.139 208.188C639.495 209.862 641.153 210.7 643.112 210.7C644.65 210.7 645.847 210.267 646.701 209.401C647.567 208.535 648 207.316 648 205.744V204.154C646.735 205.613 645.009 206.342 642.822 206.342C640.657 206.342 638.903 205.47 637.558 203.727C636.225 201.984 635.559 199.608 635.559 196.601ZM638.737 196.959C638.737 199.044 639.165 200.685 640.019 201.881C640.874 203.066 642.07 203.659 643.608 203.659C645.602 203.659 647.066 202.753 648 200.941V192.499C647.032 190.733 645.579 189.85 643.642 189.85C642.104 189.85 640.902 190.448 640.036 191.645C639.17 192.841 638.737 194.612 638.737 196.959ZM663.808 196.583C663.808 194.772 664.161 193.143 664.868 191.696C665.585 190.249 666.577 189.132 667.841 188.346C669.117 187.56 670.57 187.167 672.199 187.167C674.717 187.167 676.751 188.039 678.3 189.782C679.861 191.525 680.642 193.843 680.642 196.737V196.959C680.642 198.76 680.294 200.377 679.599 201.813C678.916 203.237 677.93 204.348 676.643 205.146C675.367 205.943 673.897 206.342 672.233 206.342C669.727 206.342 667.693 205.47 666.132 203.727C664.583 201.984 663.808 199.677 663.808 196.806V196.583ZM666.987 196.959C666.987 199.01 667.46 200.657 668.405 201.898C669.362 203.14 670.638 203.761 672.233 203.761C673.84 203.761 675.116 203.135 676.062 201.881C677.007 200.617 677.48 198.851 677.48 196.583C677.48 194.556 676.996 192.915 676.027 191.662C675.07 190.397 673.794 189.765 672.199 189.765C670.638 189.765 669.379 190.386 668.422 191.627C667.465 192.869 666.987 194.647 666.987 196.959ZM693.544 190.346C693.066 190.266 692.548 190.226 691.989 190.226C689.916 190.226 688.509 191.109 687.768 192.875V206H684.606V187.509H687.683L687.734 189.645C688.771 187.993 690.24 187.167 692.143 187.167C692.758 187.167 693.225 187.247 693.544 187.406V190.346ZM716.564 206C716.382 205.635 716.234 204.986 716.12 204.052C714.65 205.578 712.896 206.342 710.856 206.342C709.034 206.342 707.535 205.829 706.362 204.804C705.2 203.767 704.619 202.457 704.619 200.873C704.619 198.948 705.348 197.455 706.806 196.396C708.276 195.325 710.338 194.789 712.993 194.789H716.069V193.336C716.069 192.231 715.738 191.354 715.078 190.705C714.417 190.044 713.443 189.713 712.155 189.713C711.027 189.713 710.082 189.998 709.318 190.568C708.555 191.138 708.173 191.827 708.173 192.636H704.995C704.995 191.713 705.319 190.824 705.969 189.97C706.63 189.104 707.518 188.42 708.635 187.919C709.763 187.418 710.999 187.167 712.343 187.167C714.474 187.167 716.143 187.702 717.351 188.773C718.558 189.833 719.185 191.297 719.23 193.166V201.676C719.23 203.374 719.447 204.724 719.88 205.727V206H716.564ZM711.318 203.59C712.309 203.59 713.249 203.334 714.138 202.821C715.026 202.309 715.67 201.642 716.069 200.822V197.028H713.591C709.717 197.028 707.78 198.161 707.78 200.429C707.78 201.42 708.111 202.195 708.771 202.753C709.432 203.311 710.281 203.59 711.318 203.59ZM739.841 196.959C739.841 199.785 739.191 202.058 737.893 203.778C736.594 205.487 734.851 206.342 732.663 206.342C730.327 206.342 728.522 205.516 727.246 203.864L727.092 206H724.187V179.75H727.348V189.542C728.624 187.959 730.384 187.167 732.629 187.167C734.873 187.167 736.634 188.016 737.91 189.713C739.197 191.411 739.841 193.735 739.841 196.686V196.959ZM736.679 196.601C736.679 194.447 736.263 192.784 735.432 191.61C734.6 190.437 733.404 189.85 731.843 189.85C729.758 189.85 728.26 190.819 727.348 192.755V200.753C728.317 202.69 729.826 203.659 731.877 203.659C733.392 203.659 734.571 203.072 735.415 201.898C736.258 200.725 736.679 198.959 736.679 196.601ZM754.606 201.095C754.606 200.241 754.282 199.58 753.632 199.113C752.994 198.634 751.872 198.224 750.266 197.882C748.671 197.541 747.4 197.13 746.455 196.652C745.52 196.173 744.825 195.604 744.37 194.943C743.925 194.282 743.703 193.496 743.703 192.584C743.703 191.069 744.341 189.787 745.617 188.739C746.905 187.691 748.545 187.167 750.539 187.167C752.635 187.167 754.333 187.708 755.632 188.791C756.942 189.873 757.597 191.257 757.597 192.943H754.418C754.418 192.077 754.048 191.331 753.308 190.705C752.578 190.078 751.656 189.765 750.539 189.765C749.388 189.765 748.488 190.015 747.839 190.517C747.189 191.018 746.865 191.673 746.865 192.482C746.865 193.245 747.167 193.821 747.771 194.208C748.374 194.595 749.462 194.966 751.035 195.319C752.618 195.672 753.9 196.094 754.88 196.583C755.86 197.073 756.583 197.666 757.05 198.361C757.529 199.044 757.768 199.882 757.768 200.873C757.768 202.525 757.107 203.852 755.786 204.855C754.464 205.846 752.749 206.342 750.642 206.342C749.16 206.342 747.85 206.08 746.711 205.556C745.572 205.032 744.677 204.302 744.028 203.368C743.39 202.423 743.071 201.403 743.071 200.309H746.232C746.289 201.369 746.711 202.212 747.497 202.838C748.295 203.454 749.343 203.761 750.642 203.761C751.838 203.761 752.795 203.522 753.513 203.043C754.242 202.554 754.606 201.904 754.606 201.095ZM761.049 196.583C761.049 194.772 761.403 193.143 762.109 191.696C762.827 190.249 763.818 189.132 765.083 188.346C766.359 187.56 767.811 187.167 769.44 187.167C771.958 187.167 773.992 188.039 775.542 189.782C777.102 191.525 777.883 193.843 777.883 196.737V196.959C777.883 198.76 777.535 200.377 776.84 201.813C776.157 203.237 775.171 204.348 773.884 205.146C772.608 205.943 771.138 206.342 769.475 206.342C766.968 206.342 764.934 205.47 763.374 203.727C761.824 201.984 761.049 199.677 761.049 196.806V196.583ZM764.228 196.959C764.228 199.01 764.701 200.657 765.646 201.898C766.604 203.14 767.88 203.761 769.475 203.761C771.081 203.761 772.357 203.135 773.303 201.881C774.248 200.617 774.721 198.851 774.721 196.583C774.721 194.556 774.237 192.915 773.269 191.662C772.312 190.397 771.035 189.765 769.44 189.765C767.88 189.765 766.621 190.386 765.664 191.627C764.707 192.869 764.228 194.647 764.228 196.959ZM785.283 206H782.121V179.75H785.283V206ZM801.774 204.171C800.544 205.618 798.738 206.342 796.357 206.342C794.386 206.342 792.882 205.772 791.845 204.633C790.82 203.482 790.301 201.785 790.29 199.54V187.509H793.452V199.455C793.452 202.257 794.591 203.659 796.87 203.659C799.285 203.659 800.891 202.759 801.689 200.958V187.509H804.851V206H801.843L801.774 204.171ZM813.959 183.031V187.509H817.412V189.953H813.959V201.42C813.959 202.16 814.113 202.719 814.421 203.095C814.729 203.459 815.253 203.642 815.993 203.642C816.358 203.642 816.859 203.573 817.497 203.437V206C816.665 206.228 815.856 206.342 815.07 206.342C813.658 206.342 812.592 205.915 811.875 205.06C811.157 204.206 810.798 202.992 810.798 201.42V189.953H807.431V187.509H810.798V183.031H813.959ZM828.793 206.342C826.287 206.342 824.248 205.521 822.675 203.881C821.103 202.229 820.317 200.024 820.317 197.267V196.686C820.317 194.852 820.664 193.217 821.359 191.781C822.066 190.334 823.046 189.206 824.299 188.397C825.563 187.577 826.931 187.167 828.4 187.167C830.804 187.167 832.673 187.959 834.006 189.542C835.339 191.126 836.005 193.393 836.005 196.344V197.66H823.479C823.524 199.483 824.054 200.958 825.068 202.086C826.093 203.203 827.392 203.761 828.964 203.761C830.081 203.761 831.027 203.533 831.801 203.078C832.576 202.622 833.254 202.018 833.835 201.266L835.766 202.77C834.217 205.151 831.892 206.342 828.793 206.342ZM828.4 189.765C827.124 189.765 826.053 190.232 825.188 191.166C824.322 192.089 823.786 193.388 823.581 195.062H832.844V194.823C832.753 193.217 832.32 191.975 831.545 191.098C830.77 190.209 829.722 189.765 828.4 189.765ZM863.981 196.959C863.981 199.774 863.338 202.041 862.05 203.761C860.763 205.482 859.02 206.342 856.821 206.342C854.576 206.342 852.81 205.63 851.523 204.206V213.109H848.361V187.509H851.25L851.403 189.56C852.691 187.965 854.479 187.167 856.77 187.167C858.991 187.167 860.746 188.004 862.033 189.679C863.332 191.354 863.981 193.684 863.981 196.669V196.959ZM860.82 196.601C860.82 194.516 860.375 192.869 859.487 191.662C858.598 190.454 857.379 189.85 855.83 189.85C853.916 189.85 852.48 190.699 851.523 192.396V201.232C852.469 202.918 853.916 203.761 855.864 203.761C857.379 203.761 858.581 203.163 859.47 201.967C860.37 200.759 860.82 198.97 860.82 196.601ZM876.953 190.346C876.474 190.266 875.956 190.226 875.397 190.226C873.324 190.226 871.917 191.109 871.176 192.875V206H868.015V187.509H871.091L871.142 189.645C872.179 187.993 873.649 187.167 875.551 187.167C876.167 187.167 876.634 187.247 876.953 187.406V190.346ZM878.696 196.583C878.696 194.772 879.049 193.143 879.755 191.696C880.473 190.249 881.464 189.132 882.729 188.346C884.005 187.56 885.458 187.167 887.087 187.167C889.605 187.167 891.639 188.039 893.188 189.782C894.749 191.525 895.529 193.843 895.529 196.737V196.959C895.529 198.76 895.182 200.377 894.487 201.813C893.803 203.237 892.818 204.348 891.53 205.146C890.254 205.943 888.785 206.342 887.121 206.342C884.615 206.342 882.581 205.47 881.02 203.727C879.471 201.984 878.696 199.677 878.696 196.806V196.583ZM881.875 196.959C881.875 199.01 882.347 200.657 883.293 201.898C884.25 203.14 885.526 203.761 887.121 203.761C888.728 203.761 890.004 203.135 890.949 201.881C891.895 200.617 892.368 198.851 892.368 196.583C892.368 194.556 891.883 192.915 890.915 191.662C889.958 190.397 888.682 189.765 887.087 189.765C885.526 189.765 884.267 190.386 883.31 191.627C882.353 192.869 881.875 194.647 881.875 196.959ZM915.114 196.959C915.114 199.774 914.471 202.041 913.183 203.761C911.896 205.482 910.153 206.342 907.954 206.342C905.709 206.342 903.943 205.63 902.656 204.206V213.109H899.494V187.509H902.382L902.536 189.56C903.824 187.965 905.612 187.167 907.902 187.167C910.124 187.167 911.879 188.004 913.166 189.679C914.465 191.354 915.114 193.684 915.114 196.669V196.959ZM911.953 196.601C911.953 194.516 911.508 192.869 910.62 191.662C909.731 190.454 908.512 189.85 906.962 189.85C905.048 189.85 903.613 190.699 902.656 192.396V201.232C903.601 202.918 905.048 203.761 906.997 203.761C908.512 203.761 909.714 203.163 910.603 201.967C911.503 200.759 911.953 198.97 911.953 196.601ZM926.821 206.342C924.314 206.342 922.275 205.521 920.703 203.881C919.13 202.229 918.344 200.024 918.344 197.267V196.686C918.344 194.852 918.692 193.217 919.387 191.781C920.093 190.334 921.073 189.206 922.326 188.397C923.591 187.577 924.958 187.167 926.428 187.167C928.832 187.167 930.7 187.959 932.033 189.542C933.366 191.126 934.033 193.393 934.033 196.344V197.66H921.506C921.551 199.483 922.081 200.958 923.095 202.086C924.121 203.203 925.419 203.761 926.992 203.761C928.108 203.761 929.054 203.533 929.829 203.078C930.603 202.622 931.281 202.018 931.862 201.266L933.793 202.77C932.244 205.151 929.92 206.342 926.821 206.342ZM926.428 189.765C925.152 189.765 924.081 190.232 923.215 191.166C922.349 192.089 921.813 193.388 921.608 195.062H930.871V194.823C930.78 193.217 930.347 191.975 929.572 191.098C928.798 190.209 927.749 189.765 926.428 189.765ZM946.645 190.346C946.167 190.266 945.648 190.226 945.09 190.226C943.016 190.226 941.609 191.109 940.869 192.875V206H937.707V187.509H940.783L940.834 189.645C941.871 187.993 943.341 187.167 945.244 187.167C945.859 187.167 946.326 187.247 946.645 187.406V190.346ZM954.711 183.031V187.509H958.164V189.953H954.711V201.42C954.711 202.16 954.865 202.719 955.173 203.095C955.48 203.459 956.005 203.642 956.745 203.642C957.11 203.642 957.611 203.573 958.249 203.437V206C957.417 206.228 956.608 206.342 955.822 206.342C954.41 206.342 953.344 205.915 952.626 205.06C951.909 204.206 951.55 202.992 951.55 201.42V189.953H948.183V187.509H951.55V183.031H954.711ZM967.922 201.369L972.229 187.509H975.612L968.178 208.854C967.028 211.93 965.199 213.468 962.692 213.468L962.094 213.417L960.915 213.195V210.631L961.77 210.7C962.84 210.7 963.672 210.483 964.265 210.05C964.868 209.617 965.364 208.826 965.751 207.675L966.452 205.795L959.855 187.509H963.308L967.922 201.369ZM991.42 183.031V187.509H994.873V189.953H991.42V201.42C991.42 202.16 991.574 202.719 991.882 203.095C992.189 203.459 992.714 203.642 993.454 203.642C993.819 203.642 994.32 203.573 994.958 203.437V206C994.126 206.228 993.317 206.342 992.531 206.342C991.118 206.342 990.053 205.915 989.335 205.06C988.618 204.206 988.259 202.992 988.259 201.42V189.953H984.892V187.509H988.259V183.031H991.42ZM997.402 196.583C997.402 194.772 997.755 193.143 998.461 191.696C999.179 190.249 1000.17 189.132 1001.44 188.346C1002.71 187.56 1004.16 187.167 1005.79 187.167C1008.31 187.167 1010.34 188.039 1011.89 189.782C1013.45 191.525 1014.24 193.843 1014.24 196.737V196.959C1014.24 198.76 1013.89 200.377 1013.19 201.813C1012.51 203.237 1011.52 204.348 1010.24 205.146C1008.96 205.943 1007.49 206.342 1005.83 206.342C1003.32 206.342 1001.29 205.47 999.726 203.727C998.177 201.984 997.402 199.677 997.402 196.806V196.583ZM1000.58 196.959C1000.58 199.01 1001.05 200.657 1002 201.898C1002.96 203.14 1004.23 203.761 1005.83 203.761C1007.43 203.761 1008.71 203.135 1009.66 201.881C1010.6 200.617 1011.07 198.851 1011.07 196.583C1011.07 194.556 1010.59 192.915 1009.62 191.662C1008.66 190.397 1007.39 189.765 1005.79 189.765C1004.23 189.765 1002.97 190.386 1002.02 191.627C1001.06 192.869 1000.58 194.647 1000.58 196.959ZM241.809 241C241.626 240.635 241.478 239.986 241.364 239.052C239.895 240.578 238.14 241.342 236.101 241.342C234.278 241.342 232.779 240.829 231.606 239.804C230.444 238.767 229.863 237.457 229.863 235.873C229.863 233.948 230.592 232.455 232.05 231.396C233.52 230.325 235.582 229.789 238.237 229.789H241.313V228.336C241.313 227.231 240.983 226.354 240.322 225.705C239.661 225.044 238.687 224.713 237.399 224.713C236.271 224.713 235.326 224.998 234.562 225.568C233.799 226.138 233.417 226.827 233.417 227.636H230.239C230.239 226.713 230.563 225.824 231.213 224.97C231.874 224.104 232.762 223.42 233.879 222.919C235.007 222.418 236.243 222.167 237.587 222.167C239.718 222.167 241.387 222.702 242.595 223.773C243.802 224.833 244.429 226.297 244.475 228.166V236.676C244.475 238.374 244.691 239.724 245.124 240.727V241H241.809ZM236.562 238.59C237.553 238.59 238.493 238.334 239.382 237.821C240.271 237.309 240.914 236.642 241.313 235.822V232.028H238.835C234.961 232.028 233.024 233.161 233.024 235.429C233.024 236.42 233.355 237.195 234.016 237.753C234.676 238.311 235.525 238.59 236.562 238.59ZM258.369 225.346C257.89 225.266 257.372 225.226 256.813 225.226C254.74 225.226 253.333 226.109 252.592 227.875V241H249.431V222.509H252.507L252.558 224.645C253.595 222.993 255.065 222.167 256.967 222.167C257.583 222.167 258.05 222.247 258.369 222.406V225.346ZM270.229 225.346C269.75 225.266 269.232 225.226 268.674 225.226C266.6 225.226 265.193 226.109 264.453 227.875V241H261.291V222.509H264.367L264.418 224.645C265.455 222.993 266.925 222.167 268.828 222.167C269.443 222.167 269.91 222.247 270.229 222.406V225.346ZM283.884 241C283.701 240.635 283.553 239.986 283.439 239.052C281.97 240.578 280.215 241.342 278.176 241.342C276.353 241.342 274.855 240.829 273.681 239.804C272.519 238.767 271.938 237.457 271.938 235.873C271.938 233.948 272.667 232.455 274.125 231.396C275.595 230.325 277.657 229.789 280.312 229.789H283.388V228.336C283.388 227.231 283.058 226.354 282.397 225.705C281.736 225.044 280.762 224.713 279.475 224.713C278.347 224.713 277.401 224.998 276.638 225.568C275.874 226.138 275.493 226.827 275.493 227.636H272.314C272.314 226.713 272.639 225.824 273.288 224.97C273.949 224.104 274.838 223.42 275.954 222.919C277.082 222.418 278.318 222.167 279.663 222.167C281.793 222.167 283.462 222.702 284.67 223.773C285.878 224.833 286.504 226.297 286.55 228.166V236.676C286.55 238.374 286.766 239.724 287.199 240.727V241H283.884ZM278.637 238.59C279.628 238.59 280.568 238.334 281.457 237.821C282.346 237.309 282.989 236.642 283.388 235.822V232.028H280.91C277.036 232.028 275.1 233.161 275.1 235.429C275.1 236.42 275.43 237.195 276.091 237.753C276.752 238.311 277.6 238.59 278.637 238.59ZM294.497 222.509L294.599 224.833C296.012 223.056 297.858 222.167 300.136 222.167C304.044 222.167 306.015 224.372 306.049 228.781V241H302.888V228.764C302.876 227.431 302.569 226.445 301.965 225.807C301.372 225.169 300.444 224.85 299.179 224.85C298.154 224.85 297.254 225.124 296.479 225.67C295.704 226.217 295.1 226.935 294.667 227.824V241H291.506V222.509H294.497ZM310.065 231.601C310.065 228.718 310.732 226.428 312.065 224.73C313.398 223.021 315.164 222.167 317.363 222.167C319.619 222.167 321.379 222.965 322.644 224.56L322.797 222.509H325.686V240.556C325.686 242.948 324.973 244.834 323.549 246.212C322.137 247.591 320.234 248.28 317.841 248.28C316.508 248.28 315.204 247.995 313.928 247.426C312.652 246.856 311.678 246.076 311.005 245.084L312.646 243.188C314.002 244.862 315.66 245.7 317.619 245.7C319.157 245.7 320.354 245.267 321.208 244.401C322.074 243.535 322.507 242.316 322.507 240.744V239.154C321.242 240.613 319.516 241.342 317.329 241.342C315.164 241.342 313.409 240.47 312.065 238.727C310.732 236.984 310.065 234.608 310.065 231.601ZM313.244 231.959C313.244 234.044 313.671 235.685 314.526 236.881C315.38 238.066 316.577 238.659 318.115 238.659C320.109 238.659 321.573 237.753 322.507 235.941V227.499C321.538 225.733 320.086 224.85 318.149 224.85C316.611 224.85 315.409 225.448 314.543 226.645C313.677 227.841 313.244 229.612 313.244 231.959ZM338.144 241.342C335.638 241.342 333.598 240.521 332.026 238.881C330.454 237.229 329.667 235.024 329.667 232.267V231.686C329.667 229.852 330.015 228.217 330.71 226.781C331.416 225.334 332.396 224.206 333.649 223.397C334.914 222.577 336.281 222.167 337.751 222.167C340.155 222.167 342.023 222.959 343.356 224.542C344.689 226.126 345.356 228.393 345.356 231.344V232.66H332.829C332.875 234.483 333.404 235.958 334.418 237.086C335.444 238.203 336.743 238.761 338.315 238.761C339.431 238.761 340.377 238.533 341.152 238.078C341.927 237.622 342.604 237.018 343.186 236.266L345.117 237.77C343.567 240.151 341.243 241.342 338.144 241.342ZM337.751 224.765C336.475 224.765 335.404 225.232 334.538 226.166C333.672 227.089 333.137 228.388 332.932 230.062H342.194V229.823C342.103 228.217 341.67 226.975 340.896 226.098C340.121 225.209 339.073 224.765 337.751 224.765ZM362.001 218.031V222.509H365.454V224.953H362.001V236.42C362.001 237.16 362.155 237.719 362.463 238.095C362.771 238.459 363.295 238.642 364.035 238.642C364.4 238.642 364.901 238.573 365.539 238.437V241C364.707 241.228 363.898 241.342 363.112 241.342C361.7 241.342 360.634 240.915 359.917 240.06C359.199 239.206 358.84 237.992 358.84 236.42V224.953H355.473V222.509H358.84V218.031H362.001ZM372.324 224.748C373.725 223.027 375.548 222.167 377.792 222.167C381.7 222.167 383.671 224.372 383.706 228.781V241H380.544V228.764C380.533 227.431 380.225 226.445 379.621 225.807C379.029 225.169 378.1 224.85 376.835 224.85C375.81 224.85 374.91 225.124 374.135 225.67C373.361 226.217 372.757 226.935 372.324 227.824V241H369.162V214.75H372.324V224.748ZM396.113 241.342C393.606 241.342 391.567 240.521 389.995 238.881C388.422 237.229 387.636 235.024 387.636 232.267V231.686C387.636 229.852 387.984 228.217 388.679 226.781C389.385 225.334 390.365 224.206 391.618 223.397C392.883 222.577 394.25 222.167 395.72 222.167C398.124 222.167 399.992 222.959 401.325 224.542C402.658 226.126 403.325 228.393 403.325 231.344V232.66H390.798C390.843 234.483 391.373 235.958 392.387 237.086C393.413 238.203 394.711 238.761 396.284 238.761C397.4 238.761 398.346 238.533 399.121 238.078C399.895 237.622 400.573 237.018 401.154 236.266L403.085 237.77C401.536 240.151 399.212 241.342 396.113 241.342ZM395.72 224.765C394.444 224.765 393.373 225.232 392.507 226.166C391.641 227.089 391.105 228.388 390.9 230.062H400.163V229.823C400.072 228.217 399.639 226.975 398.864 226.098C398.09 225.209 397.041 224.765 395.72 224.765ZM414.912 231.601C414.912 228.764 415.584 226.485 416.928 224.765C418.273 223.033 420.033 222.167 422.209 222.167C424.374 222.167 426.088 222.908 427.353 224.389V214.75H430.515V241H427.609L427.456 239.018C426.191 240.567 424.431 241.342 422.175 241.342C420.033 241.342 418.284 240.465 416.928 238.71C415.584 236.955 414.912 234.665 414.912 231.84V231.601ZM418.073 231.959C418.073 234.056 418.506 235.696 419.372 236.881C420.238 238.066 421.434 238.659 422.961 238.659C424.966 238.659 426.43 237.759 427.353 235.958V227.465C426.407 225.722 424.955 224.85 422.995 224.85C421.446 224.85 420.238 225.448 419.372 226.645C418.506 227.841 418.073 229.612 418.073 231.959ZM438.872 241H435.71V222.509H438.872V241ZM435.454 217.604C435.454 217.091 435.607 216.658 435.915 216.305C436.234 215.952 436.701 215.775 437.316 215.775C437.932 215.775 438.399 215.952 438.718 216.305C439.037 216.658 439.196 217.091 439.196 217.604C439.196 218.117 439.037 218.544 438.718 218.886C438.399 219.228 437.932 219.398 437.316 219.398C436.701 219.398 436.234 219.228 435.915 218.886C435.607 218.544 435.454 218.117 435.454 217.604ZM450.048 236.71L454.628 222.509H457.858L451.228 241H448.818L442.119 222.509H445.349L450.048 236.71ZM471.667 236.095C471.667 235.241 471.342 234.58 470.693 234.113C470.055 233.634 468.933 233.224 467.326 232.882C465.731 232.541 464.461 232.13 463.515 231.652C462.581 231.173 461.886 230.604 461.43 229.943C460.986 229.282 460.764 228.496 460.764 227.584C460.764 226.069 461.402 224.787 462.678 223.739C463.965 222.691 465.606 222.167 467.6 222.167C469.696 222.167 471.394 222.708 472.692 223.791C474.003 224.873 474.658 226.257 474.658 227.943H471.479C471.479 227.077 471.109 226.331 470.368 225.705C469.639 225.078 468.716 224.765 467.6 224.765C466.449 224.765 465.549 225.015 464.899 225.517C464.25 226.018 463.925 226.673 463.925 227.482C463.925 228.245 464.227 228.821 464.831 229.208C465.435 229.595 466.523 229.966 468.095 230.319C469.679 230.672 470.961 231.094 471.94 231.583C472.92 232.073 473.644 232.666 474.111 233.361C474.589 234.044 474.829 234.882 474.829 235.873C474.829 237.525 474.168 238.852 472.846 239.855C471.525 240.846 469.81 241.342 467.702 241.342C466.221 241.342 464.911 241.08 463.771 240.556C462.632 240.032 461.738 239.302 461.088 238.368C460.45 237.423 460.131 236.403 460.131 235.309H463.293C463.35 236.369 463.771 237.212 464.558 237.838C465.355 238.454 466.403 238.761 467.702 238.761C468.898 238.761 469.855 238.522 470.573 238.043C471.302 237.554 471.667 236.904 471.667 236.095ZM479.016 239.342C479.016 238.795 479.175 238.34 479.494 237.975C479.825 237.611 480.314 237.428 480.964 237.428C481.613 237.428 482.103 237.611 482.434 237.975C482.775 238.34 482.946 238.795 482.946 239.342C482.946 239.866 482.775 240.305 482.434 240.658C482.103 241.011 481.613 241.188 480.964 241.188C480.314 241.188 479.825 241.011 479.494 240.658C479.175 240.305 479.016 239.866 479.016 239.342Z" fill="#494C58"/>
</g>
<g filter="url(#filter1_d)">
<path d="M28.0806 8.81738H20.0825V31H16.8184V8.81738H8.8374V6.11719H28.0806V8.81738ZM40.7441 31C40.5618 30.6354 40.4137 29.986 40.2998 29.0518C38.8301 30.5785 37.0755 31.3418 35.0361 31.3418C33.2132 31.3418 31.715 30.8291 30.5415 29.8037C29.3794 28.7669 28.7983 27.4567 28.7983 25.873C28.7983 23.9476 29.5275 22.4551 30.9858 21.3955C32.4556 20.3245 34.5177 19.7891 37.1724 19.7891H40.2485V18.3364C40.2485 17.2313 39.9181 16.354 39.2573 15.7046C38.5965 15.0438 37.6224 14.7134 36.335 14.7134C35.207 14.7134 34.2614 14.9982 33.498 15.5679C32.7347 16.1375 32.353 16.8268 32.353 17.6357H29.1743C29.1743 16.7129 29.499 15.8242 30.1484 14.9697C30.8092 14.1038 31.6979 13.4202 32.8145 12.9189C33.9424 12.4176 35.1785 12.167 36.5229 12.167C38.6535 12.167 40.3226 12.7025 41.5303 13.7734C42.738 14.833 43.3646 16.297 43.4102 18.1655V26.6763C43.4102 28.3739 43.6266 29.724 44.0596 30.7266V31H40.7441ZM35.4976 28.5903C36.4888 28.5903 37.4287 28.334 38.3174 27.8213C39.2061 27.3086 39.8498 26.6421 40.2485 25.8218V22.0278H37.7705C33.8968 22.0278 31.96 23.1615 31.96 25.4287C31.96 26.4199 32.2904 27.1947 32.9512 27.7529C33.612 28.3112 34.4608 28.5903 35.4976 28.5903ZM57.3042 15.3457C56.8257 15.266 56.3073 15.2261 55.749 15.2261C53.6755 15.2261 52.2684 16.109 51.5278 17.875V31H48.3662V12.5088H51.4424L51.4937 14.645C52.5304 12.993 54.0002 12.167 55.9028 12.167C56.5181 12.167 56.9852 12.2467 57.3042 12.4062V15.3457ZM59.1328 21.6006C59.1328 18.7181 59.7993 16.4281 61.1323 14.7305C62.4653 13.0215 64.2313 12.167 66.4302 12.167C68.686 12.167 70.4463 12.9645 71.7109 14.5596L71.8647 12.5088H74.7529V30.5557C74.7529 32.9482 74.0409 34.8338 72.6167 36.2124C71.2039 37.591 69.3013 38.2803 66.9087 38.2803C65.5757 38.2803 64.2712 37.9954 62.9951 37.4258C61.7191 36.8561 60.745 36.0757 60.0728 35.0845L61.7134 33.1875C63.0692 34.8623 64.7269 35.6997 66.6865 35.6997C68.2246 35.6997 69.4209 35.2668 70.2754 34.4009C71.1413 33.535 71.5742 32.3159 71.5742 30.7437V29.1543C70.3096 30.6126 68.5835 31.3418 66.396 31.3418C64.2313 31.3418 62.4767 30.4702 61.1323 28.7271C59.7993 26.9839 59.1328 24.6084 59.1328 21.6006ZM62.3115 21.9595C62.3115 24.0444 62.7388 25.6851 63.5933 26.8813C64.4478 28.0662 65.644 28.6587 67.1821 28.6587C69.1759 28.6587 70.64 27.7529 71.5742 25.9414V17.499C70.6058 15.7331 69.1532 14.8501 67.2163 14.8501C65.6782 14.8501 64.4762 15.4482 63.6104 16.6445C62.7445 17.8408 62.3115 19.6125 62.3115 21.9595ZM87.2114 31.3418C84.7049 31.3418 82.6655 30.5215 81.0933 28.8809C79.521 27.2288 78.7349 25.0243 78.7349 22.2671V21.686C78.7349 19.8517 79.0824 18.2168 79.7773 16.7812C80.4837 15.3343 81.4635 14.2064 82.7168 13.3975C83.9814 12.5771 85.3486 12.167 86.8184 12.167C89.2223 12.167 91.0908 12.9588 92.4238 14.5425C93.7568 16.1261 94.4233 18.3934 94.4233 21.3442V22.6602H81.8965C81.9421 24.4831 82.4718 25.9585 83.4858 27.0864C84.5112 28.203 85.8101 28.7612 87.3823 28.7612C88.4989 28.7612 89.4445 28.5334 90.2192 28.0776C90.994 27.6219 91.6719 27.0181 92.2529 26.2661L94.1841 27.77C92.6346 30.1512 90.3104 31.3418 87.2114 31.3418ZM86.8184 14.7646C85.5423 14.7646 84.4714 15.2318 83.6055 16.166C82.7396 17.0889 82.2041 18.3877 81.999 20.0625H91.2617V19.8232C91.1706 18.2168 90.7376 16.9749 89.9629 16.0977C89.1882 15.209 88.14 14.7646 86.8184 14.7646ZM102.387 8.03125V12.5088H105.839V14.9526H102.387V26.4199C102.387 27.1605 102.541 27.7188 102.849 28.0947C103.156 28.4593 103.68 28.6416 104.421 28.6416C104.785 28.6416 105.287 28.5732 105.925 28.4365V31C105.093 31.2279 104.284 31.3418 103.498 31.3418C102.085 31.3418 101.02 30.9146 100.302 30.0601C99.5845 29.2056 99.2256 27.9922 99.2256 26.4199V14.9526H95.8589V12.5088H99.2256V8.03125H102.387ZM28.0806 78.8174H20.0825V101H16.8184V78.8174H8.8374V76.1172H28.0806V78.8174ZM40.7441 101C40.5618 100.635 40.4137 99.986 40.2998 99.0518C38.8301 100.578 37.0755 101.342 35.0361 101.342C33.2132 101.342 31.715 100.829 30.5415 99.8037C29.3794 98.7669 28.7983 97.4567 28.7983 95.873C28.7983 93.9476 29.5275 92.4551 30.9858 91.3955C32.4556 90.3245 34.5177 89.7891 37.1724 89.7891H40.2485V88.3364C40.2485 87.2313 39.9181 86.354 39.2573 85.7046C38.5965 85.0438 37.6224 84.7134 36.335 84.7134C35.207 84.7134 34.2614 84.9982 33.498 85.5679C32.7347 86.1375 32.353 86.8268 32.353 87.6357H29.1743C29.1743 86.7129 29.499 85.8242 30.1484 84.9697C30.8092 84.1038 31.6979 83.4202 32.8145 82.9189C33.9424 82.4176 35.1785 82.167 36.5229 82.167C38.6535 82.167 40.3226 82.7025 41.5303 83.7734C42.738 84.833 43.3646 86.297 43.4102 88.1655V96.6763C43.4102 98.3739 43.6266 99.724 44.0596 100.727V101H40.7441ZM35.4976 98.5903C36.4888 98.5903 37.4287 98.334 38.3174 97.8213C39.2061 97.3086 39.8498 96.6421 40.2485 95.8218V92.0278H37.7705C33.8968 92.0278 31.96 93.1615 31.96 95.4287C31.96 96.4199 32.2904 97.1947 32.9512 97.7529C33.612 98.3112 34.4608 98.5903 35.4976 98.5903ZM59.1328 96.0952C59.1328 95.2407 58.8081 94.5799 58.1587 94.1128C57.5207 93.6343 56.3984 93.2241 54.792 92.8823C53.1969 92.5405 51.9266 92.1304 50.981 91.6519C50.0467 91.1733 49.3517 90.6037 48.896 89.9429C48.4517 89.2821 48.2295 88.4959 48.2295 87.5845C48.2295 86.0692 48.8675 84.7874 50.1436 83.7393C51.431 82.6911 53.0716 82.167 55.0654 82.167C57.1618 82.167 58.8594 82.7082 60.1582 83.7905C61.4684 84.8729 62.1235 86.2572 62.1235 87.9434H58.9448C58.9448 87.0775 58.5745 86.3312 57.834 85.7046C57.1048 85.078 56.182 84.7646 55.0654 84.7646C53.9147 84.7646 53.0146 85.0153 52.3652 85.5166C51.7158 86.0179 51.3911 86.673 51.3911 87.4819C51.3911 88.2453 51.693 88.8206 52.2969 89.208C52.9007 89.5954 53.9888 89.9657 55.561 90.3188C57.1447 90.672 58.4264 91.0936 59.4062 91.5835C60.3861 92.0734 61.1095 92.6659 61.5767 93.3608C62.0552 94.0444 62.2944 94.8818 62.2944 95.873C62.2944 97.5251 61.6336 98.8524 60.312 99.855C58.9904 100.846 57.2757 101.342 55.168 101.342C53.6868 101.342 52.3766 101.08 51.2373 100.556C50.098 100.032 49.2036 99.3024 48.5542 98.3682C47.9162 97.4225 47.5972 96.4028 47.5972 95.3091H50.7588C50.8158 96.3687 51.2373 97.2118 52.0234 97.8384C52.821 98.4536 53.8691 98.7612 55.168 98.7612C56.3643 98.7612 57.3213 98.522 58.0391 98.0435C58.7682 97.5535 59.1328 96.9041 59.1328 96.0952ZM71.5742 92.438L69.5918 94.5059V101H66.4302V74.75H69.5918V90.6265L71.2837 88.5928L77.043 82.5088H80.8882L73.6934 90.2334L81.7256 101H78.0171L71.5742 92.438ZM29.1914 198.104C28.8838 200.736 27.9097 202.77 26.269 204.206C24.6398 205.63 22.4694 206.342 19.7578 206.342C16.8184 206.342 14.46 205.288 12.6826 203.18C10.9167 201.072 10.0337 198.253 10.0337 194.721V192.328C10.0337 190.015 10.4438 187.982 11.2642 186.227C12.0959 184.472 13.2694 183.128 14.7847 182.194C16.3 181.248 18.0545 180.775 20.0483 180.775C22.6916 180.775 24.8107 181.516 26.4058 182.997C28.0008 184.467 28.9294 186.506 29.1914 189.115H25.8931C25.6082 187.133 24.9873 185.697 24.0303 184.809C23.0846 183.92 21.7573 183.476 20.0483 183.476C17.952 183.476 16.3057 184.25 15.1094 185.8C13.9245 187.349 13.332 189.554 13.332 192.414V194.823C13.332 197.523 13.896 199.671 15.0239 201.266C16.1519 202.861 17.7298 203.659 19.7578 203.659C21.5807 203.659 22.9764 203.249 23.9448 202.428C24.9246 201.597 25.5741 200.155 25.8931 198.104H29.1914ZM32.353 196.583C32.353 194.772 32.7062 193.143 33.4126 191.696C34.1304 190.249 35.1216 189.132 36.3862 188.346C37.6623 187.56 39.1149 187.167 40.7441 187.167C43.262 187.167 45.2957 188.039 46.8452 189.782C48.4061 191.525 49.1865 193.843 49.1865 196.737V196.959C49.1865 198.76 48.839 200.377 48.144 201.813C47.4604 203.237 46.4749 204.348 45.1875 205.146C43.9115 205.943 42.4417 206.342 40.7783 206.342C38.2718 206.342 36.2381 205.47 34.6772 203.727C33.1278 201.984 32.353 199.677 32.353 196.806V196.583ZM35.5317 196.959C35.5317 199.01 36.0046 200.657 36.9502 201.898C37.9072 203.14 39.1833 203.761 40.7783 203.761C42.3848 203.761 43.6608 203.135 44.6064 201.881C45.5521 200.617 46.0249 198.851 46.0249 196.583C46.0249 194.556 45.5407 192.915 44.5723 191.662C43.6152 190.397 42.3392 189.765 40.7441 189.765C39.1833 189.765 37.9243 190.386 36.9673 191.627C36.0103 192.869 35.5317 194.647 35.5317 196.959ZM56.1421 187.509L56.2446 189.833C57.6574 188.056 59.5031 187.167 61.7817 187.167C65.6896 187.167 67.6606 189.372 67.6948 193.781V206H64.5332V193.764C64.5218 192.431 64.2142 191.445 63.6104 190.807C63.0179 190.169 62.0894 189.85 60.8247 189.85C59.7993 189.85 58.8993 190.124 58.1245 190.67C57.3498 191.217 56.7459 191.935 56.313 192.824V206H53.1514V187.509H56.1421ZM76.7524 183.031V187.509H80.2046V189.953H76.7524V201.42C76.7524 202.16 76.9062 202.719 77.2139 203.095C77.5215 203.459 78.0456 203.642 78.7861 203.642C79.1507 203.642 79.652 203.573 80.29 203.437V206C79.4583 206.228 78.6494 206.342 77.8633 206.342C76.4505 206.342 75.3853 205.915 74.6675 205.06C73.9497 204.206 73.5908 202.992 73.5908 201.42V189.953H70.2241V187.509H73.5908V183.031H76.7524ZM92.8511 190.346C92.3726 190.266 91.8542 190.226 91.2959 190.226C89.2223 190.226 87.8153 191.109 87.0747 192.875V206H83.9131V187.509H86.9893L87.0405 189.645C88.0773 187.993 89.547 187.167 91.4497 187.167C92.0649 187.167 92.5321 187.247 92.8511 187.406V190.346ZM106.506 206C106.324 205.635 106.175 204.986 106.062 204.052C104.592 205.578 102.837 206.342 100.798 206.342C98.9749 206.342 97.4767 205.829 96.3032 204.804C95.1411 203.767 94.5601 202.457 94.5601 200.873C94.5601 198.948 95.2892 197.455 96.7476 196.396C98.2173 195.325 100.279 194.789 102.934 194.789H106.01V193.336C106.01 192.231 105.68 191.354 105.019 190.705C104.358 190.044 103.384 189.713 102.097 189.713C100.969 189.713 100.023 189.998 99.2598 190.568C98.4964 191.138 98.1147 191.827 98.1147 192.636H94.936C94.936 191.713 95.2607 190.824 95.9102 189.97C96.571 189.104 97.4596 188.42 98.5762 187.919C99.7041 187.418 100.94 187.167 102.285 187.167C104.415 187.167 106.084 187.702 107.292 188.773C108.5 189.833 109.126 191.297 109.172 193.166V201.676C109.172 203.374 109.388 204.724 109.821 205.727V206H106.506ZM101.259 203.59C102.25 203.59 103.19 203.334 104.079 202.821C104.968 202.309 105.611 201.642 106.01 200.822V197.028H103.532C99.6585 197.028 97.7217 198.161 97.7217 200.429C97.7217 201.42 98.0521 202.195 98.7129 202.753C99.3737 203.311 100.222 203.59 101.259 203.59ZM117.563 206H114.401V187.509H117.563V206ZM114.145 182.604C114.145 182.091 114.299 181.658 114.606 181.305C114.925 180.952 115.393 180.775 116.008 180.775C116.623 180.775 117.09 180.952 117.409 181.305C117.728 181.658 117.888 182.091 117.888 182.604C117.888 183.117 117.728 183.544 117.409 183.886C117.09 184.228 116.623 184.398 116.008 184.398C115.393 184.398 114.925 184.228 114.606 183.886C114.299 183.544 114.145 183.117 114.145 182.604ZM125.629 187.509L125.732 189.833C127.145 188.056 128.99 187.167 131.269 187.167C135.177 187.167 137.148 189.372 137.182 193.781V206H134.021V193.764C134.009 192.431 133.701 191.445 133.098 190.807C132.505 190.169 131.577 189.85 130.312 189.85C129.287 189.85 128.387 190.124 127.612 190.67C126.837 191.217 126.233 191.935 125.8 192.824V206H122.639V187.509H125.629ZM146.24 183.031V187.509H149.692V189.953H146.24V201.42C146.24 202.16 146.394 202.719 146.701 203.095C147.009 203.459 147.533 203.642 148.273 203.642C148.638 203.642 149.139 203.573 149.777 203.437V206C148.946 206.228 148.137 206.342 147.351 206.342C145.938 206.342 144.873 205.915 144.155 205.06C143.437 204.206 143.078 202.992 143.078 201.42V189.953H139.711V187.509H143.078V183.031H146.24ZM164.167 201.095C164.167 200.241 163.842 199.58 163.193 199.113C162.555 198.634 161.433 198.224 159.826 197.882C158.231 197.541 156.961 197.13 156.015 196.652C155.081 196.173 154.386 195.604 153.93 194.943C153.486 194.282 153.264 193.496 153.264 192.584C153.264 191.069 153.902 189.787 155.178 188.739C156.465 187.691 158.106 187.167 160.1 187.167C162.196 187.167 163.894 187.708 165.192 188.791C166.503 189.873 167.158 191.257 167.158 192.943H163.979C163.979 192.077 163.609 191.331 162.868 190.705C162.139 190.078 161.216 189.765 160.1 189.765C158.949 189.765 158.049 190.015 157.399 190.517C156.75 191.018 156.425 191.673 156.425 192.482C156.425 193.245 156.727 193.821 157.331 194.208C157.935 194.595 159.023 194.966 160.595 195.319C162.179 195.672 163.461 196.094 164.44 196.583C165.42 197.073 166.144 197.666 166.611 198.361C167.089 199.044 167.329 199.882 167.329 200.873C167.329 202.525 166.668 203.852 165.346 204.855C164.025 205.846 162.31 206.342 160.202 206.342C158.721 206.342 157.411 206.08 156.271 205.556C155.132 205.032 154.238 204.302 153.588 203.368C152.95 202.423 152.631 201.403 152.631 200.309H155.793C155.85 201.369 156.271 202.212 157.058 202.838C157.855 203.454 158.903 203.761 160.202 203.761C161.398 203.761 162.355 203.522 163.073 203.043C163.802 202.554 164.167 201.904 164.167 201.095Z" fill="#494C58"/>
</g>
<g filter="url(#filter2_d)">
<path d="M198.29 29.3423C198.29 28.7954 198.45 28.3397 198.769 27.9751C199.099 27.6105 199.589 27.4282 200.238 27.4282C200.888 27.4282 201.378 27.6105 201.708 27.9751C202.05 28.3397 202.221 28.7954 202.221 29.3423C202.221 29.8664 202.05 30.305 201.708 30.6582C201.378 31.0114 200.888 31.188 200.238 31.188C199.589 31.188 199.099 31.0114 198.769 30.6582C198.45 30.305 198.29 29.8664 198.29 29.3423ZM198.307 14.252C198.307 13.7051 198.467 13.2493 198.786 12.8848C199.116 12.5202 199.606 12.3379 200.255 12.3379C200.905 12.3379 201.395 12.5202 201.725 12.8848C202.067 13.2493 202.238 13.7051 202.238 14.252C202.238 14.776 202.067 15.2147 201.725 15.5679C201.395 15.9211 200.905 16.0977 200.255 16.0977C199.606 16.0977 199.116 15.9211 198.786 15.5679C198.467 15.2147 198.307 14.776 198.307 14.252ZM198.29 99.3423C198.29 98.7954 198.45 98.3397 198.769 97.9751C199.099 97.6105 199.589 97.4282 200.238 97.4282C200.888 97.4282 201.378 97.6105 201.708 97.9751C202.05 98.3397 202.221 98.7954 202.221 99.3423C202.221 99.8664 202.05 100.305 201.708 100.658C201.378 101.011 200.888 101.188 200.238 101.188C199.589 101.188 199.099 101.011 198.769 100.658C198.45 100.305 198.29 99.8664 198.29 99.3423ZM198.307 84.252C198.307 83.7051 198.467 83.2493 198.786 82.8848C199.116 82.5202 199.606 82.3379 200.255 82.3379C200.905 82.3379 201.395 82.5202 201.725 82.8848C202.067 83.2493 202.238 83.7051 202.238 84.252C202.238 84.776 202.067 85.2147 201.725 85.5679C201.395 85.9211 200.905 86.0977 200.255 86.0977C199.606 86.0977 199.116 85.9211 198.786 85.5679C198.467 85.2147 198.307 84.776 198.307 84.252ZM198.29 204.342C198.29 203.795 198.45 203.34 198.769 202.975C199.099 202.611 199.589 202.428 200.238 202.428C200.888 202.428 201.378 202.611 201.708 202.975C202.05 203.34 202.221 203.795 202.221 204.342C202.221 204.866 202.05 205.305 201.708 205.658C201.378 206.011 200.888 206.188 200.238 206.188C199.589 206.188 199.099 206.011 198.769 205.658C198.45 205.305 198.29 204.866 198.29 204.342ZM198.307 189.252C198.307 188.705 198.467 188.249 198.786 187.885C199.116 187.52 199.606 187.338 200.255 187.338C200.905 187.338 201.395 187.52 201.725 187.885C202.067 188.249 202.238 188.705 202.238 189.252C202.238 189.776 202.067 190.215 201.725 190.568C201.395 190.921 200.905 191.098 200.255 191.098C199.606 191.098 199.116 190.921 198.786 190.568C198.467 190.215 198.307 189.776 198.307 189.252Z" fill="#494C58"/>
</g>
<defs>
<filter id="filter0_d" x="221.863" y="0.391113" width="800.373" height="259.889" filterUnits="userSpaceOnUse" color-interpolation-filters="sRGB">
<feFlood flood-opacity="0" result="BackgroundImageFix"/>
<feColorMatrix in="SourceAlpha" type="matrix" values="0 0 0 0 0 0 0 0 0 0 0 0 0 0 0 0 0 0 127 0"/>
<feOffset dy="4"/>
<feGaussianBlur stdDeviation="4"/>
<feColorMatrix type="matrix" values="0 0 0 0 0.114792 0 0 0 0 0.126667 0 0 0 0 0.158333 0 0 0 1 0"/>
<feBlend mode="normal" in2="BackgroundImageFix" result="effect1_dropShadow"/>
<feBlend mode="normal" in="SourceGraphic" in2="effect1_dropShadow" result="shape"/>
</filter>
<filter id="filter1_d" x="0.837402" y="2.11719" width="174.491" height="216.225" filterUnits="userSpaceOnUse" color-interpolation-filters="sRGB">
<feFlood flood-opacity="0" result="BackgroundImageFix"/>
<feColorMatrix in="SourceAlpha" type="matrix" values="0 0 0 0 0 0 0 0 0 0 0 0 0 0 0 0 0 0 127 0"/>
<feOffset dy="4"/>
<feGaussianBlur stdDeviation="4"/>
<feColorMatrix type="matrix" values="0 0 0 0 0.114792 0 0 0 0 0.126667 0 0 0 0 0.158333 0 0 0 1 0"/>
<feBlend mode="normal" in2="BackgroundImageFix" result="effect1_dropShadow"/>
<feBlend mode="normal" in="SourceGraphic" in2="effect1_dropShadow" result="shape"/>
</filter>
<filter id="filter2_d" x="190.29" y="8.33789" width="19.9478" height="209.85" filterUnits="userSpaceOnUse" color-interpolation-filters="sRGB">
<feFlood flood-opacity="0" result="BackgroundImageFix"/>
<feColorMatrix in="SourceAlpha" type="matrix" values="0 0 0 0 0 0 0 0 0 0 0 0 0 0 0 0 0 0 127 0"/>
<feOffset dy="4"/>
<feGaussianBlur stdDeviation="4"/>
<feColorMatrix type="matrix" values="0 0 0 0 0.149722 0 0 0 0 0.164571 0 0 0 0 0.204167 0 0 0 1 0"/>
<feBlend mode="normal" in2="BackgroundImageFix" result="effect1_dropShadow"/>
<feBlend mode="normal" in="SourceGraphic" in2="effect1_dropShadow" result="shape"/>
</filter>
</defs>
</svg>
