<svg width="1066" height="377" viewBox="0 0 1066 377" fill="none" xmlns="http://www.w3.org/2000/svg">
<g filter="url(#filter0_d)">
<path d="M249.191 23.1045C248.884 25.7363 247.91 27.77 246.269 29.2056C244.64 30.6297 242.469 31.3418 239.758 31.3418C236.818 31.3418 234.46 30.2879 232.683 28.1802C230.917 26.0724 230.034 23.2526 230.034 19.7207V17.3281C230.034 15.0153 230.444 12.9816 231.264 11.2271C232.096 9.47249 233.269 8.12809 234.785 7.19385C236.3 6.24821 238.055 5.77539 240.048 5.77539C242.692 5.77539 244.811 6.51595 246.406 7.99707C248.001 9.4668 248.929 11.5062 249.191 14.1152H245.893C245.608 12.1328 244.987 10.6973 244.03 9.80859C243.085 8.91992 241.757 8.47559 240.048 8.47559C237.952 8.47559 236.306 9.25033 235.109 10.7998C233.924 12.3493 233.332 14.5539 233.332 17.4136V19.8232C233.332 22.5234 233.896 24.6711 235.024 26.2661C236.152 27.8612 237.73 28.6587 239.758 28.6587C241.581 28.6587 242.976 28.2485 243.945 27.4282C244.925 26.5965 245.574 25.1553 245.893 23.1045H249.191ZM261.018 19.9087C258.203 19.0998 256.153 18.1086 254.865 16.9351C253.589 15.7502 252.951 14.2918 252.951 12.5601C252.951 10.6004 253.732 8.98258 255.292 7.70654C256.865 6.41911 258.904 5.77539 261.411 5.77539C263.12 5.77539 264.641 6.10579 265.974 6.7666C267.318 7.42741 268.355 8.33887 269.084 9.50098C269.825 10.6631 270.195 11.9334 270.195 13.312H266.896C266.896 11.8081 266.418 10.6289 265.461 9.77441C264.504 8.90853 263.154 8.47559 261.411 8.47559C259.793 8.47559 258.528 8.83447 257.617 9.55225C256.717 10.2586 256.267 11.2441 256.267 12.5088C256.267 13.5228 256.694 14.383 257.548 15.0894C258.414 15.7843 259.878 16.4224 261.94 17.0034C264.014 17.5845 265.632 18.2282 266.794 18.9346C267.967 19.6296 268.833 20.4442 269.392 21.3784C269.961 22.3127 270.246 23.4121 270.246 24.6768C270.246 26.6934 269.46 28.3112 267.888 29.5303C266.315 30.738 264.213 31.3418 261.582 31.3418C259.873 31.3418 258.278 31.0171 256.796 30.3677C255.315 29.7069 254.17 28.8068 253.361 27.6675C252.564 26.5282 252.165 25.235 252.165 23.7881H255.463C255.463 25.292 256.016 26.4826 257.121 27.3599C258.238 28.2257 259.724 28.6587 261.582 28.6587C263.313 28.6587 264.641 28.3055 265.563 27.5991C266.486 26.8927 266.948 25.93 266.948 24.7109C266.948 23.4919 266.521 22.5519 265.666 21.8911C264.812 21.2189 263.262 20.5581 261.018 19.9087ZM281.799 19.9087C278.985 19.0998 276.934 18.1086 275.646 16.9351C274.37 15.7502 273.732 14.2918 273.732 12.5601C273.732 10.6004 274.513 8.98258 276.074 7.70654C277.646 6.41911 279.685 5.77539 282.192 5.77539C283.901 5.77539 285.422 6.10579 286.755 6.7666C288.099 7.42741 289.136 8.33887 289.865 9.50098C290.606 10.6631 290.976 11.9334 290.976 13.312H287.678C287.678 11.8081 287.199 10.6289 286.242 9.77441C285.285 8.90853 283.935 8.47559 282.192 8.47559C280.574 8.47559 279.309 8.83447 278.398 9.55225C277.498 10.2586 277.048 11.2441 277.048 12.5088C277.048 13.5228 277.475 14.383 278.33 15.0894C279.195 15.7843 280.66 16.4224 282.722 17.0034C284.795 17.5845 286.413 18.2282 287.575 18.9346C288.749 19.6296 289.615 20.4442 290.173 21.3784C290.743 22.3127 291.027 23.4121 291.027 24.6768C291.027 26.6934 290.241 28.3112 288.669 29.5303C287.097 30.738 284.995 31.3418 282.363 31.3418C280.654 31.3418 279.059 31.0171 277.578 30.3677C276.097 29.7069 274.951 28.8068 274.143 27.6675C273.345 26.5282 272.946 25.235 272.946 23.7881H276.245C276.245 25.292 276.797 26.4826 277.902 27.3599C279.019 28.2257 280.506 28.6587 282.363 28.6587C284.095 28.6587 285.422 28.3055 286.345 27.5991C287.268 26.8927 287.729 25.93 287.729 24.7109C287.729 23.4919 287.302 22.5519 286.447 21.8911C285.593 21.2189 284.043 20.5581 281.799 19.9087ZM320.695 29.3423C320.695 28.7954 320.855 28.3397 321.174 27.9751C321.504 27.6105 321.994 27.4282 322.644 27.4282C323.293 27.4282 323.783 27.6105 324.113 27.9751C324.455 28.3397 324.626 28.7954 324.626 29.3423C324.626 29.8664 324.455 30.305 324.113 30.6582C323.783 31.0114 323.293 31.188 322.644 31.188C321.994 31.188 321.504 31.0114 321.174 30.6582C320.855 30.305 320.695 29.8664 320.695 29.3423ZM320.712 14.252C320.712 13.7051 320.872 13.2493 321.191 12.8848C321.521 12.5202 322.011 12.3379 322.661 12.3379C323.31 12.3379 323.8 12.5202 324.13 12.8848C324.472 13.2493 324.643 13.7051 324.643 14.252C324.643 14.776 324.472 15.2147 324.13 15.5679C323.8 15.9211 323.31 16.0977 322.661 16.0977C322.011 16.0977 321.521 15.9211 321.191 15.5679C320.872 15.2147 320.712 14.776 320.712 14.252ZM329.172 29.3423C329.172 28.7954 329.331 28.3397 329.65 27.9751C329.981 27.6105 330.471 27.4282 331.12 27.4282C331.77 27.4282 332.259 27.6105 332.59 27.9751C332.932 28.3397 333.103 28.7954 333.103 29.3423C333.103 29.8664 332.932 30.305 332.59 30.6582C332.259 31.0114 331.77 31.188 331.12 31.188C330.471 31.188 329.981 31.0114 329.65 30.6582C329.331 30.305 329.172 29.8664 329.172 29.3423ZM329.189 14.252C329.189 13.7051 329.348 13.2493 329.667 12.8848C329.998 12.5202 330.488 12.3379 331.137 12.3379C331.787 12.3379 332.277 12.5202 332.607 12.8848C332.949 13.2493 333.12 13.7051 333.12 14.252C333.12 14.776 332.949 15.2147 332.607 15.5679C332.277 15.9211 331.787 16.0977 331.137 16.0977C330.488 16.0977 329.998 15.9211 329.667 15.5679C329.348 15.2147 329.189 14.776 329.189 14.252ZM353.405 21.9595C353.405 24.785 352.756 27.0579 351.457 28.7783C350.158 30.4873 348.415 31.3418 346.228 31.3418C343.892 31.3418 342.086 30.5158 340.81 28.8638L340.656 31H337.751V4.75H340.913V14.5425C342.189 12.9588 343.949 12.167 346.193 12.167C348.438 12.167 350.198 13.0158 351.474 14.7134C352.762 16.411 353.405 18.7352 353.405 21.686V21.9595ZM350.244 21.6006C350.244 19.4473 349.828 17.7839 348.996 16.6104C348.164 15.4368 346.968 14.8501 345.407 14.8501C343.322 14.8501 341.824 15.8185 340.913 17.7554V25.7534C341.881 27.6903 343.391 28.6587 345.441 28.6587C346.957 28.6587 348.136 28.0719 348.979 26.8984C349.822 25.7249 350.244 23.959 350.244 21.6006ZM365.078 31.3418C362.571 31.3418 360.532 30.5215 358.959 28.8809C357.387 27.2288 356.601 25.0243 356.601 22.2671V21.686C356.601 19.8517 356.949 18.2168 357.644 16.7812C358.35 15.3343 359.33 14.2064 360.583 13.3975C361.848 12.5771 363.215 12.167 364.685 12.167C367.089 12.167 368.957 12.9588 370.29 14.5425C371.623 16.1261 372.29 18.3934 372.29 21.3442V22.6602H359.763C359.808 24.4831 360.338 25.9585 361.352 27.0864C362.377 28.203 363.676 28.7612 365.249 28.7612C366.365 28.7612 367.311 28.5334 368.085 28.0776C368.86 27.6219 369.538 27.0181 370.119 26.2661L372.05 27.77C370.501 30.1512 368.177 31.3418 365.078 31.3418ZM364.685 14.7646C363.409 14.7646 362.338 15.2318 361.472 16.166C360.606 17.0889 360.07 18.3877 359.865 20.0625H369.128V19.8232C369.037 18.2168 368.604 16.9749 367.829 16.0977C367.054 15.209 366.006 14.7646 364.685 14.7646ZM377.519 31V14.9526H374.597V12.5088H377.519V10.6118C377.519 8.62939 378.049 7.09701 379.108 6.01465C380.168 4.93229 381.666 4.39111 383.603 4.39111C384.332 4.39111 385.056 4.48796 385.773 4.68164L385.603 7.24512C385.067 7.14258 384.497 7.09131 383.894 7.09131C382.868 7.09131 382.076 7.39323 381.518 7.99707C380.96 8.58952 380.681 9.44401 380.681 10.5605V12.5088H384.628V14.9526H380.681V31H377.519ZM387.294 21.5835C387.294 19.772 387.648 18.1427 388.354 16.6958C389.072 15.2489 390.063 14.1323 391.328 13.3462C392.604 12.5601 394.056 12.167 395.686 12.167C398.203 12.167 400.237 13.0386 401.787 14.7817C403.347 16.5249 404.128 18.8434 404.128 21.7373V21.9595C404.128 23.7596 403.78 25.3774 403.085 26.813C402.402 28.2371 401.416 29.348 400.129 30.1455C398.853 30.943 397.383 31.3418 395.72 31.3418C393.213 31.3418 391.18 30.4702 389.619 28.7271C388.069 26.9839 387.294 24.6768 387.294 21.8057V21.5835ZM390.473 21.9595C390.473 24.0103 390.946 25.6566 391.892 26.8984C392.849 28.1403 394.125 28.7612 395.72 28.7612C397.326 28.7612 398.602 28.1346 399.548 26.8813C400.493 25.6167 400.966 23.8507 400.966 21.5835C400.966 19.5555 400.482 17.9149 399.514 16.6616C398.557 15.397 397.281 14.7646 395.686 14.7646C394.125 14.7646 392.866 15.3856 391.909 16.6274C390.952 17.8693 390.473 19.6466 390.473 21.9595ZM417.031 15.3457C416.552 15.266 416.034 15.2261 415.476 15.2261C413.402 15.2261 411.995 16.109 411.254 17.875V31H408.093V12.5088H411.169L411.22 14.645C412.257 12.993 413.727 12.167 415.629 12.167C416.245 12.167 416.712 12.2467 417.031 12.4062V15.3457ZM427.285 31.3418C424.778 31.3418 422.739 30.5215 421.167 28.8809C419.594 27.2288 418.808 25.0243 418.808 22.2671V21.686C418.808 19.8517 419.156 18.2168 419.851 16.7812C420.557 15.3343 421.537 14.2064 422.79 13.3975C424.055 12.5771 425.422 12.167 426.892 12.167C429.296 12.167 431.164 12.9588 432.497 14.5425C433.83 16.1261 434.497 18.3934 434.497 21.3442V22.6602H421.97C422.015 24.4831 422.545 25.9585 423.559 27.0864C424.584 28.203 425.883 28.7612 427.456 28.7612C428.572 28.7612 429.518 28.5334 430.292 28.0776C431.067 27.6219 431.745 27.0181 432.326 26.2661L434.257 27.77C432.708 30.1512 430.384 31.3418 427.285 31.3418ZM426.892 14.7646C425.616 14.7646 424.545 15.2318 423.679 16.166C422.813 17.0889 422.277 18.3877 422.072 20.0625H431.335V19.8232C431.244 18.2168 430.811 16.9749 430.036 16.0977C429.261 15.209 428.213 14.7646 426.892 14.7646ZM446.186 24.3179C446.186 23.1216 446.516 22.0221 447.177 21.0195C447.849 20.0169 449.125 18.8491 451.005 17.5161C449.9 16.1717 449.16 15.0894 448.784 14.269C448.408 13.4487 448.22 12.6341 448.22 11.8252C448.22 9.93392 448.778 8.4528 449.895 7.38184C451.011 6.31087 452.526 5.77539 454.44 5.77539C456.149 5.77539 457.562 6.27669 458.679 7.2793C459.795 8.27051 460.354 9.52376 460.354 11.0391C460.354 12.0417 460.097 12.9702 459.584 13.8247C459.083 14.6678 458.2 15.5565 456.936 16.4907L455.107 17.8408L460.644 24.4546C461.419 22.9735 461.806 21.3271 461.806 19.5156H464.66C464.66 22.4209 463.959 24.8306 462.558 26.7446L466.113 31H462.319L460.661 29.0347C459.818 29.7866 458.827 30.362 457.688 30.7607C456.56 31.1481 455.409 31.3418 454.235 31.3418C451.809 31.3418 449.86 30.6981 448.391 29.4106C446.921 28.1232 446.186 26.4256 446.186 24.3179ZM454.235 28.7612C455.91 28.7612 457.443 28.1232 458.833 26.8472L452.766 19.584L452.202 19.9941C450.299 21.3955 449.348 22.8368 449.348 24.3179C449.348 25.6623 449.781 26.7389 450.646 27.5479C451.524 28.3568 452.72 28.7612 454.235 28.7612ZM451.381 11.7227C451.381 12.8164 452.054 14.1836 453.398 15.8242L455.415 14.4058C456.189 13.8589 456.719 13.3405 457.004 12.8506C457.289 12.3493 457.431 11.7454 457.431 11.0391C457.431 10.2757 457.146 9.64339 456.577 9.14209C456.007 8.62939 455.289 8.37305 454.423 8.37305C453.489 8.37305 452.749 8.69206 452.202 9.33008C451.655 9.95671 451.381 10.7542 451.381 11.7227ZM477.204 29.3423C477.204 28.7954 477.364 28.3397 477.683 27.9751C478.013 27.6105 478.503 27.4282 479.152 27.4282C479.802 27.4282 480.292 27.6105 480.622 27.9751C480.964 28.3397 481.135 28.7954 481.135 29.3423C481.135 29.8664 480.964 30.305 480.622 30.6582C480.292 31.0114 479.802 31.188 479.152 31.188C478.503 31.188 478.013 31.0114 477.683 30.6582C477.364 30.305 477.204 29.8664 477.204 29.3423ZM477.221 14.252C477.221 13.7051 477.381 13.2493 477.7 12.8848C478.03 12.5202 478.52 12.3379 479.169 12.3379C479.819 12.3379 480.309 12.5202 480.639 12.8848C480.981 13.2493 481.152 13.7051 481.152 14.252C481.152 14.776 480.981 15.2147 480.639 15.5679C480.309 15.9211 479.819 16.0977 479.169 16.0977C478.52 16.0977 478.03 15.9211 477.7 15.5679C477.381 15.2147 477.221 14.776 477.221 14.252ZM485.681 29.3423C485.681 28.7954 485.84 28.3397 486.159 27.9751C486.49 27.6105 486.979 27.4282 487.629 27.4282C488.278 27.4282 488.768 27.6105 489.099 27.9751C489.44 28.3397 489.611 28.7954 489.611 29.3423C489.611 29.8664 489.44 30.305 489.099 30.6582C488.768 31.0114 488.278 31.188 487.629 31.188C486.979 31.188 486.49 31.0114 486.159 30.6582C485.84 30.305 485.681 29.8664 485.681 29.3423ZM485.698 14.252C485.698 13.7051 485.857 13.2493 486.176 12.8848C486.507 12.5202 486.997 12.3379 487.646 12.3379C488.295 12.3379 488.785 12.5202 489.116 12.8848C489.458 13.2493 489.628 13.7051 489.628 14.252C489.628 14.776 489.458 15.2147 489.116 15.5679C488.785 15.9211 488.295 16.0977 487.646 16.0977C486.997 16.0977 486.507 15.9211 486.176 15.5679C485.857 15.2147 485.698 14.776 485.698 14.252ZM505.676 31C505.493 30.6354 505.345 29.986 505.231 29.0518C503.762 30.5785 502.007 31.3418 499.968 31.3418C498.145 31.3418 496.647 30.8291 495.473 29.8037C494.311 28.7669 493.73 27.4567 493.73 25.873C493.73 23.9476 494.459 22.4551 495.917 21.3955C497.387 20.3245 499.449 19.7891 502.104 19.7891H505.18V18.3364C505.18 17.2313 504.85 16.354 504.189 15.7046C503.528 15.0438 502.554 14.7134 501.267 14.7134C500.139 14.7134 499.193 14.9982 498.43 15.5679C497.666 16.1375 497.285 16.8268 497.285 17.6357H494.106C494.106 16.7129 494.431 15.8242 495.08 14.9697C495.741 14.1038 496.63 13.4202 497.746 12.9189C498.874 12.4176 500.11 12.167 501.455 12.167C503.585 12.167 505.254 12.7025 506.462 13.7734C507.67 14.833 508.296 16.297 508.342 18.1655V26.6763C508.342 28.3739 508.558 29.724 508.991 30.7266V31H505.676ZM500.429 28.5903C501.42 28.5903 502.36 28.334 503.249 27.8213C504.138 27.3086 504.781 26.6421 505.18 25.8218V22.0278H502.702C498.828 22.0278 496.892 23.1615 496.892 25.4287C496.892 26.4199 497.222 27.1947 497.883 27.7529C498.544 28.3112 499.392 28.5903 500.429 28.5903ZM514.853 31V14.9526H511.931V12.5088H514.853V10.6118C514.853 8.62939 515.383 7.09701 516.442 6.01465C517.502 4.93229 519 4.39111 520.937 4.39111C521.666 4.39111 522.39 4.48796 523.107 4.68164L522.937 7.24512C522.401 7.14258 521.831 7.09131 521.228 7.09131C520.202 7.09131 519.41 7.39323 518.852 7.99707C518.294 8.58952 518.015 9.44401 518.015 10.5605V12.5088H521.962V14.9526H518.015V31H514.853ZM529.755 8.03125V12.5088H533.208V14.9526H529.755V26.4199C529.755 27.1605 529.909 27.7188 530.217 28.0947C530.524 28.4593 531.049 28.6416 531.789 28.6416C532.154 28.6416 532.655 28.5732 533.293 28.4365V31C532.461 31.2279 531.652 31.3418 530.866 31.3418C529.453 31.3418 528.388 30.9146 527.67 30.0601C526.953 29.2056 526.594 27.9922 526.594 26.4199V14.9526H523.227V12.5088H526.594V8.03125H529.755ZM544.589 31.3418C542.083 31.3418 540.043 30.5215 538.471 28.8809C536.899 27.2288 536.113 25.0243 536.113 22.2671V21.686C536.113 19.8517 536.46 18.2168 537.155 16.7812C537.862 15.3343 538.841 14.2064 540.095 13.3975C541.359 12.5771 542.727 12.167 544.196 12.167C546.6 12.167 548.469 12.9588 549.802 14.5425C551.135 16.1261 551.801 18.3934 551.801 21.3442V22.6602H539.274C539.32 24.4831 539.85 25.9585 540.864 27.0864C541.889 28.203 543.188 28.7612 544.76 28.7612C545.877 28.7612 546.822 28.5334 547.597 28.0776C548.372 27.6219 549.05 27.0181 549.631 26.2661L551.562 27.77C550.013 30.1512 547.688 31.3418 544.589 31.3418ZM544.196 14.7646C542.92 14.7646 541.849 15.2318 540.983 16.166C540.118 17.0889 539.582 18.3877 539.377 20.0625H548.64V19.8232C548.549 18.2168 548.116 16.9749 547.341 16.0977C546.566 15.209 545.518 14.7646 544.196 14.7646ZM564.414 15.3457C563.935 15.266 563.417 15.2261 562.858 15.2261C560.785 15.2261 559.378 16.109 558.637 17.875V31H555.476V12.5088H558.552L558.603 14.645C559.64 12.993 561.11 12.167 563.012 12.167C563.627 12.167 564.095 12.2467 564.414 12.4062V15.3457ZM249.191 93.1045C248.884 95.7363 247.91 97.77 246.269 99.2056C244.64 100.63 242.469 101.342 239.758 101.342C236.818 101.342 234.46 100.288 232.683 98.1802C230.917 96.0724 230.034 93.2526 230.034 89.7207V87.3281C230.034 85.0153 230.444 82.9816 231.264 81.2271C232.096 79.4725 233.269 78.1281 234.785 77.1938C236.3 76.2482 238.055 75.7754 240.048 75.7754C242.692 75.7754 244.811 76.516 246.406 77.9971C248.001 79.4668 248.929 81.5062 249.191 84.1152H245.893C245.608 82.1328 244.987 80.6973 244.03 79.8086C243.085 78.9199 241.757 78.4756 240.048 78.4756C237.952 78.4756 236.306 79.2503 235.109 80.7998C233.924 82.3493 233.332 84.5539 233.332 87.4136V89.8232C233.332 92.5234 233.896 94.6711 235.024 96.2661C236.152 97.8612 237.73 98.6587 239.758 98.6587C241.581 98.6587 242.976 98.2485 243.945 97.4282C244.925 96.5965 245.574 95.1553 245.893 93.1045H249.191ZM262.128 85.3457C261.65 85.266 261.132 85.2261 260.573 85.2261C258.5 85.2261 257.093 86.109 256.352 87.875V101H253.19V82.5088H256.267L256.318 84.645C257.355 82.993 258.824 82.167 260.727 82.167C261.342 82.167 261.809 82.2467 262.128 82.4062V85.3457ZM272.382 101.342C269.876 101.342 267.836 100.521 266.264 98.8809C264.692 97.2288 263.906 95.0243 263.906 92.2671V91.686C263.906 89.8517 264.253 88.2168 264.948 86.7812C265.655 85.3343 266.634 84.2064 267.888 83.3975C269.152 82.5771 270.52 82.167 271.989 82.167C274.393 82.167 276.262 82.9588 277.595 84.5425C278.928 86.1261 279.594 88.3934 279.594 91.3442V92.6602H267.067C267.113 94.4831 267.643 95.9585 268.657 97.0864C269.682 98.203 270.981 98.7612 272.553 98.7612C273.67 98.7612 274.615 98.5334 275.39 98.0776C276.165 97.6219 276.843 97.0181 277.424 96.2661L279.355 97.77C277.806 100.151 275.481 101.342 272.382 101.342ZM271.989 84.7646C270.713 84.7646 269.642 85.2318 268.776 86.166C267.91 87.0889 267.375 88.3877 267.17 90.0625H276.433V89.8232C276.341 88.2168 275.909 86.9749 275.134 86.0977C274.359 85.209 273.311 84.7646 271.989 84.7646ZM294.685 101C294.502 100.635 294.354 99.986 294.24 99.0518C292.771 100.578 291.016 101.342 288.977 101.342C287.154 101.342 285.655 100.829 284.482 99.8037C283.32 98.7669 282.739 97.4567 282.739 95.873C282.739 93.9476 283.468 92.4551 284.926 91.3955C286.396 90.3245 288.458 89.7891 291.113 89.7891H294.189V88.3364C294.189 87.2313 293.859 86.354 293.198 85.7046C292.537 85.0438 291.563 84.7134 290.275 84.7134C289.147 84.7134 288.202 84.9982 287.438 85.5679C286.675 86.1375 286.293 86.8268 286.293 87.6357H283.115C283.115 86.7129 283.439 85.8242 284.089 84.9697C284.75 84.1038 285.638 83.4202 286.755 82.9189C287.883 82.4176 289.119 82.167 290.463 82.167C292.594 82.167 294.263 82.7025 295.471 83.7734C296.678 84.833 297.305 86.297 297.351 88.1655V96.6763C297.351 98.3739 297.567 99.724 298 100.727V101H294.685ZM289.438 98.5903C290.429 98.5903 291.369 98.334 292.258 97.8213C293.146 97.3086 293.79 96.6421 294.189 95.8218V92.0278H291.711C287.837 92.0278 285.9 93.1615 285.9 95.4287C285.9 96.4199 286.231 97.1947 286.892 97.7529C287.552 98.3112 288.401 98.5903 289.438 98.5903ZM306.596 78.0312V82.5088H310.048V84.9526H306.596V96.4199C306.596 97.1605 306.75 97.7188 307.058 98.0947C307.365 98.4593 307.889 98.6416 308.63 98.6416C308.994 98.6416 309.496 98.5732 310.134 98.4365V101C309.302 101.228 308.493 101.342 307.707 101.342C306.294 101.342 305.229 100.915 304.511 100.06C303.793 99.2056 303.435 97.9922 303.435 96.4199V84.9526H300.068V82.5088H303.435V78.0312H306.596ZM321.43 101.342C318.924 101.342 316.884 100.521 315.312 98.8809C313.74 97.2288 312.954 95.0243 312.954 92.2671V91.686C312.954 89.8517 313.301 88.2168 313.996 86.7812C314.702 85.3343 315.682 84.2064 316.936 83.3975C318.2 82.5771 319.567 82.167 321.037 82.167C323.441 82.167 325.31 82.9588 326.643 84.5425C327.976 86.1261 328.642 88.3934 328.642 91.3442V92.6602H316.115C316.161 94.4831 316.691 95.9585 317.705 97.0864C318.73 98.203 320.029 98.7612 321.601 98.7612C322.718 98.7612 323.663 98.5334 324.438 98.0776C325.213 97.6219 325.891 97.0181 326.472 96.2661L328.403 97.77C326.853 100.151 324.529 101.342 321.43 101.342ZM321.037 84.7646C319.761 84.7646 318.69 85.2318 317.824 86.166C316.958 87.0889 316.423 88.3877 316.218 90.0625H325.48V89.8232C325.389 88.2168 324.956 86.9749 324.182 86.0977C323.407 85.209 322.359 84.7646 321.037 84.7646ZM352.414 101C352.232 100.635 352.084 99.986 351.97 99.0518C350.5 100.578 348.745 101.342 346.706 101.342C344.883 101.342 343.385 100.829 342.211 99.8037C341.049 98.7669 340.468 97.4567 340.468 95.873C340.468 93.9476 341.197 92.4551 342.656 91.3955C344.125 90.3245 346.188 89.7891 348.842 89.7891H351.918V88.3364C351.918 87.2313 351.588 86.354 350.927 85.7046C350.266 85.0438 349.292 84.7134 348.005 84.7134C346.877 84.7134 345.931 84.9982 345.168 85.5679C344.405 86.1375 344.023 86.8268 344.023 87.6357H340.844C340.844 86.7129 341.169 85.8242 341.818 84.9697C342.479 84.1038 343.368 83.4202 344.484 82.9189C345.612 82.4176 346.848 82.167 348.193 82.167C350.323 82.167 351.993 82.7025 353.2 83.7734C354.408 84.833 355.035 86.297 355.08 88.1655V96.6763C355.08 98.3739 355.297 99.724 355.729 100.727V101H352.414ZM347.167 98.5903C348.159 98.5903 349.099 98.334 349.987 97.8213C350.876 97.3086 351.52 96.6421 351.918 95.8218V92.0278H349.44C345.567 92.0278 343.63 93.1615 343.63 95.4287C343.63 96.4199 343.96 97.1947 344.621 97.7529C345.282 98.3112 346.131 98.5903 347.167 98.5903ZM371.708 82.5088L371.811 84.833C373.224 83.0557 375.069 82.167 377.348 82.167C381.256 82.167 383.227 84.3716 383.261 88.7808V101H380.1V88.7637C380.088 87.4307 379.781 86.4451 379.177 85.8071C378.584 85.1691 377.656 84.8501 376.391 84.8501C375.366 84.8501 374.466 85.1235 373.691 85.6704C372.916 86.2173 372.312 86.9351 371.879 87.8237V101H368.718V82.5088H371.708ZM399.445 101C399.263 100.635 399.115 99.986 399.001 99.0518C397.531 100.578 395.777 101.342 393.737 101.342C391.914 101.342 390.416 100.829 389.243 99.8037C388.081 98.7669 387.5 97.4567 387.5 95.873C387.5 93.9476 388.229 92.4551 389.687 91.3955C391.157 90.3245 393.219 89.7891 395.874 89.7891H398.95V88.3364C398.95 87.2313 398.619 86.354 397.958 85.7046C397.298 85.0438 396.324 84.7134 395.036 84.7134C393.908 84.7134 392.963 84.9982 392.199 85.5679C391.436 86.1375 391.054 86.8268 391.054 87.6357H387.875C387.875 86.7129 388.2 85.8242 388.85 84.9697C389.51 84.1038 390.399 83.4202 391.516 82.9189C392.644 82.4176 393.88 82.167 395.224 82.167C397.355 82.167 399.024 82.7025 400.231 83.7734C401.439 84.833 402.066 86.297 402.111 88.1655V96.6763C402.111 98.3739 402.328 99.724 402.761 100.727V101H399.445ZM394.199 98.5903C395.19 98.5903 396.13 98.334 397.019 97.8213C397.907 97.3086 398.551 96.6421 398.95 95.8218V92.0278H396.472C392.598 92.0278 390.661 93.1615 390.661 95.4287C390.661 96.4199 390.992 97.1947 391.652 97.7529C392.313 98.3112 393.162 98.5903 394.199 98.5903ZM412.895 96.7104L417.475 82.5088H420.705L414.074 101H411.665L404.965 82.5088H408.195L412.895 96.7104ZM439.401 91.9595C439.401 94.785 438.752 97.0579 437.453 98.7783C436.154 100.487 434.411 101.342 432.224 101.342C429.888 101.342 428.082 100.516 426.806 98.8638L426.652 101H423.747V74.75H426.909V84.5425C428.185 82.9588 429.945 82.167 432.189 82.167C434.434 82.167 436.194 83.0158 437.47 84.7134C438.758 86.411 439.401 88.7352 439.401 91.686V91.9595ZM436.24 91.6006C436.24 89.4473 435.824 87.7839 434.992 86.6104C434.16 85.4368 432.964 84.8501 431.403 84.8501C429.318 84.8501 427.82 85.8185 426.909 87.7554V95.7534C427.877 97.6903 429.387 98.6587 431.438 98.6587C432.953 98.6587 434.132 98.0719 434.975 96.8984C435.818 95.7249 436.24 93.959 436.24 91.6006ZM454.816 101C454.634 100.635 454.486 99.986 454.372 99.0518C452.902 100.578 451.148 101.342 449.108 101.342C447.285 101.342 445.787 100.829 444.614 99.8037C443.452 98.7669 442.871 97.4567 442.871 95.873C442.871 93.9476 443.6 92.4551 445.058 91.3955C446.528 90.3245 448.59 89.7891 451.245 89.7891H454.321V88.3364C454.321 87.2313 453.99 86.354 453.33 85.7046C452.669 85.0438 451.695 84.7134 450.407 84.7134C449.279 84.7134 448.334 84.9982 447.57 85.5679C446.807 86.1375 446.425 86.8268 446.425 87.6357H443.247C443.247 86.7129 443.571 85.8242 444.221 84.9697C444.882 84.1038 445.77 83.4202 446.887 82.9189C448.015 82.4176 449.251 82.167 450.595 82.167C452.726 82.167 454.395 82.7025 455.603 83.7734C456.81 84.833 457.437 86.297 457.482 88.1655V96.6763C457.482 98.3739 457.699 99.724 458.132 100.727V101H454.816ZM449.57 98.5903C450.561 98.5903 451.501 98.334 452.39 97.8213C453.278 97.3086 453.922 96.6421 454.321 95.8218V92.0278H451.843C447.969 92.0278 446.032 93.1615 446.032 95.4287C446.032 96.4199 446.363 97.1947 447.023 97.7529C447.684 98.3112 448.533 98.5903 449.57 98.5903ZM471.376 85.3457C470.898 85.266 470.38 85.2261 469.821 85.2261C467.748 85.2261 466.341 86.109 465.6 87.875V101H462.438V82.5088H465.515L465.566 84.645C466.603 82.993 468.072 82.167 469.975 82.167C470.59 82.167 471.057 82.2467 471.376 82.4062V85.3457ZM486.416 101H483.254V82.5088H486.416V101ZM482.998 77.604C482.998 77.0913 483.151 76.6584 483.459 76.3052C483.778 75.952 484.245 75.7754 484.86 75.7754C485.476 75.7754 485.943 75.952 486.262 76.3052C486.581 76.6584 486.74 77.0913 486.74 77.604C486.74 78.1167 486.581 78.5439 486.262 78.8857C485.943 79.2275 485.476 79.3984 484.86 79.3984C484.245 79.3984 483.778 79.2275 483.459 78.8857C483.151 78.5439 482.998 78.1167 482.998 77.604ZM498.908 98.7612C500.036 98.7612 501.022 98.4194 501.865 97.7358C502.708 97.0522 503.175 96.1978 503.266 95.1724H506.257C506.2 96.2319 505.835 97.2402 505.163 98.1973C504.491 99.1543 503.591 99.9176 502.463 100.487C501.346 101.057 500.161 101.342 498.908 101.342C496.39 101.342 494.385 100.504 492.893 98.8296C491.411 97.1434 490.671 94.842 490.671 91.9253V91.3955C490.671 89.5954 491.001 87.9946 491.662 86.5933C492.323 85.1919 493.269 84.1038 494.499 83.3291C495.741 82.5544 497.205 82.167 498.891 82.167C500.965 82.167 502.685 82.7879 504.052 84.0298C505.431 85.2716 506.166 86.8838 506.257 88.8662H503.266C503.175 87.6699 502.719 86.6901 501.899 85.9268C501.09 85.152 500.087 84.7646 498.891 84.7646C497.285 84.7646 496.037 85.3457 495.148 86.5078C494.271 87.6585 493.833 89.3276 493.833 91.5151V92.1133C493.833 94.2438 494.271 95.8844 495.148 97.0352C496.026 98.1859 497.279 98.7612 498.908 98.7612ZM508.974 91.5835C508.974 89.772 509.327 88.1427 510.034 86.6958C510.751 85.2489 511.743 84.1323 513.007 83.3462C514.283 82.5601 515.736 82.167 517.365 82.167C519.883 82.167 521.917 83.0386 523.466 84.7817C525.027 86.5249 525.808 88.8434 525.808 91.7373V91.9595C525.808 93.7596 525.46 95.3774 524.765 96.813C524.082 98.2371 523.096 99.348 521.809 100.146C520.533 100.943 519.063 101.342 517.399 101.342C514.893 101.342 512.859 100.47 511.298 98.7271C509.749 96.9839 508.974 94.6768 508.974 91.8057V91.5835ZM512.153 91.9595C512.153 94.0103 512.626 95.6566 513.571 96.8984C514.528 98.1403 515.804 98.7612 517.399 98.7612C519.006 98.7612 520.282 98.1346 521.228 96.8813C522.173 95.6167 522.646 93.8507 522.646 91.5835C522.646 89.5555 522.162 87.9149 521.193 86.6616C520.236 85.397 518.96 84.7646 517.365 84.7646C515.804 84.7646 514.545 85.3856 513.588 86.6274C512.631 87.8693 512.153 89.6466 512.153 91.9595ZM532.763 82.5088L532.866 84.833C534.278 83.0557 536.124 82.167 538.403 82.167C542.311 82.167 544.282 84.3716 544.316 88.7808V101H541.154V88.7637C541.143 87.4307 540.835 86.4451 540.231 85.8071C539.639 85.1691 538.71 84.8501 537.446 84.8501C536.42 84.8501 535.52 85.1235 534.746 85.6704C533.971 86.2173 533.367 86.9351 532.934 87.8237V101H529.772V82.5088H532.763ZM241.159 131.095C241.159 130.241 240.834 129.58 240.185 129.113C239.547 128.634 238.425 128.224 236.818 127.882C235.223 127.541 233.953 127.13 233.007 126.652C232.073 126.173 231.378 125.604 230.922 124.943C230.478 124.282 230.256 123.496 230.256 122.584C230.256 121.069 230.894 119.787 232.17 118.739C233.457 117.691 235.098 117.167 237.092 117.167C239.188 117.167 240.886 117.708 242.185 118.791C243.495 119.873 244.15 121.257 244.15 122.943H240.971C240.971 122.077 240.601 121.331 239.86 120.705C239.131 120.078 238.208 119.765 237.092 119.765C235.941 119.765 235.041 120.015 234.392 120.517C233.742 121.018 233.417 121.673 233.417 122.482C233.417 123.245 233.719 123.821 234.323 124.208C234.927 124.595 236.015 124.966 237.587 125.319C239.171 125.672 240.453 126.094 241.433 126.583C242.412 127.073 243.136 127.666 243.603 128.361C244.082 129.044 244.321 129.882 244.321 130.873C244.321 132.525 243.66 133.852 242.338 134.855C241.017 135.846 239.302 136.342 237.194 136.342C235.713 136.342 234.403 136.08 233.264 135.556C232.124 135.032 231.23 134.302 230.581 133.368C229.943 132.423 229.624 131.403 229.624 130.309H232.785C232.842 131.369 233.264 132.212 234.05 132.838C234.847 133.454 235.896 133.761 237.194 133.761C238.391 133.761 239.348 133.522 240.065 133.043C240.795 132.554 241.159 131.904 241.159 131.095ZM251.601 119.748C253.002 118.027 254.825 117.167 257.07 117.167C260.978 117.167 262.949 119.372 262.983 123.781V136H259.821V123.764C259.81 122.431 259.502 121.445 258.898 120.807C258.306 120.169 257.377 119.85 256.113 119.85C255.087 119.85 254.187 120.124 253.413 120.67C252.638 121.217 252.034 121.935 251.601 122.824V136H248.439V109.75H251.601V119.748ZM266.879 126.583C266.879 124.772 267.233 123.143 267.939 121.696C268.657 120.249 269.648 119.132 270.913 118.346C272.189 117.56 273.641 117.167 275.271 117.167C277.788 117.167 279.822 118.039 281.372 119.782C282.932 121.525 283.713 123.843 283.713 126.737V126.959C283.713 128.76 283.365 130.377 282.67 131.813C281.987 133.237 281.001 134.348 279.714 135.146C278.438 135.943 276.968 136.342 275.305 136.342C272.798 136.342 270.764 135.47 269.204 133.727C267.654 131.984 266.879 129.677 266.879 126.806V126.583ZM270.058 126.959C270.058 129.01 270.531 130.657 271.477 131.898C272.434 133.14 273.71 133.761 275.305 133.761C276.911 133.761 278.187 133.135 279.133 131.881C280.078 130.617 280.551 128.851 280.551 126.583C280.551 124.556 280.067 122.915 279.099 121.662C278.142 120.397 276.866 119.765 275.271 119.765C273.71 119.765 272.451 120.386 271.494 121.627C270.537 122.869 270.058 124.647 270.058 126.959ZM304.05 131.642L307.604 117.509H310.766L305.383 136H302.819L298.325 121.986L293.95 136H291.386L286.02 117.509H289.165L292.805 131.352L297.111 117.509H299.658L304.05 131.642ZM316.987 117.509L317.089 119.833C318.502 118.056 320.348 117.167 322.626 117.167C326.534 117.167 328.505 119.372 328.54 123.781V136H325.378V123.764C325.367 122.431 325.059 121.445 324.455 120.807C323.863 120.169 322.934 119.85 321.669 119.85C320.644 119.85 319.744 120.124 318.969 120.67C318.194 121.217 317.591 121.935 317.158 122.824V136H313.996V117.509H316.987ZM345.424 136H342.263V117.509H345.424V136ZM342.006 112.604C342.006 112.091 342.16 111.658 342.468 111.305C342.787 110.952 343.254 110.775 343.869 110.775C344.484 110.775 344.951 110.952 345.271 111.305C345.59 111.658 345.749 112.091 345.749 112.604C345.749 113.117 345.59 113.544 345.271 113.886C344.951 114.228 344.484 114.398 343.869 114.398C343.254 114.398 342.787 114.228 342.468 113.886C342.16 113.544 342.006 113.117 342.006 112.604ZM353.491 117.509L353.593 119.833C355.006 118.056 356.852 117.167 359.13 117.167C363.038 117.167 365.009 119.372 365.043 123.781V136H361.882V123.764C361.87 122.431 361.563 121.445 360.959 120.807C360.367 120.169 359.438 119.85 358.173 119.85C357.148 119.85 356.248 120.124 355.473 120.67C354.698 121.217 354.095 121.935 353.662 122.824V136H350.5V117.509H353.491ZM379.553 136V119.953H376.63V117.509H379.553V115.937C379.553 113.874 380.139 112.268 381.313 111.117C382.498 109.966 384.167 109.391 386.32 109.391C387.596 109.391 389.208 109.739 391.157 110.434L390.627 113.1C389.203 112.53 387.847 112.245 386.56 112.245C385.204 112.245 384.224 112.553 383.62 113.168C383.028 113.772 382.731 114.683 382.731 115.902V117.509H386.508V119.953H382.731V136H379.553ZM392.729 136H389.55V117.509H392.729V136ZM397.121 126.601C397.121 123.718 397.788 121.428 399.121 119.73C400.454 118.021 402.22 117.167 404.418 117.167C406.674 117.167 408.435 117.965 409.699 119.56L409.853 117.509H412.741V135.556C412.741 137.948 412.029 139.834 410.605 141.212C409.192 142.591 407.29 143.28 404.897 143.28C403.564 143.28 402.259 142.995 400.983 142.426C399.707 141.856 398.733 141.076 398.061 140.084L399.702 138.188C401.057 139.862 402.715 140.7 404.675 140.7C406.213 140.7 407.409 140.267 408.264 139.401C409.13 138.535 409.562 137.316 409.562 135.744V134.154C408.298 135.613 406.572 136.342 404.384 136.342C402.22 136.342 400.465 135.47 399.121 133.727C397.788 131.984 397.121 129.608 397.121 126.601ZM400.3 126.959C400.3 129.044 400.727 130.685 401.582 131.881C402.436 133.066 403.632 133.659 405.17 133.659C407.164 133.659 408.628 132.753 409.562 130.941V122.499C408.594 120.733 407.141 119.85 405.205 119.85C403.667 119.85 402.465 120.448 401.599 121.645C400.733 122.841 400.3 124.612 400.3 126.959ZM248.405 181.117V198.036C248.394 200.383 247.653 202.303 246.184 203.795C244.725 205.288 242.743 206.125 240.236 206.308L239.365 206.342C236.642 206.342 234.471 205.607 232.854 204.137C231.236 202.667 230.415 200.645 230.393 198.07V181.117H233.64V197.968C233.64 199.768 234.135 201.169 235.126 202.172C236.118 203.163 237.53 203.659 239.365 203.659C241.222 203.659 242.64 203.163 243.62 202.172C244.611 201.181 245.107 199.785 245.107 197.985V181.117H248.405ZM263.854 201.095C263.854 200.241 263.53 199.58 262.88 199.113C262.242 198.634 261.12 198.224 259.514 197.882C257.919 197.541 256.648 197.13 255.703 196.652C254.768 196.173 254.073 195.604 253.618 194.943C253.173 194.282 252.951 193.496 252.951 192.584C252.951 191.069 253.589 189.787 254.865 188.739C256.153 187.691 257.793 187.167 259.787 187.167C261.883 187.167 263.581 187.708 264.88 188.791C266.19 189.873 266.845 191.257 266.845 192.943H263.667C263.667 192.077 263.296 191.331 262.556 190.705C261.826 190.078 260.904 189.765 259.787 189.765C258.636 189.765 257.736 190.015 257.087 190.517C256.438 191.018 256.113 191.673 256.113 192.482C256.113 193.245 256.415 193.821 257.019 194.208C257.622 194.595 258.71 194.966 260.283 195.319C261.866 195.672 263.148 196.094 264.128 196.583C265.108 197.073 265.831 197.666 266.298 198.361C266.777 199.044 267.016 199.882 267.016 200.873C267.016 202.525 266.355 203.852 265.034 204.855C263.712 205.846 261.997 206.342 259.89 206.342C258.409 206.342 257.098 206.08 255.959 205.556C254.82 205.032 253.925 204.302 253.276 203.368C252.638 202.423 252.319 201.403 252.319 200.309H255.48C255.537 201.369 255.959 202.212 256.745 202.838C257.543 203.454 258.591 203.761 259.89 203.761C261.086 203.761 262.043 203.522 262.761 203.043C263.49 202.554 263.854 201.904 263.854 201.095ZM278.808 206.342C276.302 206.342 274.262 205.521 272.69 203.881C271.118 202.229 270.332 200.024 270.332 197.267V196.686C270.332 194.852 270.679 193.217 271.374 191.781C272.08 190.334 273.06 189.206 274.313 188.397C275.578 187.577 276.945 187.167 278.415 187.167C280.819 187.167 282.688 187.959 284.021 189.542C285.354 191.126 286.02 193.393 286.02 196.344V197.66H273.493C273.539 199.483 274.069 200.958 275.083 202.086C276.108 203.203 277.407 203.761 278.979 203.761C280.096 203.761 281.041 203.533 281.816 203.078C282.591 202.622 283.269 202.018 283.85 201.266L285.781 202.77C284.231 205.151 281.907 206.342 278.808 206.342ZM278.415 189.765C277.139 189.765 276.068 190.232 275.202 191.166C274.336 192.089 273.801 193.388 273.596 195.062H282.858V194.823C282.767 193.217 282.334 191.975 281.56 191.098C280.785 190.209 279.737 189.765 278.415 189.765ZM297.539 196.583C297.539 194.772 297.892 193.143 298.598 191.696C299.316 190.249 300.307 189.132 301.572 188.346C302.848 187.56 304.3 187.167 305.93 187.167C308.448 187.167 310.481 188.039 312.031 189.782C313.592 191.525 314.372 193.843 314.372 196.737V196.959C314.372 198.76 314.025 200.377 313.33 201.813C312.646 203.237 311.66 204.348 310.373 205.146C309.097 205.943 307.627 206.342 305.964 206.342C303.457 206.342 301.424 205.47 299.863 203.727C298.313 201.984 297.539 199.677 297.539 196.806V196.583ZM300.717 196.959C300.717 199.01 301.19 200.657 302.136 201.898C303.093 203.14 304.369 203.761 305.964 203.761C307.57 203.761 308.846 203.135 309.792 201.881C310.738 200.617 311.21 198.851 311.21 196.583C311.21 194.556 310.726 192.915 309.758 191.662C308.801 190.397 307.525 189.765 305.93 189.765C304.369 189.765 303.11 190.386 302.153 191.627C301.196 192.869 300.717 194.647 300.717 196.959ZM321.328 187.509L321.43 189.833C322.843 188.056 324.689 187.167 326.967 187.167C330.875 187.167 332.846 189.372 332.88 193.781V206H329.719V193.764C329.707 192.431 329.4 191.445 328.796 190.807C328.203 190.169 327.275 189.85 326.01 189.85C324.985 189.85 324.085 190.124 323.31 190.67C322.535 191.217 321.931 191.935 321.499 192.824V206H318.337V187.509H321.328ZM341.083 206H337.922V179.75H341.083V206ZM352.209 201.369L356.516 187.509H359.899L352.465 208.854C351.315 211.93 349.486 213.468 346.979 213.468L346.381 213.417L345.202 213.195V210.631L346.057 210.7C347.128 210.7 347.959 210.483 348.552 210.05C349.156 209.617 349.651 208.826 350.039 207.675L350.739 205.795L344.143 187.509H347.595L352.209 201.369ZM382.834 206C382.652 205.635 382.504 204.986 382.39 204.052C380.92 205.578 379.165 206.342 377.126 206.342C375.303 206.342 373.805 205.829 372.631 204.804C371.469 203.767 370.888 202.457 370.888 200.873C370.888 198.948 371.617 197.455 373.076 196.396C374.545 195.325 376.608 194.789 379.262 194.789H382.338V193.336C382.338 192.231 382.008 191.354 381.347 190.705C380.686 190.044 379.712 189.713 378.425 189.713C377.297 189.713 376.351 189.998 375.588 190.568C374.825 191.138 374.443 191.827 374.443 192.636H371.264C371.264 191.713 371.589 190.824 372.238 189.97C372.899 189.104 373.788 188.42 374.904 187.919C376.032 187.418 377.268 187.167 378.613 187.167C380.743 187.167 382.412 187.702 383.62 188.773C384.828 189.833 385.454 191.297 385.5 193.166V201.676C385.5 203.374 385.716 204.724 386.149 205.727V206H382.834ZM377.587 203.59C378.579 203.59 379.519 203.334 380.407 202.821C381.296 202.309 381.94 201.642 382.338 200.822V197.028H379.86C375.987 197.028 374.05 198.161 374.05 200.429C374.05 201.42 374.38 202.195 375.041 202.753C375.702 203.311 376.551 203.59 377.587 203.59ZM409.904 201.095C409.904 200.241 409.58 199.58 408.93 199.113C408.292 198.634 407.17 198.224 405.563 197.882C403.968 197.541 402.698 197.13 401.752 196.652C400.818 196.173 400.123 195.604 399.667 194.943C399.223 194.282 399.001 193.496 399.001 192.584C399.001 191.069 399.639 189.787 400.915 188.739C402.202 187.691 403.843 187.167 405.837 187.167C407.933 187.167 409.631 187.708 410.93 188.791C412.24 189.873 412.895 191.257 412.895 192.943H409.716C409.716 192.077 409.346 191.331 408.605 190.705C407.876 190.078 406.953 189.765 405.837 189.765C404.686 189.765 403.786 190.015 403.137 190.517C402.487 191.018 402.163 191.673 402.163 192.482C402.163 193.245 402.465 193.821 403.068 194.208C403.672 194.595 404.76 194.966 406.333 195.319C407.916 195.672 409.198 196.094 410.178 196.583C411.158 197.073 411.881 197.666 412.348 198.361C412.827 199.044 413.066 199.882 413.066 200.873C413.066 202.525 412.405 203.852 411.083 204.855C409.762 205.846 408.047 206.342 405.939 206.342C404.458 206.342 403.148 206.08 402.009 205.556C400.869 205.032 399.975 204.302 399.326 203.368C398.688 202.423 398.369 201.403 398.369 200.309H401.53C401.587 201.369 402.009 202.212 402.795 202.838C403.592 203.454 404.641 203.761 405.939 203.761C407.136 203.761 408.093 203.522 408.811 203.043C409.54 202.554 409.904 201.904 409.904 201.095ZM420.62 206H417.458V187.509H420.62V206ZM417.202 182.604C417.202 182.091 417.355 181.658 417.663 181.305C417.982 180.952 418.449 180.775 419.064 180.775C419.68 180.775 420.147 180.952 420.466 181.305C420.785 181.658 420.944 182.091 420.944 182.604C420.944 183.117 420.785 183.544 420.466 183.886C420.147 184.228 419.68 184.398 419.064 184.398C418.449 184.398 417.982 184.228 417.663 183.886C417.355 183.544 417.202 183.117 417.202 182.604ZM428.686 187.509L428.789 189.833C430.201 188.056 432.047 187.167 434.326 187.167C438.234 187.167 440.205 189.372 440.239 193.781V206H437.077V193.764C437.066 192.431 436.758 191.445 436.154 190.807C435.562 190.169 434.633 189.85 433.369 189.85C432.343 189.85 431.443 190.124 430.668 190.67C429.894 191.217 429.29 191.935 428.857 192.824V206H425.695V187.509H428.686ZM444.255 196.601C444.255 193.718 444.921 191.428 446.254 189.73C447.587 188.021 449.353 187.167 451.552 187.167C453.808 187.167 455.568 187.965 456.833 189.56L456.987 187.509H459.875V205.556C459.875 207.948 459.163 209.834 457.739 211.212C456.326 212.591 454.423 213.28 452.031 213.28C450.698 213.28 449.393 212.995 448.117 212.426C446.841 211.856 445.867 211.076 445.195 210.084L446.835 208.188C448.191 209.862 449.849 210.7 451.809 210.7C453.347 210.7 454.543 210.267 455.397 209.401C456.263 208.535 456.696 207.316 456.696 205.744V204.154C455.432 205.613 453.706 206.342 451.518 206.342C449.353 206.342 447.599 205.47 446.254 203.727C444.921 201.984 444.255 199.608 444.255 196.601ZM447.434 196.959C447.434 199.044 447.861 200.685 448.715 201.881C449.57 203.066 450.766 203.659 452.304 203.659C454.298 203.659 455.762 202.753 456.696 200.941V192.499C455.728 190.733 454.275 189.85 452.338 189.85C450.8 189.85 449.598 190.448 448.732 191.645C447.867 192.841 447.434 194.612 447.434 196.959ZM468.095 206H464.934V179.75H468.095V206ZM480.844 206.342C478.338 206.342 476.298 205.521 474.726 203.881C473.154 202.229 472.368 200.024 472.368 197.267V196.686C472.368 194.852 472.715 193.217 473.41 191.781C474.117 190.334 475.096 189.206 476.35 188.397C477.614 187.577 478.981 187.167 480.451 187.167C482.855 187.167 484.724 187.959 486.057 189.542C487.39 191.126 488.056 193.393 488.056 196.344V197.66H475.529C475.575 199.483 476.105 200.958 477.119 202.086C478.144 203.203 479.443 203.761 481.015 203.761C482.132 203.761 483.077 203.533 483.852 203.078C484.627 202.622 485.305 202.018 485.886 201.266L487.817 202.77C486.267 205.151 483.943 206.342 480.844 206.342ZM480.451 189.765C479.175 189.765 478.104 190.232 477.238 191.166C476.372 192.089 475.837 193.388 475.632 195.062H484.895V194.823C484.803 193.217 484.37 191.975 483.596 191.098C482.821 190.209 481.773 189.765 480.451 189.765ZM499.643 196.601C499.643 193.764 500.315 191.485 501.66 189.765C503.004 188.033 504.764 187.167 506.94 187.167C509.105 187.167 510.82 187.908 512.084 189.389V179.75H515.246V206H512.341L512.187 204.018C510.922 205.567 509.162 206.342 506.906 206.342C504.764 206.342 503.015 205.465 501.66 203.71C500.315 201.955 499.643 199.665 499.643 196.84V196.601ZM502.805 196.959C502.805 199.056 503.238 200.696 504.104 201.881C504.969 203.066 506.166 203.659 507.692 203.659C509.698 203.659 511.162 202.759 512.084 200.958V192.465C511.139 190.722 509.686 189.85 507.727 189.85C506.177 189.85 504.969 190.448 504.104 191.645C503.238 192.841 502.805 194.612 502.805 196.959ZM523.603 206H520.441V187.509H523.603V206ZM520.185 182.604C520.185 182.091 520.339 181.658 520.646 181.305C520.965 180.952 521.433 180.775 522.048 180.775C522.663 180.775 523.13 180.952 523.449 181.305C523.768 181.658 523.928 182.091 523.928 182.604C523.928 183.117 523.768 183.544 523.449 183.886C523.13 184.228 522.663 184.398 522.048 184.398C521.433 184.398 520.965 184.228 520.646 183.886C520.339 183.544 520.185 183.117 520.185 182.604ZM534.78 201.71L539.36 187.509H542.59L535.959 206H533.549L526.85 187.509H530.08L534.78 201.71ZM557.749 206H554.587V187.509H557.749V206ZM554.331 182.604C554.331 182.091 554.484 181.658 554.792 181.305C555.111 180.952 555.578 180.775 556.193 180.775C556.809 180.775 557.276 180.952 557.595 181.305C557.914 181.658 558.073 182.091 558.073 182.604C558.073 183.117 557.914 183.544 557.595 183.886C557.276 184.228 556.809 184.398 556.193 184.398C555.578 184.398 555.111 184.228 554.792 183.886C554.484 183.544 554.331 183.117 554.331 182.604ZM565.815 187.509L565.917 189.833C567.33 188.056 569.176 187.167 571.455 187.167C575.362 187.167 577.333 189.372 577.368 193.781V206H574.206V193.764C574.195 192.431 573.887 191.445 573.283 190.807C572.691 190.169 571.762 189.85 570.498 189.85C569.472 189.85 568.572 190.124 567.797 190.67C567.023 191.217 566.419 191.935 565.986 192.824V206H562.824V187.509H565.815ZM594.252 206H591.091V187.509H594.252V206ZM590.834 182.604C590.834 182.091 590.988 181.658 591.296 181.305C591.615 180.952 592.082 180.775 592.697 180.775C593.312 180.775 593.78 180.952 594.099 181.305C594.418 181.658 594.577 182.091 594.577 182.604C594.577 183.117 594.418 183.544 594.099 183.886C593.78 184.228 593.312 184.398 592.697 184.398C592.082 184.398 591.615 184.228 591.296 183.886C590.988 183.544 590.834 183.117 590.834 182.604ZM602.319 187.509L602.421 189.833C603.834 188.056 605.68 187.167 607.958 187.167C611.866 187.167 613.837 189.372 613.872 193.781V206H610.71V193.764C610.699 192.431 610.391 191.445 609.787 190.807C609.195 190.169 608.266 189.85 607.001 189.85C605.976 189.85 605.076 190.124 604.301 190.67C603.527 191.217 602.923 191.935 602.49 192.824V206H599.328V187.509H602.319ZM617.871 196.601C617.871 193.764 618.543 191.485 619.887 189.765C621.232 188.033 622.992 187.167 625.168 187.167C627.333 187.167 629.047 187.908 630.312 189.389V179.75H633.474V206H630.568L630.415 204.018C629.15 205.567 627.39 206.342 625.134 206.342C622.992 206.342 621.243 205.465 619.887 203.71C618.543 201.955 617.871 199.665 617.871 196.84V196.601ZM621.032 196.959C621.032 199.056 621.465 200.696 622.331 201.881C623.197 203.066 624.393 203.659 625.92 203.659C627.925 203.659 629.389 202.759 630.312 200.958V192.465C629.366 190.722 627.914 189.85 625.954 189.85C624.405 189.85 623.197 190.448 622.331 191.645C621.465 192.841 621.032 194.612 621.032 196.959ZM646.069 206.342C643.562 206.342 641.523 205.521 639.951 203.881C638.378 202.229 637.592 200.024 637.592 197.267V196.686C637.592 194.852 637.94 193.217 638.635 191.781C639.341 190.334 640.321 189.206 641.574 188.397C642.839 187.577 644.206 187.167 645.676 187.167C648.08 187.167 649.948 187.959 651.281 189.542C652.614 191.126 653.281 193.393 653.281 196.344V197.66H640.754C640.799 199.483 641.329 200.958 642.343 202.086C643.369 203.203 644.667 203.761 646.24 203.761C647.356 203.761 648.302 203.533 649.077 203.078C649.851 202.622 650.529 202.018 651.11 201.266L653.042 202.77C651.492 205.151 649.168 206.342 646.069 206.342ZM645.676 189.765C644.4 189.765 643.329 190.232 642.463 191.166C641.597 192.089 641.062 193.388 640.856 195.062H650.119V194.823C650.028 193.217 649.595 191.975 648.82 191.098C648.046 190.209 646.997 189.765 645.676 189.765ZM663.159 194.259L667.26 187.509H670.952L664.902 196.652L671.14 206H667.482L663.21 199.079L658.938 206H655.263L661.501 196.652L655.451 187.509H659.108L663.159 194.259ZM674.387 204.342C674.387 203.795 674.546 203.34 674.865 202.975C675.196 202.611 675.686 202.428 676.335 202.428C676.984 202.428 677.474 202.611 677.805 202.975C678.146 203.34 678.317 203.795 678.317 204.342C678.317 204.866 678.146 205.305 677.805 205.658C677.474 206.011 676.984 206.188 676.335 206.188C675.686 206.188 675.196 206.011 674.865 205.658C674.546 205.305 674.387 204.866 674.387 204.342ZM686.708 189.748C688.11 188.027 689.933 187.167 692.177 187.167C696.085 187.167 698.056 189.372 698.09 193.781V206H694.929V193.764C694.917 192.431 694.61 191.445 694.006 190.807C693.413 190.169 692.485 189.85 691.22 189.85C690.195 189.85 689.295 190.124 688.52 190.67C687.745 191.217 687.141 191.935 686.708 192.824V206H683.547V179.75H686.708V189.748ZM707.114 183.031V187.509H710.566V189.953H707.114V201.42C707.114 202.16 707.268 202.719 707.575 203.095C707.883 203.459 708.407 203.642 709.147 203.642C709.512 203.642 710.013 203.573 710.651 203.437V206C709.82 206.228 709.011 206.342 708.225 206.342C706.812 206.342 705.747 205.915 705.029 205.06C704.311 204.206 703.952 202.992 703.952 201.42V189.953H700.585V187.509H703.952V183.031H707.114ZM717.248 187.509L717.333 189.56C718.689 187.965 720.518 187.167 722.819 187.167C725.406 187.167 727.166 188.158 728.1 190.141C728.715 189.252 729.513 188.534 730.493 187.987C731.484 187.44 732.652 187.167 733.996 187.167C738.052 187.167 740.114 189.315 740.183 193.61V206H737.021V193.798C737.021 192.476 736.719 191.491 736.115 190.841C735.511 190.181 734.497 189.85 733.073 189.85C731.9 189.85 730.926 190.203 730.151 190.91C729.376 191.605 728.926 192.545 728.801 193.729V206H725.622V193.883C725.622 191.194 724.306 189.85 721.674 189.85C719.601 189.85 718.182 190.733 717.419 192.499V206H714.257V187.509H717.248ZM748.403 206H745.241V179.75H748.403V206ZM238.801 247.255C236.784 246.685 235.263 245.745 234.238 244.435C233.224 243.136 232.717 241.416 232.717 239.274V235.873C232.717 233.104 231.509 231.72 229.094 231.72V229.242C231.509 229.242 232.717 227.864 232.717 225.106V221.552C232.74 219.467 233.247 217.786 234.238 216.51C235.24 215.223 236.761 214.289 238.801 213.708L239.45 215.673C237.069 216.436 235.878 218.424 235.878 221.637V225.089C235.878 227.676 234.927 229.476 233.024 230.49C234.927 231.515 235.878 233.332 235.878 235.941V239.462C235.913 242.595 237.103 244.538 239.45 245.29L238.801 247.255ZM268.947 216.117V233.036C268.936 235.383 268.195 237.303 266.726 238.795C265.267 240.288 263.285 241.125 260.778 241.308L259.907 241.342C257.184 241.342 255.013 240.607 253.396 239.137C251.778 237.667 250.957 235.645 250.935 233.07V216.117H254.182V232.968C254.182 234.768 254.677 236.169 255.668 237.172C256.66 238.163 258.072 238.659 259.907 238.659C261.764 238.659 263.182 238.163 264.162 237.172C265.153 236.181 265.649 234.785 265.649 232.985V216.117H268.947ZM284.396 236.095C284.396 235.241 284.072 234.58 283.422 234.113C282.784 233.634 281.662 233.224 280.056 232.882C278.461 232.541 277.19 232.13 276.245 231.652C275.31 231.173 274.615 230.604 274.16 229.943C273.715 229.282 273.493 228.496 273.493 227.584C273.493 226.069 274.131 224.787 275.407 223.739C276.695 222.691 278.335 222.167 280.329 222.167C282.425 222.167 284.123 222.708 285.422 223.791C286.732 224.873 287.387 226.257 287.387 227.943H284.208C284.208 227.077 283.838 226.331 283.098 225.705C282.368 225.078 281.446 224.765 280.329 224.765C279.178 224.765 278.278 225.015 277.629 225.517C276.979 226.018 276.655 226.673 276.655 227.482C276.655 228.245 276.957 228.821 277.561 229.208C278.164 229.595 279.252 229.966 280.825 230.319C282.408 230.672 283.69 231.094 284.67 231.583C285.65 232.073 286.373 232.666 286.84 233.361C287.319 234.044 287.558 234.882 287.558 235.873C287.558 237.525 286.897 238.852 285.576 239.855C284.254 240.846 282.539 241.342 280.432 241.342C278.951 241.342 277.64 241.08 276.501 240.556C275.362 240.032 274.467 239.302 273.818 238.368C273.18 237.423 272.861 236.403 272.861 235.309H276.022C276.079 236.369 276.501 237.212 277.287 237.838C278.085 238.454 279.133 238.761 280.432 238.761C281.628 238.761 282.585 238.522 283.303 238.043C284.032 237.554 284.396 236.904 284.396 236.095ZM299.35 241.342C296.844 241.342 294.804 240.521 293.232 238.881C291.66 237.229 290.874 235.024 290.874 232.267V231.686C290.874 229.852 291.221 228.217 291.916 226.781C292.622 225.334 293.602 224.206 294.855 223.397C296.12 222.577 297.487 222.167 298.957 222.167C301.361 222.167 303.229 222.959 304.562 224.542C305.896 226.126 306.562 228.393 306.562 231.344V232.66H294.035C294.081 234.483 294.611 235.958 295.625 237.086C296.65 238.203 297.949 238.761 299.521 238.761C300.638 238.761 301.583 238.533 302.358 238.078C303.133 237.622 303.811 237.018 304.392 236.266L306.323 237.77C304.773 240.151 302.449 241.342 299.35 241.342ZM298.957 224.765C297.681 224.765 296.61 225.232 295.744 226.166C294.878 227.089 294.343 228.388 294.138 230.062H303.4V229.823C303.309 228.217 302.876 226.975 302.102 226.098C301.327 225.209 300.279 224.765 298.957 224.765ZM334.572 231.959C334.572 234.785 333.923 237.058 332.624 238.778C331.325 240.487 329.582 241.342 327.395 241.342C325.059 241.342 323.253 240.516 321.977 238.864L321.823 241H318.918V214.75H322.08V224.542C323.356 222.959 325.116 222.167 327.36 222.167C329.605 222.167 331.365 223.016 332.641 224.713C333.929 226.411 334.572 228.735 334.572 231.686V231.959ZM331.411 231.601C331.411 229.447 330.995 227.784 330.163 226.61C329.331 225.437 328.135 224.85 326.574 224.85C324.489 224.85 322.991 225.819 322.08 227.755V235.753C323.048 237.69 324.558 238.659 326.608 238.659C328.124 238.659 329.303 238.072 330.146 236.898C330.989 235.725 331.411 233.959 331.411 231.601ZM346.245 241.342C343.738 241.342 341.699 240.521 340.126 238.881C338.554 237.229 337.768 235.024 337.768 232.267V231.686C337.768 229.852 338.116 228.217 338.811 226.781C339.517 225.334 340.497 224.206 341.75 223.397C343.015 222.577 344.382 222.167 345.852 222.167C348.256 222.167 350.124 222.959 351.457 224.542C352.79 226.126 353.457 228.393 353.457 231.344V232.66H340.93C340.975 234.483 341.505 235.958 342.519 237.086C343.544 238.203 344.843 238.761 346.416 238.761C347.532 238.761 348.478 238.533 349.252 238.078C350.027 237.622 350.705 237.018 351.286 236.266L353.217 237.77C351.668 240.151 349.344 241.342 346.245 241.342ZM345.852 224.765C344.576 224.765 343.505 225.232 342.639 226.166C341.773 227.089 341.237 228.388 341.032 230.062H350.295V229.823C350.204 228.217 349.771 226.975 348.996 226.098C348.221 225.209 347.173 224.765 345.852 224.765ZM358.686 241V224.953H355.764V222.509H358.686V220.612C358.686 218.629 359.216 217.097 360.275 216.015C361.335 214.932 362.833 214.391 364.77 214.391C365.499 214.391 366.223 214.488 366.94 214.682L366.77 217.245C366.234 217.143 365.664 217.091 365.061 217.091C364.035 217.091 363.243 217.393 362.685 217.997C362.127 218.59 361.848 219.444 361.848 220.561V222.509H365.795V224.953H361.848V241H358.686ZM368.461 231.583C368.461 229.772 368.815 228.143 369.521 226.696C370.239 225.249 371.23 224.132 372.495 223.346C373.771 222.56 375.223 222.167 376.853 222.167C379.37 222.167 381.404 223.039 382.954 224.782C384.514 226.525 385.295 228.843 385.295 231.737V231.959C385.295 233.76 384.947 235.377 384.252 236.813C383.569 238.237 382.583 239.348 381.296 240.146C380.02 240.943 378.55 241.342 376.887 241.342C374.38 241.342 372.347 240.47 370.786 238.727C369.236 236.984 368.461 234.677 368.461 231.806V231.583ZM371.64 231.959C371.64 234.01 372.113 235.657 373.059 236.898C374.016 238.14 375.292 238.761 376.887 238.761C378.493 238.761 379.769 238.135 380.715 236.881C381.66 235.617 382.133 233.851 382.133 231.583C382.133 229.556 381.649 227.915 380.681 226.662C379.724 225.397 378.448 224.765 376.853 224.765C375.292 224.765 374.033 225.386 373.076 226.627C372.119 227.869 371.64 229.647 371.64 231.959ZM398.198 225.346C397.719 225.266 397.201 225.226 396.643 225.226C394.569 225.226 393.162 226.109 392.421 227.875V241H389.26V222.509H392.336L392.387 224.645C393.424 222.993 394.894 222.167 396.796 222.167C397.412 222.167 397.879 222.247 398.198 222.406V225.346ZM408.452 241.342C405.945 241.342 403.906 240.521 402.333 238.881C400.761 237.229 399.975 235.024 399.975 232.267V231.686C399.975 229.852 400.323 228.217 401.018 226.781C401.724 225.334 402.704 224.206 403.957 223.397C405.222 222.577 406.589 222.167 408.059 222.167C410.463 222.167 412.331 222.959 413.664 224.542C414.997 226.126 415.664 228.393 415.664 231.344V232.66H403.137C403.182 234.483 403.712 235.958 404.726 237.086C405.751 238.203 407.05 238.761 408.623 238.761C409.739 238.761 410.685 238.533 411.459 238.078C412.234 237.622 412.912 237.018 413.493 236.266L415.424 237.77C413.875 240.151 411.551 241.342 408.452 241.342ZM408.059 224.765C406.783 224.765 405.712 225.232 404.846 226.166C403.98 227.089 403.444 228.388 403.239 230.062H412.502V229.823C412.411 228.217 411.978 226.975 411.203 226.098C410.428 225.209 409.38 224.765 408.059 224.765ZM427.353 234.318C427.353 233.122 427.683 232.022 428.344 231.02C429.016 230.017 430.292 228.849 432.172 227.516C431.067 226.172 430.327 225.089 429.951 224.269C429.575 223.449 429.387 222.634 429.387 221.825C429.387 219.934 429.945 218.453 431.062 217.382C432.178 216.311 433.693 215.775 435.607 215.775C437.316 215.775 438.729 216.277 439.846 217.279C440.962 218.271 441.521 219.524 441.521 221.039C441.521 222.042 441.264 222.97 440.751 223.825C440.25 224.668 439.367 225.556 438.103 226.491L436.274 227.841L441.811 234.455C442.586 232.973 442.973 231.327 442.973 229.516H445.827C445.827 232.421 445.126 234.831 443.725 236.745L447.28 241H443.486L441.828 239.035C440.985 239.787 439.994 240.362 438.854 240.761C437.727 241.148 436.576 241.342 435.402 241.342C432.976 241.342 431.027 240.698 429.558 239.411C428.088 238.123 427.353 236.426 427.353 234.318ZM435.402 238.761C437.077 238.761 438.61 238.123 440 236.847L433.933 229.584L433.369 229.994C431.466 231.396 430.515 232.837 430.515 234.318C430.515 235.662 430.948 236.739 431.813 237.548C432.691 238.357 433.887 238.761 435.402 238.761ZM432.548 221.723C432.548 222.816 433.221 224.184 434.565 225.824L436.582 224.406C437.356 223.859 437.886 223.34 438.171 222.851C438.456 222.349 438.598 221.745 438.598 221.039C438.598 220.276 438.313 219.643 437.744 219.142C437.174 218.629 436.456 218.373 435.59 218.373C434.656 218.373 433.916 218.692 433.369 219.33C432.822 219.957 432.548 220.754 432.548 221.723ZM469.89 241C469.707 240.635 469.559 239.986 469.445 239.052C467.976 240.578 466.221 241.342 464.182 241.342C462.359 241.342 460.861 240.829 459.687 239.804C458.525 238.767 457.944 237.457 457.944 235.873C457.944 233.948 458.673 232.455 460.131 231.396C461.601 230.325 463.663 229.789 466.318 229.789H469.394V228.336C469.394 227.231 469.064 226.354 468.403 225.705C467.742 225.044 466.768 224.713 465.48 224.713C464.353 224.713 463.407 224.998 462.644 225.568C461.88 226.138 461.499 226.827 461.499 227.636H458.32C458.32 226.713 458.645 225.824 459.294 224.97C459.955 224.104 460.843 223.42 461.96 222.919C463.088 222.418 464.324 222.167 465.668 222.167C467.799 222.167 469.468 222.702 470.676 223.773C471.883 224.833 472.51 226.297 472.556 228.166V236.676C472.556 238.374 472.772 239.724 473.205 240.727V241H469.89ZM464.643 238.59C465.634 238.59 466.574 238.334 467.463 237.821C468.352 237.309 468.995 236.642 469.394 235.822V232.028H466.916C463.042 232.028 461.105 233.161 461.105 235.429C461.105 236.42 461.436 237.195 462.097 237.753C462.757 238.311 463.606 238.59 464.643 238.59ZM479.067 241V224.953H476.145V222.509H479.067V220.612C479.067 218.629 479.597 217.097 480.656 216.015C481.716 214.932 483.214 214.391 485.151 214.391C485.88 214.391 486.604 214.488 487.321 214.682L487.15 217.245C486.615 217.143 486.045 217.091 485.441 217.091C484.416 217.091 483.624 217.393 483.066 217.997C482.508 218.59 482.229 219.444 482.229 220.561V222.509H486.176V224.953H482.229V241H479.067ZM493.969 218.031V222.509H497.421V224.953H493.969V236.42C493.969 237.16 494.123 237.719 494.431 238.095C494.738 238.459 495.262 238.642 496.003 238.642C496.368 238.642 496.869 238.573 497.507 238.437V241C496.675 241.228 495.866 241.342 495.08 241.342C493.667 241.342 492.602 240.915 491.884 240.06C491.167 239.206 490.808 237.992 490.808 236.42V224.953H487.441V222.509H490.808V218.031H493.969ZM508.803 241.342C506.297 241.342 504.257 240.521 502.685 238.881C501.113 237.229 500.327 235.024 500.327 232.267V231.686C500.327 229.852 500.674 228.217 501.369 226.781C502.076 225.334 503.055 224.206 504.309 223.397C505.573 222.577 506.94 222.167 508.41 222.167C510.814 222.167 512.683 222.959 514.016 224.542C515.349 226.126 516.015 228.393 516.015 231.344V232.66H503.488C503.534 234.483 504.064 235.958 505.078 237.086C506.103 238.203 507.402 238.761 508.974 238.761C510.091 238.761 511.036 238.533 511.811 238.078C512.586 237.622 513.264 237.018 513.845 236.266L515.776 237.77C514.226 240.151 511.902 241.342 508.803 241.342ZM508.41 224.765C507.134 224.765 506.063 225.232 505.197 226.166C504.331 227.089 503.796 228.388 503.591 230.062H512.854V229.823C512.762 228.217 512.329 226.975 511.555 226.098C510.78 225.209 509.732 224.765 508.41 224.765ZM528.627 225.346C528.149 225.266 527.631 225.226 527.072 225.226C524.999 225.226 523.592 226.109 522.851 227.875V241H519.689V222.509H522.766L522.817 224.645C523.854 222.993 525.323 222.167 527.226 222.167C527.841 222.167 528.308 222.247 528.627 222.406V225.346ZM555.852 231.959C555.852 234.774 555.208 237.041 553.92 238.761C552.633 240.482 550.89 241.342 548.691 241.342C546.446 241.342 544.681 240.63 543.393 239.206V248.109H540.231V222.509H543.12L543.273 224.56C544.561 222.965 546.35 222.167 548.64 222.167C550.861 222.167 552.616 223.004 553.903 224.679C555.202 226.354 555.852 228.684 555.852 231.669V231.959ZM552.69 231.601C552.69 229.516 552.246 227.869 551.357 226.662C550.468 225.454 549.249 224.85 547.7 224.85C545.786 224.85 544.35 225.699 543.393 227.396V236.232C544.339 237.918 545.786 238.761 547.734 238.761C549.249 238.761 550.451 238.163 551.34 236.967C552.24 235.759 552.69 233.97 552.69 231.601ZM568.823 225.346C568.344 225.266 567.826 225.226 567.268 225.226C565.194 225.226 563.787 226.109 563.046 227.875V241H559.885V222.509H562.961L563.012 224.645C564.049 222.993 565.519 222.167 567.421 222.167C568.037 222.167 568.504 222.247 568.823 222.406V225.346ZM570.566 231.583C570.566 229.772 570.919 228.143 571.625 226.696C572.343 225.249 573.334 224.132 574.599 223.346C575.875 222.56 577.328 222.167 578.957 222.167C581.475 222.167 583.509 223.039 585.058 224.782C586.619 226.525 587.399 228.843 587.399 231.737V231.959C587.399 233.76 587.052 235.377 586.357 236.813C585.673 238.237 584.688 239.348 583.4 240.146C582.124 240.943 580.655 241.342 578.991 241.342C576.485 241.342 574.451 240.47 572.89 238.727C571.341 236.984 570.566 234.677 570.566 231.806V231.583ZM573.745 231.959C573.745 234.01 574.217 235.657 575.163 236.898C576.12 238.14 577.396 238.761 578.991 238.761C580.598 238.761 581.874 238.135 582.819 236.881C583.765 235.617 584.238 233.851 584.238 231.583C584.238 229.556 583.754 227.915 582.785 226.662C581.828 225.397 580.552 224.765 578.957 224.765C577.396 224.765 576.137 225.386 575.18 226.627C574.223 227.869 573.745 229.647 573.745 231.959ZM606.984 231.959C606.984 234.774 606.341 237.041 605.053 238.761C603.766 240.482 602.023 241.342 599.824 241.342C597.579 241.342 595.813 240.63 594.526 239.206V248.109H591.364V222.509H594.252L594.406 224.56C595.694 222.965 597.482 222.167 599.772 222.167C601.994 222.167 603.749 223.004 605.036 224.679C606.335 226.354 606.984 228.684 606.984 231.669V231.959ZM603.823 231.601C603.823 229.516 603.378 227.869 602.49 226.662C601.601 225.454 600.382 224.85 598.833 224.85C596.918 224.85 595.483 225.699 594.526 227.396V236.232C595.472 237.918 596.918 238.761 598.867 238.761C600.382 238.761 601.584 238.163 602.473 236.967C603.373 235.759 603.823 233.97 603.823 231.601ZM618.691 241.342C616.184 241.342 614.145 240.521 612.573 238.881C611 237.229 610.214 235.024 610.214 232.267V231.686C610.214 229.852 610.562 228.217 611.257 226.781C611.963 225.334 612.943 224.206 614.196 223.397C615.461 222.577 616.828 222.167 618.298 222.167C620.702 222.167 622.57 222.959 623.903 224.542C625.236 226.126 625.903 228.393 625.903 231.344V232.66H613.376C613.422 234.483 613.951 235.958 614.965 237.086C615.991 238.203 617.29 238.761 618.862 238.761C619.978 238.761 620.924 238.533 621.699 238.078C622.473 237.622 623.151 237.018 623.732 236.266L625.664 237.77C624.114 240.151 621.79 241.342 618.691 241.342ZM618.298 224.765C617.022 224.765 615.951 225.232 615.085 226.166C614.219 227.089 613.684 228.388 613.479 230.062H622.741V229.823C622.65 228.217 622.217 226.975 621.442 226.098C620.668 225.209 619.619 224.765 618.298 224.765ZM638.515 225.346C638.037 225.266 637.518 225.226 636.96 225.226C634.886 225.226 633.479 226.109 632.739 227.875V241H629.577V222.509H632.653L632.705 224.645C633.741 222.993 635.211 222.167 637.114 222.167C637.729 222.167 638.196 222.247 638.515 222.406V225.346ZM646.582 218.031V222.509H650.034V224.953H646.582V236.42C646.582 237.16 646.735 237.719 647.043 238.095C647.351 238.459 647.875 238.642 648.615 238.642C648.98 238.642 649.481 238.573 650.119 238.437V241C649.287 241.228 648.479 241.342 647.692 241.342C646.28 241.342 645.214 240.915 644.497 240.06C643.779 239.206 643.42 237.992 643.42 236.42V224.953H640.053V222.509H643.42V218.031H646.582ZM659.792 236.369L664.099 222.509H667.482L660.048 243.854C658.898 246.93 657.069 248.468 654.562 248.468L653.964 248.417L652.785 248.195V245.631L653.64 245.7C654.711 245.7 655.542 245.483 656.135 245.05C656.739 244.617 657.234 243.826 657.622 242.675L658.322 240.795L651.726 222.509H655.178L659.792 236.369ZM682.436 241H679.274V222.509H682.436V241ZM679.018 217.604C679.018 217.091 679.172 216.658 679.479 216.305C679.799 215.952 680.266 215.775 680.881 215.775C681.496 215.775 681.963 215.952 682.282 216.305C682.601 216.658 682.761 217.091 682.761 217.604C682.761 218.117 682.601 218.544 682.282 218.886C681.963 219.228 681.496 219.398 680.881 219.398C680.266 219.398 679.799 219.228 679.479 218.886C679.172 218.544 679.018 218.117 679.018 217.604ZM690.502 222.509L690.605 224.833C692.018 223.056 693.863 222.167 696.142 222.167C700.05 222.167 702.021 224.372 702.055 228.781V241H698.894V228.764C698.882 227.431 698.575 226.445 697.971 225.807C697.378 225.169 696.45 224.85 695.185 224.85C694.16 224.85 693.26 225.124 692.485 225.67C691.71 226.217 691.106 226.935 690.673 227.824V241H687.512V222.509H690.502ZM717.59 236.095C717.59 235.241 717.265 234.58 716.616 234.113C715.978 233.634 714.855 233.224 713.249 232.882C711.654 232.541 710.384 232.13 709.438 231.652C708.504 231.173 707.809 230.604 707.353 229.943C706.909 229.282 706.687 228.496 706.687 227.584C706.687 226.069 707.325 224.787 708.601 223.739C709.888 222.691 711.529 222.167 713.522 222.167C715.619 222.167 717.316 222.708 718.615 223.791C719.925 224.873 720.581 226.257 720.581 227.943H717.402C717.402 227.077 717.032 226.331 716.291 225.705C715.562 225.078 714.639 224.765 713.522 224.765C712.372 224.765 711.472 225.015 710.822 225.517C710.173 226.018 709.848 226.673 709.848 227.482C709.848 228.245 710.15 228.821 710.754 229.208C711.358 229.595 712.446 229.966 714.018 230.319C715.602 230.672 716.883 231.094 717.863 231.583C718.843 232.073 719.567 232.666 720.034 233.361C720.512 234.044 720.751 234.882 720.751 235.873C720.751 237.525 720.091 238.852 718.769 239.855C717.447 240.846 715.733 241.342 713.625 241.342C712.144 241.342 710.834 241.08 709.694 240.556C708.555 240.032 707.661 239.302 707.011 238.368C706.373 237.423 706.054 236.403 706.054 235.309H709.216C709.273 236.369 709.694 237.212 710.48 237.838C711.278 238.454 712.326 238.761 713.625 238.761C714.821 238.761 715.778 238.522 716.496 238.043C717.225 237.554 717.59 236.904 717.59 236.095ZM729.16 218.031V222.509H732.612V224.953H729.16V236.42C729.16 237.16 729.313 237.719 729.621 238.095C729.929 238.459 730.453 238.642 731.193 238.642C731.558 238.642 732.059 238.573 732.697 238.437V241C731.866 241.228 731.057 241.342 730.271 241.342C728.858 241.342 727.792 240.915 727.075 240.06C726.357 239.206 725.998 237.992 725.998 236.42V224.953H722.631V222.509H725.998V218.031H729.16ZM743.994 241.342C741.487 241.342 739.448 240.521 737.875 238.881C736.303 237.229 735.517 235.024 735.517 232.267V231.686C735.517 229.852 735.865 228.217 736.56 226.781C737.266 225.334 738.246 224.206 739.499 223.397C740.764 222.577 742.131 222.167 743.601 222.167C746.005 222.167 747.873 222.959 749.206 224.542C750.539 226.126 751.206 228.393 751.206 231.344V232.66H738.679C738.724 234.483 739.254 235.958 740.268 237.086C741.293 238.203 742.592 238.761 744.165 238.761C745.281 238.761 746.227 238.533 747.001 238.078C747.776 237.622 748.454 237.018 749.035 236.266L750.966 237.77C749.417 240.151 747.093 241.342 743.994 241.342ZM743.601 224.765C742.325 224.765 741.254 225.232 740.388 226.166C739.522 227.089 738.986 228.388 738.781 230.062H748.044V229.823C747.953 228.217 747.52 226.975 746.745 226.098C745.97 225.209 744.922 224.765 743.601 224.765ZM766.296 241C766.114 240.635 765.965 239.986 765.852 239.052C764.382 240.578 762.627 241.342 760.588 241.342C758.765 241.342 757.267 240.829 756.093 239.804C754.931 238.767 754.35 237.457 754.35 235.873C754.35 233.948 755.079 232.455 756.538 231.396C758.007 230.325 760.069 229.789 762.724 229.789H765.8V228.336C765.8 227.231 765.47 226.354 764.809 225.705C764.148 225.044 763.174 224.713 761.887 224.713C760.759 224.713 759.813 224.998 759.05 225.568C758.286 226.138 757.905 226.827 757.905 227.636H754.726C754.726 226.713 755.051 225.824 755.7 224.97C756.361 224.104 757.25 223.42 758.366 222.919C759.494 222.418 760.73 222.167 762.075 222.167C764.205 222.167 765.874 222.702 767.082 223.773C768.29 224.833 768.916 226.297 768.962 228.166V236.676C768.962 238.374 769.178 239.724 769.611 240.727V241H766.296ZM761.049 238.59C762.041 238.59 762.98 238.334 763.869 237.821C764.758 237.309 765.402 236.642 765.8 235.822V232.028H763.322C759.449 232.028 757.512 233.161 757.512 235.429C757.512 236.42 757.842 237.195 758.503 237.753C759.164 238.311 760.013 238.59 761.049 238.59ZM773.149 231.601C773.149 228.764 773.821 226.485 775.166 224.765C776.51 223.033 778.27 222.167 780.446 222.167C782.611 222.167 784.326 222.908 785.59 224.389V214.75H788.752V241H785.847L785.693 239.018C784.428 240.567 782.668 241.342 780.412 241.342C778.27 241.342 776.521 240.465 775.166 238.71C773.821 236.955 773.149 234.665 773.149 231.84V231.601ZM776.311 231.959C776.311 234.056 776.743 235.696 777.609 236.881C778.475 238.066 779.672 238.659 781.198 238.659C783.203 238.659 784.667 237.759 785.59 235.958V227.465C784.645 225.722 783.192 224.85 781.232 224.85C779.683 224.85 778.475 225.448 777.609 226.645C776.743 227.841 776.311 229.612 776.311 231.959ZM801.518 231.583C801.518 229.772 801.871 228.143 802.578 226.696C803.295 225.249 804.287 224.132 805.551 223.346C806.827 222.56 808.28 222.167 809.909 222.167C812.427 222.167 814.461 223.039 816.01 224.782C817.571 226.525 818.352 228.843 818.352 231.737V231.959C818.352 233.76 818.004 235.377 817.309 236.813C816.625 238.237 815.64 239.348 814.353 240.146C813.076 240.943 811.607 241.342 809.943 241.342C807.437 241.342 805.403 240.47 803.842 238.727C802.293 236.984 801.518 234.677 801.518 231.806V231.583ZM804.697 231.959C804.697 234.01 805.17 235.657 806.115 236.898C807.072 238.14 808.348 238.761 809.943 238.761C811.55 238.761 812.826 238.135 813.771 236.881C814.717 235.617 815.19 233.851 815.19 231.583C815.19 229.556 814.706 227.915 813.737 226.662C812.78 225.397 811.504 224.765 809.909 224.765C808.348 224.765 807.089 225.386 806.132 226.627C805.175 227.869 804.697 229.647 804.697 231.959ZM823.872 241V224.953H820.949V222.509H823.872V220.612C823.872 218.629 824.401 217.097 825.461 216.015C826.521 214.932 828.019 214.391 829.956 214.391C830.685 214.391 831.408 214.488 832.126 214.682L831.955 217.245C831.42 217.143 830.85 217.091 830.246 217.091C829.221 217.091 828.429 217.393 827.871 217.997C827.312 218.59 827.033 219.444 827.033 220.561V222.509H830.981V224.953H827.033V241H823.872ZM846.14 222.509L846.225 224.56C847.581 222.965 849.41 222.167 851.711 222.167C854.297 222.167 856.057 223.158 856.992 225.141C857.607 224.252 858.404 223.534 859.384 222.987C860.375 222.44 861.543 222.167 862.888 222.167C866.944 222.167 869.006 224.315 869.074 228.61V241H865.913V228.798C865.913 227.476 865.611 226.491 865.007 225.841C864.403 225.181 863.389 224.85 861.965 224.85C860.791 224.85 859.817 225.203 859.042 225.91C858.268 226.605 857.818 227.545 857.692 228.729V241H854.514V228.883C854.514 226.194 853.198 224.85 850.566 224.85C848.492 224.85 847.074 225.733 846.311 227.499V241H843.149V222.509H846.14ZM885.275 239.171C884.045 240.618 882.239 241.342 879.858 241.342C877.887 241.342 876.383 240.772 875.346 239.633C874.321 238.482 873.802 236.785 873.791 234.54V222.509H876.953V234.455C876.953 237.257 878.092 238.659 880.371 238.659C882.786 238.659 884.392 237.759 885.19 235.958V222.509H888.352V241H885.344L885.275 239.171ZM896.606 241H893.444V214.75H896.606V241ZM905.971 218.031V222.509H909.423V224.953H905.971V236.42C905.971 237.16 906.125 237.719 906.433 238.095C906.74 238.459 907.264 238.642 908.005 238.642C908.369 238.642 908.871 238.573 909.509 238.437V241C908.677 241.228 907.868 241.342 907.082 241.342C905.669 241.342 904.604 240.915 903.886 240.06C903.168 239.206 902.81 237.992 902.81 236.42V224.953H899.443V222.509H902.81V218.031H905.971ZM916.567 241H913.405V222.509H916.567V241ZM913.149 217.604C913.149 217.091 913.303 216.658 913.61 216.305C913.929 215.952 914.396 215.775 915.012 215.775C915.627 215.775 916.094 215.952 916.413 216.305C916.732 216.658 916.892 217.091 916.892 217.604C916.892 218.117 916.732 218.544 916.413 218.886C916.094 219.228 915.627 219.398 915.012 219.398C914.396 219.398 913.929 219.228 913.61 218.886C913.303 218.544 913.149 218.117 913.149 217.604ZM937.263 231.959C937.263 234.774 936.619 237.041 935.332 238.761C934.044 240.482 932.301 241.342 930.102 241.342C927.858 241.342 926.092 240.63 924.804 239.206V248.109H921.643V222.509H924.531L924.685 224.56C925.972 222.965 927.761 222.167 930.051 222.167C932.272 222.167 934.027 223.004 935.314 224.679C936.613 226.354 937.263 228.684 937.263 231.669V231.959ZM934.101 231.601C934.101 229.516 933.657 227.869 932.768 226.662C931.879 225.454 930.66 224.85 929.111 224.85C927.197 224.85 925.761 225.699 924.804 227.396V236.232C925.75 237.918 927.197 238.761 929.145 238.761C930.66 238.761 931.862 238.163 932.751 236.967C933.651 235.759 934.101 233.97 934.101 231.601ZM944.731 241H941.569V214.75H944.731V241ZM957.48 241.342C954.973 241.342 952.934 240.521 951.362 238.881C949.79 237.229 949.003 235.024 949.003 232.267V231.686C949.003 229.852 949.351 228.217 950.046 226.781C950.752 225.334 951.732 224.206 952.985 223.397C954.25 222.577 955.617 222.167 957.087 222.167C959.491 222.167 961.359 222.959 962.692 224.542C964.025 226.126 964.692 228.393 964.692 231.344V232.66H952.165C952.211 234.483 952.74 235.958 953.754 237.086C954.78 238.203 956.079 238.761 957.651 238.761C958.767 238.761 959.713 238.533 960.488 238.078C961.263 237.622 961.94 237.018 962.521 236.266L964.453 237.77C962.903 240.151 960.579 241.342 957.48 241.342ZM957.087 224.765C955.811 224.765 954.74 225.232 953.874 226.166C953.008 227.089 952.473 228.388 952.268 230.062H961.53V229.823C961.439 228.217 961.006 226.975 960.231 226.098C959.457 225.209 958.409 224.765 957.087 224.765ZM976.279 231.601C976.279 228.764 976.951 226.485 978.295 224.765C979.64 223.033 981.4 222.167 983.576 222.167C985.741 222.167 987.456 222.908 988.72 224.389V214.75H991.882V241H988.977L988.823 239.018C987.558 240.567 985.798 241.342 983.542 241.342C981.4 241.342 979.651 240.465 978.295 238.71C976.951 236.955 976.279 234.665 976.279 231.84V231.601ZM979.44 231.959C979.44 234.056 979.873 235.696 980.739 236.881C981.605 238.066 982.801 238.659 984.328 238.659C986.333 238.659 987.797 237.759 988.72 235.958V227.465C987.775 225.722 986.322 224.85 984.362 224.85C982.813 224.85 981.605 225.448 980.739 226.645C979.873 227.841 979.44 229.612 979.44 231.959ZM1000.24 241H997.077V222.509H1000.24V241ZM996.821 217.604C996.821 217.091 996.975 216.658 997.282 216.305C997.601 215.952 998.068 215.775 998.684 215.775C999.299 215.775 999.766 215.952 1000.08 216.305C1000.4 216.658 1000.56 217.091 1000.56 217.604C1000.56 218.117 1000.4 218.544 1000.08 218.886C999.766 219.228 999.299 219.398 998.684 219.398C998.068 219.398 997.601 219.228 997.282 218.886C996.975 218.544 996.821 218.117 996.821 217.604ZM1011.42 236.71L1016 222.509H1019.23L1012.59 241H1010.19L1003.49 222.509H1006.72L1011.42 236.71ZM1028.88 245.29C1031.19 244.549 1032.39 242.663 1032.47 239.633V235.873C1032.47 233.241 1033.5 231.447 1035.56 230.49C1033.5 229.556 1032.47 227.761 1032.47 225.106V221.637C1032.47 218.424 1031.28 216.436 1028.9 215.673L1029.55 213.708C1031.56 214.277 1033.08 215.206 1034.09 216.493C1035.11 217.769 1035.62 219.461 1035.63 221.569V225.158C1035.63 227.881 1036.84 229.242 1039.25 229.242V231.72C1036.84 231.72 1035.63 233.104 1035.63 235.873V239.325C1035.63 241.467 1035.11 243.182 1034.08 244.469C1033.05 245.757 1031.54 246.685 1029.55 247.255L1028.88 245.29Z" fill="#494C58"/>
</g>
<g filter="url(#filter1_d)">
<path d="M28.0806 8.81738H20.0825V31H16.8184V8.81738H8.8374V6.11719H28.0806V8.81738ZM40.7441 31C40.5618 30.6354 40.4137 29.986 40.2998 29.0518C38.8301 30.5785 37.0755 31.3418 35.0361 31.3418C33.2132 31.3418 31.715 30.8291 30.5415 29.8037C29.3794 28.7669 28.7983 27.4567 28.7983 25.873C28.7983 23.9476 29.5275 22.4551 30.9858 21.3955C32.4556 20.3245 34.5177 19.7891 37.1724 19.7891H40.2485V18.3364C40.2485 17.2313 39.9181 16.354 39.2573 15.7046C38.5965 15.0438 37.6224 14.7134 36.335 14.7134C35.207 14.7134 34.2614 14.9982 33.498 15.5679C32.7347 16.1375 32.353 16.8268 32.353 17.6357H29.1743C29.1743 16.7129 29.499 15.8242 30.1484 14.9697C30.8092 14.1038 31.6979 13.4202 32.8145 12.9189C33.9424 12.4176 35.1785 12.167 36.5229 12.167C38.6535 12.167 40.3226 12.7025 41.5303 13.7734C42.738 14.833 43.3646 16.297 43.4102 18.1655V26.6763C43.4102 28.3739 43.6266 29.724 44.0596 30.7266V31H40.7441ZM35.4976 28.5903C36.4888 28.5903 37.4287 28.334 38.3174 27.8213C39.2061 27.3086 39.8498 26.6421 40.2485 25.8218V22.0278H37.7705C33.8968 22.0278 31.96 23.1615 31.96 25.4287C31.96 26.4199 32.2904 27.1947 32.9512 27.7529C33.612 28.3112 34.4608 28.5903 35.4976 28.5903ZM57.3042 15.3457C56.8257 15.266 56.3073 15.2261 55.749 15.2261C53.6755 15.2261 52.2684 16.109 51.5278 17.875V31H48.3662V12.5088H51.4424L51.4937 14.645C52.5304 12.993 54.0002 12.167 55.9028 12.167C56.5181 12.167 56.9852 12.2467 57.3042 12.4062V15.3457ZM59.1328 21.6006C59.1328 18.7181 59.7993 16.4281 61.1323 14.7305C62.4653 13.0215 64.2313 12.167 66.4302 12.167C68.686 12.167 70.4463 12.9645 71.7109 14.5596L71.8647 12.5088H74.7529V30.5557C74.7529 32.9482 74.0409 34.8338 72.6167 36.2124C71.2039 37.591 69.3013 38.2803 66.9087 38.2803C65.5757 38.2803 64.2712 37.9954 62.9951 37.4258C61.7191 36.8561 60.745 36.0757 60.0728 35.0845L61.7134 33.1875C63.0692 34.8623 64.7269 35.6997 66.6865 35.6997C68.2246 35.6997 69.4209 35.2668 70.2754 34.4009C71.1413 33.535 71.5742 32.3159 71.5742 30.7437V29.1543C70.3096 30.6126 68.5835 31.3418 66.396 31.3418C64.2313 31.3418 62.4767 30.4702 61.1323 28.7271C59.7993 26.9839 59.1328 24.6084 59.1328 21.6006ZM62.3115 21.9595C62.3115 24.0444 62.7388 25.6851 63.5933 26.8813C64.4478 28.0662 65.644 28.6587 67.1821 28.6587C69.1759 28.6587 70.64 27.7529 71.5742 25.9414V17.499C70.6058 15.7331 69.1532 14.8501 67.2163 14.8501C65.6782 14.8501 64.4762 15.4482 63.6104 16.6445C62.7445 17.8408 62.3115 19.6125 62.3115 21.9595ZM87.2114 31.3418C84.7049 31.3418 82.6655 30.5215 81.0933 28.8809C79.521 27.2288 78.7349 25.0243 78.7349 22.2671V21.686C78.7349 19.8517 79.0824 18.2168 79.7773 16.7812C80.4837 15.3343 81.4635 14.2064 82.7168 13.3975C83.9814 12.5771 85.3486 12.167 86.8184 12.167C89.2223 12.167 91.0908 12.9588 92.4238 14.5425C93.7568 16.1261 94.4233 18.3934 94.4233 21.3442V22.6602H81.8965C81.9421 24.4831 82.4718 25.9585 83.4858 27.0864C84.5112 28.203 85.8101 28.7612 87.3823 28.7612C88.4989 28.7612 89.4445 28.5334 90.2192 28.0776C90.994 27.6219 91.6719 27.0181 92.2529 26.2661L94.1841 27.77C92.6346 30.1512 90.3104 31.3418 87.2114 31.3418ZM86.8184 14.7646C85.5423 14.7646 84.4714 15.2318 83.6055 16.166C82.7396 17.0889 82.2041 18.3877 81.999 20.0625H91.2617V19.8232C91.1706 18.2168 90.7376 16.9749 89.9629 16.0977C89.1882 15.209 88.14 14.7646 86.8184 14.7646ZM102.387 8.03125V12.5088H105.839V14.9526H102.387V26.4199C102.387 27.1605 102.541 27.7188 102.849 28.0947C103.156 28.4593 103.68 28.6416 104.421 28.6416C104.785 28.6416 105.287 28.5732 105.925 28.4365V31C105.093 31.2279 104.284 31.3418 103.498 31.3418C102.085 31.3418 101.02 30.9146 100.302 30.0601C99.5845 29.2056 99.2256 27.9922 99.2256 26.4199V14.9526H95.8589V12.5088H99.2256V8.03125H102.387ZM28.0806 78.8174H20.0825V101H16.8184V78.8174H8.8374V76.1172H28.0806V78.8174ZM40.7441 101C40.5618 100.635 40.4137 99.986 40.2998 99.0518C38.8301 100.578 37.0755 101.342 35.0361 101.342C33.2132 101.342 31.715 100.829 30.5415 99.8037C29.3794 98.7669 28.7983 97.4567 28.7983 95.873C28.7983 93.9476 29.5275 92.4551 30.9858 91.3955C32.4556 90.3245 34.5177 89.7891 37.1724 89.7891H40.2485V88.3364C40.2485 87.2313 39.9181 86.354 39.2573 85.7046C38.5965 85.0438 37.6224 84.7134 36.335 84.7134C35.207 84.7134 34.2614 84.9982 33.498 85.5679C32.7347 86.1375 32.353 86.8268 32.353 87.6357H29.1743C29.1743 86.7129 29.499 85.8242 30.1484 84.9697C30.8092 84.1038 31.6979 83.4202 32.8145 82.9189C33.9424 82.4176 35.1785 82.167 36.5229 82.167C38.6535 82.167 40.3226 82.7025 41.5303 83.7734C42.738 84.833 43.3646 86.297 43.4102 88.1655V96.6763C43.4102 98.3739 43.6266 99.724 44.0596 100.727V101H40.7441ZM35.4976 98.5903C36.4888 98.5903 37.4287 98.334 38.3174 97.8213C39.2061 97.3086 39.8498 96.6421 40.2485 95.8218V92.0278H37.7705C33.8968 92.0278 31.96 93.1615 31.96 95.4287C31.96 96.4199 32.2904 97.1947 32.9512 97.7529C33.612 98.3112 34.4608 98.5903 35.4976 98.5903ZM59.1328 96.0952C59.1328 95.2407 58.8081 94.5799 58.1587 94.1128C57.5207 93.6343 56.3984 93.2241 54.792 92.8823C53.1969 92.5405 51.9266 92.1304 50.981 91.6519C50.0467 91.1733 49.3517 90.6037 48.896 89.9429C48.4517 89.2821 48.2295 88.4959 48.2295 87.5845C48.2295 86.0692 48.8675 84.7874 50.1436 83.7393C51.431 82.6911 53.0716 82.167 55.0654 82.167C57.1618 82.167 58.8594 82.7082 60.1582 83.7905C61.4684 84.8729 62.1235 86.2572 62.1235 87.9434H58.9448C58.9448 87.0775 58.5745 86.3312 57.834 85.7046C57.1048 85.078 56.182 84.7646 55.0654 84.7646C53.9147 84.7646 53.0146 85.0153 52.3652 85.5166C51.7158 86.0179 51.3911 86.673 51.3911 87.4819C51.3911 88.2453 51.693 88.8206 52.2969 89.208C52.9007 89.5954 53.9888 89.9657 55.561 90.3188C57.1447 90.672 58.4264 91.0936 59.4062 91.5835C60.3861 92.0734 61.1095 92.6659 61.5767 93.3608C62.0552 94.0444 62.2944 94.8818 62.2944 95.873C62.2944 97.5251 61.6336 98.8524 60.312 99.855C58.9904 100.846 57.2757 101.342 55.168 101.342C53.6868 101.342 52.3766 101.08 51.2373 100.556C50.098 100.032 49.2036 99.3024 48.5542 98.3682C47.9162 97.4225 47.5972 96.4028 47.5972 95.3091H50.7588C50.8158 96.3687 51.2373 97.2118 52.0234 97.8384C52.821 98.4536 53.8691 98.7612 55.168 98.7612C56.3643 98.7612 57.3213 98.522 58.0391 98.0435C58.7682 97.5535 59.1328 96.9041 59.1328 96.0952ZM71.5742 92.438L69.5918 94.5059V101H66.4302V74.75H69.5918V90.6265L71.2837 88.5928L77.043 82.5088H80.8882L73.6934 90.2334L81.7256 101H78.0171L71.5742 92.438ZM29.1914 198.104C28.8838 200.736 27.9097 202.77 26.269 204.206C24.6398 205.63 22.4694 206.342 19.7578 206.342C16.8184 206.342 14.46 205.288 12.6826 203.18C10.9167 201.072 10.0337 198.253 10.0337 194.721V192.328C10.0337 190.015 10.4438 187.982 11.2642 186.227C12.0959 184.472 13.2694 183.128 14.7847 182.194C16.3 181.248 18.0545 180.775 20.0483 180.775C22.6916 180.775 24.8107 181.516 26.4058 182.997C28.0008 184.467 28.9294 186.506 29.1914 189.115H25.8931C25.6082 187.133 24.9873 185.697 24.0303 184.809C23.0846 183.92 21.7573 183.476 20.0483 183.476C17.952 183.476 16.3057 184.25 15.1094 185.8C13.9245 187.349 13.332 189.554 13.332 192.414V194.823C13.332 197.523 13.896 199.671 15.0239 201.266C16.1519 202.861 17.7298 203.659 19.7578 203.659C21.5807 203.659 22.9764 203.249 23.9448 202.428C24.9246 201.597 25.5741 200.155 25.8931 198.104H29.1914ZM32.353 196.583C32.353 194.772 32.7062 193.143 33.4126 191.696C34.1304 190.249 35.1216 189.132 36.3862 188.346C37.6623 187.56 39.1149 187.167 40.7441 187.167C43.262 187.167 45.2957 188.039 46.8452 189.782C48.4061 191.525 49.1865 193.843 49.1865 196.737V196.959C49.1865 198.76 48.839 200.377 48.144 201.813C47.4604 203.237 46.4749 204.348 45.1875 205.146C43.9115 205.943 42.4417 206.342 40.7783 206.342C38.2718 206.342 36.2381 205.47 34.6772 203.727C33.1278 201.984 32.353 199.677 32.353 196.806V196.583ZM35.5317 196.959C35.5317 199.01 36.0046 200.657 36.9502 201.898C37.9072 203.14 39.1833 203.761 40.7783 203.761C42.3848 203.761 43.6608 203.135 44.6064 201.881C45.5521 200.617 46.0249 198.851 46.0249 196.583C46.0249 194.556 45.5407 192.915 44.5723 191.662C43.6152 190.397 42.3392 189.765 40.7441 189.765C39.1833 189.765 37.9243 190.386 36.9673 191.627C36.0103 192.869 35.5317 194.647 35.5317 196.959ZM56.1421 187.509L56.2446 189.833C57.6574 188.056 59.5031 187.167 61.7817 187.167C65.6896 187.167 67.6606 189.372 67.6948 193.781V206H64.5332V193.764C64.5218 192.431 64.2142 191.445 63.6104 190.807C63.0179 190.169 62.0894 189.85 60.8247 189.85C59.7993 189.85 58.8993 190.124 58.1245 190.67C57.3498 191.217 56.7459 191.935 56.313 192.824V206H53.1514V187.509H56.1421ZM76.7524 183.031V187.509H80.2046V189.953H76.7524V201.42C76.7524 202.16 76.9062 202.719 77.2139 203.095C77.5215 203.459 78.0456 203.642 78.7861 203.642C79.1507 203.642 79.652 203.573 80.29 203.437V206C79.4583 206.228 78.6494 206.342 77.8633 206.342C76.4505 206.342 75.3853 205.915 74.6675 205.06C73.9497 204.206 73.5908 202.992 73.5908 201.42V189.953H70.2241V187.509H73.5908V183.031H76.7524ZM92.8511 190.346C92.3726 190.266 91.8542 190.226 91.2959 190.226C89.2223 190.226 87.8153 191.109 87.0747 192.875V206H83.9131V187.509H86.9893L87.0405 189.645C88.0773 187.993 89.547 187.167 91.4497 187.167C92.0649 187.167 92.5321 187.247 92.8511 187.406V190.346ZM106.506 206C106.324 205.635 106.175 204.986 106.062 204.052C104.592 205.578 102.837 206.342 100.798 206.342C98.9749 206.342 97.4767 205.829 96.3032 204.804C95.1411 203.767 94.5601 202.457 94.5601 200.873C94.5601 198.948 95.2892 197.455 96.7476 196.396C98.2173 195.325 100.279 194.789 102.934 194.789H106.01V193.336C106.01 192.231 105.68 191.354 105.019 190.705C104.358 190.044 103.384 189.713 102.097 189.713C100.969 189.713 100.023 189.998 99.2598 190.568C98.4964 191.138 98.1147 191.827 98.1147 192.636H94.936C94.936 191.713 95.2607 190.824 95.9102 189.97C96.571 189.104 97.4596 188.42 98.5762 187.919C99.7041 187.418 100.94 187.167 102.285 187.167C104.415 187.167 106.084 187.702 107.292 188.773C108.5 189.833 109.126 191.297 109.172 193.166V201.676C109.172 203.374 109.388 204.724 109.821 205.727V206H106.506ZM101.259 203.59C102.25 203.59 103.19 203.334 104.079 202.821C104.968 202.309 105.611 201.642 106.01 200.822V197.028H103.532C99.6585 197.028 97.7217 198.161 97.7217 200.429C97.7217 201.42 98.0521 202.195 98.7129 202.753C99.3737 203.311 100.222 203.59 101.259 203.59ZM117.563 206H114.401V187.509H117.563V206ZM114.145 182.604C114.145 182.091 114.299 181.658 114.606 181.305C114.925 180.952 115.393 180.775 116.008 180.775C116.623 180.775 117.09 180.952 117.409 181.305C117.728 181.658 117.888 182.091 117.888 182.604C117.888 183.117 117.728 183.544 117.409 183.886C117.09 184.228 116.623 184.398 116.008 184.398C115.393 184.398 114.925 184.228 114.606 183.886C114.299 183.544 114.145 183.117 114.145 182.604ZM125.629 187.509L125.732 189.833C127.145 188.056 128.99 187.167 131.269 187.167C135.177 187.167 137.148 189.372 137.182 193.781V206H134.021V193.764C134.009 192.431 133.701 191.445 133.098 190.807C132.505 190.169 131.577 189.85 130.312 189.85C129.287 189.85 128.387 190.124 127.612 190.67C126.837 191.217 126.233 191.935 125.8 192.824V206H122.639V187.509H125.629ZM146.24 183.031V187.509H149.692V189.953H146.24V201.42C146.24 202.16 146.394 202.719 146.701 203.095C147.009 203.459 147.533 203.642 148.273 203.642C148.638 203.642 149.139 203.573 149.777 203.437V206C148.946 206.228 148.137 206.342 147.351 206.342C145.938 206.342 144.873 205.915 144.155 205.06C143.437 204.206 143.078 202.992 143.078 201.42V189.953H139.711V187.509H143.078V183.031H146.24ZM164.167 201.095C164.167 200.241 163.842 199.58 163.193 199.113C162.555 198.634 161.433 198.224 159.826 197.882C158.231 197.541 156.961 197.13 156.015 196.652C155.081 196.173 154.386 195.604 153.93 194.943C153.486 194.282 153.264 193.496 153.264 192.584C153.264 191.069 153.902 189.787 155.178 188.739C156.465 187.691 158.106 187.167 160.1 187.167C162.196 187.167 163.894 187.708 165.192 188.791C166.503 189.873 167.158 191.257 167.158 192.943H163.979C163.979 192.077 163.609 191.331 162.868 190.705C162.139 190.078 161.216 189.765 160.1 189.765C158.949 189.765 158.049 190.015 157.399 190.517C156.75 191.018 156.425 191.673 156.425 192.482C156.425 193.245 156.727 193.821 157.331 194.208C157.935 194.595 159.023 194.966 160.595 195.319C162.179 195.672 163.461 196.094 164.44 196.583C165.42 197.073 166.144 197.666 166.611 198.361C167.089 199.044 167.329 199.882 167.329 200.873C167.329 202.525 166.668 203.852 165.346 204.855C164.025 205.846 162.31 206.342 160.202 206.342C158.721 206.342 157.411 206.08 156.271 205.556C155.132 205.032 154.238 204.302 153.588 203.368C152.95 202.423 152.631 201.403 152.631 200.309H155.793C155.85 201.369 156.271 202.212 157.058 202.838C157.855 203.454 158.903 203.761 160.202 203.761C161.398 203.761 162.355 203.522 163.073 203.043C163.802 202.554 164.167 201.904 164.167 201.095Z" fill="#494C58"/>
</g>
<g filter="url(#filter2_d)">
<path d="M198.29 29.3423C198.29 28.7954 198.45 28.3397 198.769 27.9751C199.099 27.6105 199.589 27.4282 200.238 27.4282C200.888 27.4282 201.378 27.6105 201.708 27.9751C202.05 28.3397 202.221 28.7954 202.221 29.3423C202.221 29.8664 202.05 30.305 201.708 30.6582C201.378 31.0114 200.888 31.188 200.238 31.188C199.589 31.188 199.099 31.0114 198.769 30.6582C198.45 30.305 198.29 29.8664 198.29 29.3423ZM198.307 14.252C198.307 13.7051 198.467 13.2493 198.786 12.8848C199.116 12.5202 199.606 12.3379 200.255 12.3379C200.905 12.3379 201.395 12.5202 201.725 12.8848C202.067 13.2493 202.238 13.7051 202.238 14.252C202.238 14.776 202.067 15.2147 201.725 15.5679C201.395 15.9211 200.905 16.0977 200.255 16.0977C199.606 16.0977 199.116 15.9211 198.786 15.5679C198.467 15.2147 198.307 14.776 198.307 14.252ZM198.29 99.3423C198.29 98.7954 198.45 98.3397 198.769 97.9751C199.099 97.6105 199.589 97.4282 200.238 97.4282C200.888 97.4282 201.378 97.6105 201.708 97.9751C202.05 98.3397 202.221 98.7954 202.221 99.3423C202.221 99.8664 202.05 100.305 201.708 100.658C201.378 101.011 200.888 101.188 200.238 101.188C199.589 101.188 199.099 101.011 198.769 100.658C198.45 100.305 198.29 99.8664 198.29 99.3423ZM198.307 84.252C198.307 83.7051 198.467 83.2493 198.786 82.8848C199.116 82.5202 199.606 82.3379 200.255 82.3379C200.905 82.3379 201.395 82.5202 201.725 82.8848C202.067 83.2493 202.238 83.7051 202.238 84.252C202.238 84.776 202.067 85.2147 201.725 85.5679C201.395 85.9211 200.905 86.0977 200.255 86.0977C199.606 86.0977 199.116 85.9211 198.786 85.5679C198.467 85.2147 198.307 84.776 198.307 84.252ZM198.29 204.342C198.29 203.795 198.45 203.34 198.769 202.975C199.099 202.611 199.589 202.428 200.238 202.428C200.888 202.428 201.378 202.611 201.708 202.975C202.05 203.34 202.221 203.795 202.221 204.342C202.221 204.866 202.05 205.305 201.708 205.658C201.378 206.011 200.888 206.188 200.238 206.188C199.589 206.188 199.099 206.011 198.769 205.658C198.45 205.305 198.29 204.866 198.29 204.342ZM198.307 189.252C198.307 188.705 198.467 188.249 198.786 187.885C199.116 187.52 199.606 187.338 200.255 187.338C200.905 187.338 201.395 187.52 201.725 187.885C202.067 188.249 202.238 188.705 202.238 189.252C202.238 189.776 202.067 190.215 201.725 190.568C201.395 190.921 200.905 191.098 200.255 191.098C199.606 191.098 199.116 190.921 198.786 190.568C198.467 190.215 198.307 189.776 198.307 189.252Z" fill="#494C58"/>
</g>
<defs>
<filter id="filter0_d" x="221.094" y="0.391113" width="826.161" height="260.077" filterUnits="userSpaceOnUse" color-interpolation-filters="sRGB">
<feFlood flood-opacity="0" result="BackgroundImageFix"/>
<feColorMatrix in="SourceAlpha" type="matrix" values="0 0 0 0 0 0 0 0 0 0 0 0 0 0 0 0 0 0 127 0"/>
<feOffset dy="4"/>
<feGaussianBlur stdDeviation="4"/>
<feColorMatrix type="matrix" values="0 0 0 0 0.114792 0 0 0 0 0.126667 0 0 0 0 0.158333 0 0 0 1 0"/>
<feBlend mode="normal" in2="BackgroundImageFix" result="effect1_dropShadow"/>
<feBlend mode="normal" in="SourceGraphic" in2="effect1_dropShadow" result="shape"/>
</filter>
<filter id="filter1_d" x="0.837402" y="2.11719" width="174.491" height="216.225" filterUnits="userSpaceOnUse" color-interpolation-filters="sRGB">
<feFlood flood-opacity="0" result="BackgroundImageFix"/>
<feColorMatrix in="SourceAlpha" type="matrix" values="0 0 0 0 0 0 0 0 0 0 0 0 0 0 0 0 0 0 127 0"/>
<feOffset dy="4"/>
<feGaussianBlur stdDeviation="4"/>
<feColorMatrix type="matrix" values="0 0 0 0 0.114792 0 0 0 0 0.126667 0 0 0 0 0.158333 0 0 0 1 0"/>
<feBlend mode="normal" in2="BackgroundImageFix" result="effect1_dropShadow"/>
<feBlend mode="normal" in="SourceGraphic" in2="effect1_dropShadow" result="shape"/>
</filter>
<filter id="filter2_d" x="190.29" y="8.33789" width="19.9478" height="209.85" filterUnits="userSpaceOnUse" color-interpolation-filters="sRGB">
<feFlood flood-opacity="0" result="BackgroundImageFix"/>
<feColorMatrix in="SourceAlpha" type="matrix" values="0 0 0 0 0 0 0 0 0 0 0 0 0 0 0 0 0 0 127 0"/>
<feOffset dy="4"/>
<feGaussianBlur stdDeviation="4"/>
<feColorMatrix type="matrix" values="0 0 0 0 0.149722 0 0 0 0 0.164571 0 0 0 0 0.204167 0 0 0 1 0"/>
<feBlend mode="normal" in2="BackgroundImageFix" result="effect1_dropShadow"/>
<feBlend mode="normal" in="SourceGraphic" in2="effect1_dropShadow" result="shape"/>
</filter>
</defs>
</svg>
