<svg width="139" height="53" viewBox="0 0 139 53" fill="none" xmlns="http://www.w3.org/2000/svg">
<path fill-rule="evenodd" clip-rule="evenodd" d="M29.3367 26.1958C30.0207 26.7935 30.0206 27.8571 29.3367 28.4548L14.207 41.6771C13.237 42.5248 11.72 41.8359 11.72 40.5476V14.103C11.72 12.8147 13.237 12.1258 14.207 12.9736L29.3367 26.1958ZM16.942 27.1075C16.942 28.0689 16.1626 28.8483 15.2011 28.8483C14.2397 28.8483 13.4603 28.0689 13.4603 27.1075C13.4603 26.1461 14.2397 25.3667 15.2011 25.3667C16.1626 25.3667 16.942 26.1461 16.942 27.1075ZM21.7299 28.8483C22.6914 28.8483 23.4708 28.0689 23.4708 27.1075C23.4708 26.1461 22.6914 25.3667 21.7299 25.3667C20.7685 25.3667 19.9891 26.1461 19.9891 27.1075C19.9891 28.0689 20.7685 28.8483 21.7299 28.8483ZM16.942 19.7619C16.942 20.7192 16.1626 21.4952 15.2011 21.4952C14.2397 21.4952 13.4603 20.7192 13.4603 19.7619C13.4603 18.8046 14.2397 18.0285 15.2011 18.0285C16.1626 18.0285 16.942 18.8046 16.942 19.7619ZM15.2011 36.622C16.1626 36.622 16.942 35.8426 16.942 34.8811C16.942 33.9197 16.1626 33.1403 15.2011 33.1403C14.2397 33.1403 13.4603 33.9197 13.4603 34.8811C13.4603 35.8426 14.2397 36.622 15.2011 36.622ZM6.52832 27.1075C6.52832 28.069 7.30772 28.8484 8.26917 28.8484C9.23061 28.8484 10.01 28.069 10.01 27.1075C10.01 26.1461 9.23061 25.3667 8.26917 25.3667C7.30772 25.3667 6.52832 26.1461 6.52832 27.1075ZM1.74084 28.8484C0.779403 28.8484 0 28.069 0 27.1075C0 26.1461 0.779403 25.3667 1.74084 25.3667C2.70229 25.3667 3.48169 26.1461 3.48169 27.1075C3.48169 28.069 2.70229 28.8484 1.74084 28.8484ZM6.52832 19.7619C6.52832 20.7192 7.30772 21.4952 8.26917 21.4952C9.23061 21.4952 10.01 20.7192 10.01 19.7619C10.01 18.8046 9.23061 18.0286 8.26917 18.0286C7.30772 18.0286 6.52832 18.8046 6.52832 19.7619ZM8.26917 36.6221C7.30772 36.6221 6.52832 35.8427 6.52832 34.8812C6.52832 33.9198 7.30772 33.1404 8.26917 33.1404C9.23061 33.1404 10.01 33.9198 10.01 34.8812C10.01 35.8427 9.23061 36.6221 8.26917 36.6221Z" fill="#5E5E5E"/>
<path d="M64.4302 32.31C64.6902 32.31 64.8902 32.43 65.0302 32.67C65.1902 32.91 65.2702 33.24 65.2702 33.66C65.2702 34.44 65.0802 35.06 64.7002 35.52C63.7402 36.68 62.7702 37.58 61.7902 38.22C60.8102 38.84 59.6502 39.15 58.3102 39.15C57.0102 39.15 55.9002 38.8 54.9802 38.1C54.0802 37.4 53.2202 36.2 52.4002 34.5C51.7402 33.14 51.2202 32.14 50.8402 31.5C50.4602 30.84 50.0802 30.37 49.7002 30.09C49.3402 29.81 48.8902 29.64 48.3502 29.58C48.2702 30 48.0402 31.32 47.6602 33.54C47.5002 34.54 47.4002 35.15 47.3602 35.37C47.1602 36.59 46.7602 37.53 46.1602 38.19C45.5602 38.83 44.6502 39.15 43.4302 39.15C42.0902 39.15 40.9002 38.76 39.8602 37.98C38.8402 37.18 38.0502 36.08 37.4902 34.68C36.9302 33.26 36.6502 31.65 36.6502 29.85C36.6502 26.49 37.2302 23.59 38.3902 21.15C39.5702 18.71 41.2102 16.85 43.3102 15.57C45.4302 14.27 47.8702 13.62 50.6302 13.62C52.5502 13.62 54.1602 13.91 55.4602 14.49C56.7602 15.07 57.7202 15.87 58.3402 16.89C58.9802 17.91 59.3002 19.06 59.3002 20.34C59.3002 21.46 59.0302 22.56 58.4902 23.64C57.9702 24.7 57.1802 25.64 56.1202 26.46C55.0602 27.28 53.7702 27.89 52.2502 28.29C53.2102 28.55 53.9502 28.97 54.4702 29.55C54.9902 30.13 55.5102 30.98 56.0302 32.1C56.5902 33.3 57.1402 34.18 57.6802 34.74C58.2402 35.3 58.8802 35.58 59.6002 35.58C60.2402 35.58 60.8502 35.37 61.4302 34.95C62.0102 34.51 62.7402 33.77 63.6202 32.73C63.8602 32.45 64.1302 32.31 64.4302 32.31ZM44.2102 29.55C43.5302 29.55 43.0602 29.39 42.8002 29.07C42.5602 28.75 42.4402 28.39 42.4402 27.99C42.4402 27.51 42.5902 27.13 42.8902 26.85C43.2102 26.57 43.5702 26.43 43.9702 26.43H44.7202C45.0402 24.47 45.3402 22.78 45.6202 21.36C45.8802 20.06 46.7202 19.41 48.1402 19.41C49.2802 19.41 49.8502 19.92 49.8502 20.94C49.8502 21.16 49.8402 21.33 49.8202 21.45L48.9202 26.43C50.0002 26.37 50.9802 26.11 51.8602 25.65C52.7602 25.19 53.4702 24.55 53.9902 23.73C54.5302 22.91 54.8002 21.98 54.8002 20.94C54.8002 19.68 54.3702 18.69 53.5102 17.97C52.6502 17.25 51.3902 16.89 49.7302 16.89C47.7702 16.89 46.0502 17.38 44.5702 18.36C43.1102 19.32 41.9702 20.76 41.1502 22.68C40.3302 24.58 39.9202 26.9 39.9202 29.64C39.9202 30.92 40.0502 32.02 40.3102 32.94C40.5702 33.86 40.8902 34.55 41.2702 35.01C41.6502 35.47 42.0102 35.7 42.3502 35.7C42.6102 35.7 42.8202 35.57 42.9802 35.31C43.1602 35.05 43.3002 34.63 43.4002 34.05L44.2102 29.55ZM75.6308 32.31C75.8908 32.31 76.0908 32.43 76.2308 32.67C76.3908 32.91 76.4708 33.24 76.4708 33.66C76.4708 34.46 76.2808 35.08 75.9008 35.52C75.1608 36.42 74.1108 37.25 72.7508 38.01C71.4108 38.77 69.9708 39.15 68.4308 39.15C66.3308 39.15 64.7008 38.58 63.5408 37.44C62.3808 36.3 61.8008 34.74 61.8008 32.76C61.8008 31.38 62.0908 30.1 62.6708 28.92C63.2508 27.72 64.0508 26.77 65.0708 26.07C66.1108 25.37 67.2808 25.02 68.5808 25.02C69.7408 25.02 70.6708 25.37 71.3708 26.07C72.0708 26.75 72.4208 27.68 72.4208 28.86C72.4208 30.24 71.9208 31.43 70.9208 32.43C69.9408 33.41 68.2708 34.19 65.9108 34.77C66.4108 35.69 67.3608 36.15 68.7608 36.15C69.6608 36.15 70.6808 35.84 71.8208 35.22C72.9808 34.58 73.9808 33.75 74.8208 32.73C75.0608 32.45 75.3308 32.31 75.6308 32.31ZM68.0708 27.96C67.3308 27.96 66.7008 28.39 66.1808 29.25C65.6808 30.11 65.4308 31.15 65.4308 32.37V32.43C66.6108 32.15 67.5408 31.73 68.2208 31.17C68.9008 30.61 69.2408 29.96 69.2408 29.22C69.2408 28.84 69.1308 28.54 68.9108 28.32C68.7108 28.08 68.4308 27.96 68.0708 27.96ZM77.5717 39.15C76.3317 39.15 75.3417 38.7 74.6017 37.8C73.8617 36.9 73.4917 35.72 73.4917 34.26C73.4917 32.66 73.8617 31.15 74.6017 29.73C75.3417 28.29 76.3217 27.14 77.5417 26.28C78.7817 25.4 80.0917 24.96 81.4717 24.96C81.9117 24.96 82.2017 25.05 82.3417 25.23C82.5017 25.39 82.6317 25.69 82.7317 26.13C83.1517 26.05 83.5917 26.01 84.0517 26.01C85.0317 26.01 85.5217 26.36 85.5217 27.06C85.5217 27.48 85.3717 28.48 85.0717 30.06C84.6117 32.36 84.3817 33.96 84.3817 34.86C84.3817 35.16 84.4517 35.4 84.5917 35.58C84.7517 35.76 84.9517 35.85 85.1917 35.85C85.5717 35.85 86.0317 35.61 86.5717 35.13C87.1117 34.63 87.8417 33.83 88.7617 32.73C89.0017 32.45 89.2717 32.31 89.5717 32.31C89.8317 32.31 90.0317 32.43 90.1717 32.67C90.3317 32.91 90.4117 33.24 90.4117 33.66C90.4117 34.46 90.2217 35.08 89.8417 35.52C89.0217 36.54 88.1517 37.4 87.2317 38.1C86.3117 38.8 85.4217 39.15 84.5617 39.15C83.9017 39.15 83.2917 38.93 82.7317 38.49C82.1917 38.03 81.7817 37.41 81.5017 36.63C80.4617 38.31 79.1517 39.15 77.5717 39.15ZM78.6517 36.12C79.0917 36.12 79.5117 35.86 79.9117 35.34C80.3117 34.82 80.6017 34.13 80.7817 33.27L81.8917 27.75C81.0517 27.77 80.2717 28.09 79.5517 28.71C78.8517 29.31 78.2917 30.11 77.8717 31.11C77.4517 32.11 77.2417 33.17 77.2417 34.29C77.2417 34.91 77.3617 35.37 77.6017 35.67C77.8617 35.97 78.2117 36.12 78.6517 36.12ZM90.1034 39.15C89.3434 39.15 88.8034 38.75 88.4834 37.95C88.1834 37.15 88.0334 35.87 88.0334 34.11C88.0334 31.51 88.4034 29.04 89.1434 26.7C89.3234 26.12 89.6134 25.7 90.0134 25.44C90.4334 25.16 91.0134 25.02 91.7534 25.02C92.1534 25.02 92.4334 25.07 92.5934 25.17C92.7534 25.27 92.8334 25.46 92.8334 25.74C92.8334 26.06 92.6834 26.78 92.3834 27.9C92.1834 28.7 92.0234 29.4 91.9034 30C91.7834 30.6 91.6834 31.34 91.6034 32.22C92.2634 30.5 93.0034 29.1 93.8234 28.02C94.6434 26.94 95.4434 26.17 96.2234 25.71C97.0234 25.25 97.7534 25.02 98.4134 25.02C99.7134 25.02 100.363 25.67 100.363 26.97C100.363 27.75 100.143 29.16 99.7034 31.2C99.3234 32.94 99.1334 34.09 99.1334 34.65C99.1334 35.45 99.4234 35.85 100.003 35.85C100.403 35.85 100.873 35.61 101.413 35.13C101.973 34.63 102.713 33.83 103.633 32.73C103.873 32.45 104.143 32.31 104.443 32.31C104.703 32.31 104.903 32.43 105.043 32.67C105.203 32.91 105.283 33.24 105.283 33.66C105.283 34.46 105.093 35.08 104.713 35.52C103.853 36.58 102.923 37.45 101.923 38.13C100.943 38.81 99.8234 39.15 98.5634 39.15C97.5434 39.15 96.7734 38.86 96.2534 38.28C95.7334 37.68 95.4734 36.82 95.4734 35.7C95.4734 35.14 95.6134 34.14 95.8934 32.7C96.1534 31.44 96.2834 30.57 96.2834 30.09C96.2834 29.77 96.1734 29.61 95.9534 29.61C95.6934 29.61 95.3234 29.95 94.8434 30.63C94.3834 31.29 93.9034 32.17 93.4034 33.27C92.9234 34.37 92.5334 35.53 92.2334 36.75C92.0134 37.69 91.7534 38.33 91.4534 38.67C91.1734 38.99 90.7234 39.15 90.1034 39.15ZM118.216 32.37C118.476 32.37 118.676 32.5 118.816 32.76C118.976 33 119.056 33.31 119.056 33.69C119.056 34.15 118.986 34.51 118.846 34.77C118.706 35.03 118.486 35.26 118.186 35.46C116.466 36.62 115.206 37.48 114.406 38.04L112.486 39.33C111.726 43.47 110.726 46.72 109.486 49.08C108.266 51.46 106.706 52.65 104.806 52.65C103.786 52.65 102.956 52.33 102.316 51.69C101.676 51.07 101.356 50.25 101.356 49.23C101.356 47.81 101.916 46.28 103.036 44.64C104.156 43.02 106.256 41.02 109.336 38.64L109.516 37.47C109.176 38.01 108.726 38.43 108.166 38.73C107.626 39.01 107.086 39.15 106.546 39.15C105.306 39.15 104.316 38.7 103.576 37.8C102.836 36.9 102.466 35.72 102.466 34.26C102.466 32.66 102.836 31.15 103.576 29.73C104.316 28.29 105.296 27.14 106.516 26.28C107.756 25.4 109.066 24.96 110.446 24.96C110.886 24.96 111.176 25.05 111.316 25.23C111.476 25.39 111.606 25.69 111.706 26.13C112.086 26.05 112.526 26.01 113.026 26.01C113.526 26.01 113.876 26.09 114.076 26.25C114.296 26.39 114.406 26.68 114.406 27.12C114.406 27.36 114.396 27.55 114.376 27.69C114.296 28.31 114.046 29.88 113.626 32.4C113.546 32.88 113.456 33.41 113.356 33.99C113.276 34.55 113.186 35.15 113.086 35.79C114.626 34.59 116.106 33.53 117.526 32.61C117.786 32.45 118.016 32.37 118.216 32.37ZM107.626 36.12C108.086 36.12 108.526 35.84 108.946 35.28C109.366 34.72 109.666 33.92 109.846 32.88L110.806 27.75C109.986 27.77 109.226 28.09 108.526 28.71C107.826 29.31 107.266 30.11 106.846 31.11C106.426 32.11 106.216 33.17 106.216 34.29C106.216 34.91 106.336 35.37 106.576 35.67C106.836 35.97 107.186 36.12 107.626 36.12ZM105.136 49.74C105.636 49.74 106.196 49.14 106.816 47.94C107.456 46.74 108.066 44.83 108.646 42.21C107.106 43.53 105.996 44.72 105.316 45.78C104.636 46.84 104.296 47.77 104.296 48.57C104.296 48.91 104.356 49.19 104.476 49.41C104.616 49.63 104.836 49.74 105.136 49.74ZM128.582 32.31C128.842 32.31 129.042 32.43 129.182 32.67C129.342 32.91 129.422 33.24 129.422 33.66C129.422 34.46 129.232 35.08 128.852 35.52C127.992 36.58 127.052 37.45 126.032 38.13C125.032 38.81 123.892 39.15 122.612 39.15C120.852 39.15 119.542 38.35 118.682 36.75C117.842 35.15 117.422 33.08 117.422 30.54C117.422 28.1 117.732 25.32 118.352 22.2C118.992 19.08 119.922 16.4 121.142 14.16C122.382 11.92 123.852 10.8 125.552 10.8C126.512 10.8 127.262 11.25 127.802 12.15C128.362 13.03 128.642 14.3 128.642 15.96C128.642 18.34 127.982 21.1 126.662 24.24C125.342 27.38 123.552 30.49 121.292 33.57C121.432 34.39 121.662 34.98 121.982 35.34C122.302 35.68 122.722 35.85 123.242 35.85C124.062 35.85 124.782 35.62 125.402 35.16C126.022 34.68 126.812 33.87 127.772 32.73C128.012 32.45 128.282 32.31 128.582 32.31ZM124.892 13.77C124.432 13.77 123.912 14.6 123.332 16.26C122.752 17.92 122.242 19.98 121.802 22.44C121.362 24.9 121.122 27.26 121.082 29.52C122.502 27.18 123.632 24.84 124.472 22.5C125.312 20.14 125.732 17.99 125.732 16.05C125.732 14.53 125.452 13.77 124.892 13.77ZM137.737 33.21C137.997 33.21 138.197 33.33 138.337 33.57C138.497 33.81 138.577 34.14 138.577 34.56C138.577 35.28 138.407 35.9 138.067 36.42C137.507 37.28 136.767 37.95 135.847 38.43C134.947 38.91 133.867 39.15 132.607 39.15C130.687 39.15 129.197 38.58 128.137 37.44C127.077 36.28 126.547 34.72 126.547 32.76C126.547 31.38 126.837 30.1 127.417 28.92C127.997 27.72 128.797 26.77 129.817 26.07C130.857 25.37 132.027 25.02 133.327 25.02C134.487 25.02 135.417 25.37 136.117 26.07C136.817 26.75 137.167 27.68 137.167 28.86C137.167 30.24 136.667 31.43 135.667 32.43C134.687 33.41 133.007 34.19 130.627 34.77C131.107 35.69 131.917 36.15 133.057 36.15C133.877 36.15 134.547 35.96 135.067 35.58C135.607 35.2 136.227 34.56 136.927 33.66C137.167 33.36 137.437 33.21 137.737 33.21ZM132.817 27.96C132.077 27.96 131.447 28.39 130.927 29.25C130.427 30.11 130.177 31.15 130.177 32.37V32.43C131.357 32.15 132.287 31.73 132.967 31.17C133.647 30.61 133.987 29.96 133.987 29.22C133.987 28.84 133.877 28.54 133.657 28.32C133.457 28.08 133.177 27.96 132.817 27.96Z" fill="#5E5E5E"/>
</svg>
