<svg width="289" height="209" viewBox="0 0 289 209" fill="none" xmlns="http://www.w3.org/2000/svg">
<path fill-rule="evenodd" clip-rule="evenodd" d="M45 0C20.1472 0 0 20.1472 0 45V124C0 148.853 20.1472 169 45 169H68L30.5 209L109.5 169H244C268.853 169 289 148.853 289 124V45C289 20.1472 268.853 0 244 0H45Z" fill="#5D6172"/>
<g filter="url(#filter0_d)">
<path d="M52.3174 53H49.5845V43.4702H39.1909V53H36.4722V32.3828H39.1909V41.2471H49.5845V32.3828H52.3174V53ZM63.0933 53.2832C61.0164 53.2832 59.3267 52.6035 58.0239 51.2441C56.7212 49.8753 56.0698 48.0487 56.0698 45.7642V45.2827C56.0698 43.7629 56.3577 42.4082 56.9336 41.2188C57.5189 40.0199 58.3307 39.0853 59.3691 38.415C60.417 37.7354 61.5498 37.3955 62.7676 37.3955C64.7594 37.3955 66.3076 38.0516 67.4121 39.3638C68.5166 40.6759 69.0688 42.5545 69.0688 44.9995V46.0898H58.6895C58.7272 47.6003 59.1662 48.8228 60.0063 49.7573C60.856 50.6825 61.9321 51.145 63.2349 51.145C64.16 51.145 64.9435 50.9562 65.5854 50.5786C66.2274 50.201 66.7891 49.7007 67.2705 49.0776L68.8706 50.3237C67.5868 52.2967 65.661 53.2832 63.0933 53.2832ZM62.7676 39.5479C61.7103 39.5479 60.8229 39.9349 60.1055 40.709C59.388 41.4736 58.9443 42.5498 58.7744 43.9375H66.4492V43.7393C66.3737 42.4082 66.015 41.3792 65.373 40.6523C64.7311 39.916 63.8626 39.5479 62.7676 39.5479ZM76.9277 49.1626L80.4961 37.6787H83.2998L77.1401 55.3647C76.1867 57.9136 74.6715 59.188 72.5947 59.188L72.0991 59.1455L71.1221 58.9614V56.8374L71.8301 56.894C72.7174 56.894 73.4066 56.7147 73.8975 56.356C74.3978 55.9972 74.8084 55.3411 75.1294 54.3877L75.71 52.8301L70.2441 37.6787H73.1045L76.9277 49.1626ZM84.0361 57.1064L82.5493 56.0869C83.4367 54.8503 83.8993 53.5758 83.937 52.2637V49.8989H86.5V51.9521C86.5 52.9056 86.264 53.859 85.792 54.8125C85.3294 55.766 84.7441 56.5306 84.0361 57.1064ZM100.334 53H97.6157V32.3828H100.334V53ZM121.561 53C121.41 52.6979 121.287 52.1598 121.192 51.3857C119.975 52.6507 118.521 53.2832 116.831 53.2832C115.321 53.2832 114.079 52.8584 113.107 52.0088C112.144 51.1497 111.663 50.0641 111.663 48.752C111.663 47.1566 112.267 45.9199 113.475 45.042C114.693 44.1546 116.402 43.7109 118.601 43.7109H121.15V42.5073C121.15 41.5916 120.876 40.8647 120.329 40.3267C119.781 39.7791 118.974 39.5054 117.907 39.5054C116.973 39.5054 116.189 39.7414 115.557 40.2134C114.924 40.6854 114.608 41.2565 114.608 41.9268H111.974C111.974 41.1621 112.243 40.4258 112.781 39.7178C113.329 39.0003 114.065 38.4339 114.99 38.0186C115.925 37.6032 116.949 37.3955 118.063 37.3955C119.828 37.3955 121.211 37.8392 122.212 38.7266C123.213 39.6045 123.732 40.8175 123.77 42.3657V49.4175C123.77 50.8241 123.949 51.9427 124.308 52.7734V53H121.561ZM117.213 51.0034C118.035 51.0034 118.813 50.791 119.55 50.3662C120.286 49.9414 120.819 49.3892 121.15 48.7095V45.5659H119.097C115.887 45.5659 114.282 46.5052 114.282 48.3838C114.282 49.2051 114.556 49.847 115.104 50.3096C115.651 50.7721 116.354 51.0034 117.213 51.0034ZM130.34 37.6787L130.411 39.3779C131.534 38.0563 133.049 37.3955 134.956 37.3955C137.099 37.3955 138.557 38.2168 139.332 39.8594C139.841 39.123 140.502 38.5283 141.314 38.0752C142.135 37.6221 143.103 37.3955 144.217 37.3955C147.577 37.3955 149.286 39.175 149.343 42.7339V53H146.723V42.8896C146.723 41.7946 146.473 40.978 145.973 40.4399C145.472 39.8924 144.632 39.6187 143.452 39.6187C142.48 39.6187 141.673 39.9113 141.031 40.4966C140.389 41.0724 140.016 41.8512 139.912 42.833V53H137.278V42.9604C137.278 40.7326 136.188 39.6187 134.007 39.6187C132.289 39.6187 131.114 40.3503 130.481 41.8135V53H127.862V37.6787H130.34ZM163.121 39.5337C164.282 38.1082 165.792 37.3955 167.652 37.3955C170.89 37.3955 172.523 39.2222 172.551 42.8755V53H169.932V42.8613C169.922 41.7568 169.667 40.9403 169.167 40.4116C168.676 39.883 167.907 39.6187 166.859 39.6187C166.009 39.6187 165.264 39.8452 164.622 40.2983C163.98 40.7515 163.479 41.3462 163.121 42.0825V53H160.501V31.25H163.121V39.5337ZM182.832 53.2832C180.755 53.2832 179.065 52.6035 177.762 51.2441C176.459 49.8753 175.808 48.0487 175.808 45.7642V45.2827C175.808 43.7629 176.096 42.4082 176.672 41.2188C177.257 40.0199 178.069 39.0853 179.107 38.415C180.155 37.7354 181.288 37.3955 182.506 37.3955C184.498 37.3955 186.046 38.0516 187.15 39.3638C188.255 40.6759 188.807 42.5545 188.807 44.9995V46.0898H178.428C178.465 47.6003 178.904 48.8228 179.745 49.7573C180.594 50.6825 181.67 51.145 182.973 51.145C183.898 51.145 184.682 50.9562 185.324 50.5786C185.966 50.201 186.527 49.7007 187.009 49.0776L188.609 50.3237C187.325 52.2967 185.399 53.2832 182.832 53.2832ZM182.506 39.5479C181.449 39.5479 180.561 39.9349 179.844 40.709C179.126 41.4736 178.683 42.5498 178.513 43.9375H186.188V43.7393C186.112 42.4082 185.753 41.3792 185.111 40.6523C184.469 39.916 183.601 39.5479 182.506 39.5479ZM199.257 40.0293C198.861 39.9632 198.431 39.9302 197.969 39.9302C196.251 39.9302 195.085 40.6618 194.471 42.125V53H191.852V37.6787H194.4L194.443 39.4487C195.302 38.0799 196.52 37.3955 198.096 37.3955C198.606 37.3955 198.993 37.4616 199.257 37.5938V40.0293ZM207.753 53.2832C205.677 53.2832 203.987 52.6035 202.684 51.2441C201.381 49.8753 200.73 48.0487 200.73 45.7642V45.2827C200.73 43.7629 201.018 42.4082 201.594 41.2188C202.179 40.0199 202.991 39.0853 204.029 38.415C205.077 37.7354 206.21 37.3955 207.428 37.3955C209.42 37.3955 210.968 38.0516 212.072 39.3638C213.177 40.6759 213.729 42.5545 213.729 44.9995V46.0898H203.35C203.387 47.6003 203.826 48.8228 204.667 49.7573C205.516 50.6825 206.592 51.145 207.895 51.145C208.82 51.145 209.604 50.9562 210.246 50.5786C210.888 50.201 211.449 49.7007 211.931 49.0776L213.531 50.3237C212.247 52.2967 210.321 53.2832 207.753 53.2832ZM207.428 39.5479C206.37 39.5479 205.483 39.9349 204.766 40.709C204.048 41.4736 203.604 42.5498 203.435 43.9375H211.109V43.7393C211.034 42.4082 210.675 41.3792 210.033 40.6523C209.391 39.916 208.523 39.5479 207.428 39.5479ZM227.521 33.9688V37.6787H230.381V39.7036H227.521V49.2051C227.521 49.8187 227.648 50.2812 227.903 50.5928C228.158 50.8949 228.592 51.0459 229.206 51.0459C229.508 51.0459 229.924 50.9893 230.452 50.876V53C229.763 53.1888 229.093 53.2832 228.441 53.2832C227.271 53.2832 226.388 52.9292 225.793 52.2212C225.199 51.5132 224.901 50.5078 224.901 49.2051V39.7036H222.112V37.6787H224.901V33.9688H227.521ZM232.477 45.1978C232.477 43.6968 232.77 42.3468 233.355 41.1479C233.95 39.9491 234.771 39.0239 235.819 38.3726C236.876 37.7212 238.08 37.3955 239.43 37.3955C241.516 37.3955 243.201 38.1177 244.485 39.562C245.778 41.0063 246.425 42.9274 246.425 45.3252V45.5093C246.425 47.0008 246.137 48.3413 245.561 49.5308C244.995 50.7108 244.178 51.6312 243.111 52.292C242.054 52.9528 240.836 53.2832 239.458 53.2832C237.381 53.2832 235.696 52.561 234.403 51.1167C233.119 49.6724 232.477 47.7607 232.477 45.3818V45.1978ZM235.111 45.5093C235.111 47.2085 235.503 48.5726 236.286 49.6016C237.079 50.6305 238.136 51.145 239.458 51.145C240.789 51.145 241.846 50.6258 242.63 49.5874C243.413 48.5396 243.805 47.0763 243.805 45.1978C243.805 43.5174 243.404 42.158 242.602 41.1196C241.809 40.0718 240.751 39.5479 239.43 39.5479C238.136 39.5479 237.093 40.0623 236.3 41.0913C235.507 42.1203 235.111 43.5929 235.111 45.5093ZM92.1499 95H89.417V85.4702H79.0234V95H76.3047V74.3828H79.0234V83.2471H89.417V74.3828H92.1499V95ZM108.632 85.4702H99.6973V92.7769H110.077V95H96.9785V74.3828H109.935V76.6201H99.6973V83.2471H108.632V85.4702ZM116.194 92.7769H125.964V95H113.461V74.3828H116.194V92.7769ZM131.784 86.9287V95H129.065V74.3828H136.669C138.926 74.3828 140.691 74.9587 141.965 76.1104C143.249 77.262 143.891 78.7866 143.891 80.6841C143.891 82.6854 143.263 84.2288 142.008 85.3145C140.762 86.3906 138.973 86.9287 136.641 86.9287H131.784ZM131.784 84.7056H136.669C138.123 84.7056 139.237 84.3657 140.011 83.686C140.785 82.9969 141.172 82.0057 141.172 80.7124C141.172 79.4852 140.785 78.5034 140.011 77.7671C139.237 77.0308 138.175 76.6484 136.825 76.6201H131.784V84.7056ZM160.841 84.7339L166.222 74.3828H169.309L162.2 87.311V95H159.481V87.311L152.373 74.3828H155.488L160.841 84.7339ZM187.405 85.3569C187.405 87.3771 187.065 89.1424 186.386 90.6528C185.706 92.1538 184.743 93.3008 183.497 94.0938C182.251 94.8867 180.797 95.2832 179.136 95.2832C177.512 95.2832 176.072 94.8867 174.817 94.0938C173.561 93.2913 172.584 92.1538 171.886 90.6812C171.197 89.1991 170.843 87.4857 170.824 85.541V84.0542C170.824 82.0718 171.168 80.3206 171.857 78.8008C172.547 77.2809 173.519 76.1198 174.774 75.3174C176.039 74.5055 177.484 74.0996 179.107 74.0996C180.759 74.0996 182.213 74.5008 183.469 75.3032C184.734 76.0962 185.706 77.2526 186.386 78.7725C187.065 80.2829 187.405 82.0435 187.405 84.0542V85.3569ZM184.701 84.0259C184.701 81.5809 184.21 79.707 183.228 78.4043C182.246 77.0921 180.873 76.436 179.107 76.436C177.389 76.436 176.035 77.0921 175.043 78.4043C174.062 79.707 173.557 81.5195 173.528 83.8418V85.3569C173.528 87.7264 174.024 89.5908 175.015 90.9502C176.016 92.3001 177.389 92.9751 179.136 92.9751C180.892 92.9751 182.251 92.3379 183.214 91.0635C184.177 89.7796 184.672 87.9435 184.701 85.5552V84.0259ZM205.998 74.3828V88.4014C205.988 90.346 205.375 91.9367 204.157 93.1733C202.948 94.41 201.306 95.1038 199.229 95.2549L198.507 95.2832C196.251 95.2832 194.452 94.6743 193.112 93.4565C191.771 92.2388 191.092 90.5632 191.073 88.4297V74.3828H193.763V88.3447C193.763 89.8363 194.174 90.9974 194.995 91.8281C195.816 92.6494 196.987 93.0601 198.507 93.0601C200.046 93.0601 201.221 92.6494 202.033 91.8281C202.854 91.0068 203.265 89.8504 203.265 88.3589V74.3828H205.998ZM45.9736 133.389L48.9189 121.679H51.5386L47.0781 137H44.9541L41.23 125.389L37.605 137H35.481L31.0347 121.679H33.6401L36.6562 133.148L40.2246 121.679H42.3345L45.9736 133.389ZM57.061 137H54.4414V121.679H57.061V137ZM54.229 117.615C54.229 117.19 54.3564 116.831 54.6113 116.539C54.8757 116.246 55.2627 116.1 55.7725 116.1C56.2822 116.1 56.6693 116.246 56.9336 116.539C57.1979 116.831 57.3301 117.19 57.3301 117.615C57.3301 118.04 57.1979 118.394 56.9336 118.677C56.6693 118.96 56.2822 119.102 55.7725 119.102C55.2627 119.102 54.8757 118.96 54.6113 118.677C54.3564 118.394 54.229 118.04 54.229 117.615ZM64.8208 117.969V121.679H67.6812V123.704H64.8208V133.205C64.8208 133.819 64.9482 134.281 65.2031 134.593C65.458 134.895 65.8923 135.046 66.5059 135.046C66.8079 135.046 67.2233 134.989 67.752 134.876V137C67.0628 137.189 66.3926 137.283 65.7412 137.283C64.5706 137.283 63.688 136.929 63.0933 136.221C62.4985 135.513 62.2012 134.508 62.2012 133.205V123.704H59.4116V121.679H62.2012V117.969H64.8208ZM73.3735 123.534C74.5347 122.108 76.0451 121.396 77.9048 121.396C81.1427 121.396 82.7759 123.222 82.8042 126.875V137H80.1846V126.861C80.1751 125.757 79.9202 124.94 79.4199 124.412C78.929 123.883 78.1597 123.619 77.1118 123.619C76.2622 123.619 75.5164 123.845 74.8745 124.298C74.2326 124.751 73.7323 125.346 73.3735 126.083V137H70.7539V115.25H73.3735V123.534ZM102.841 132.936C102.841 132.228 102.572 131.681 102.034 131.293C101.505 130.897 100.575 130.557 99.2441 130.274C97.9225 129.991 96.87 129.651 96.0864 129.254C95.3123 128.858 94.7365 128.386 94.3589 127.838C93.9907 127.291 93.8066 126.639 93.8066 125.884C93.8066 124.629 94.3353 123.567 95.3926 122.698C96.4593 121.83 97.8187 121.396 99.4707 121.396C101.208 121.396 102.614 121.844 103.69 122.741C104.776 123.638 105.319 124.785 105.319 126.182H102.685C102.685 125.464 102.378 124.846 101.765 124.327C101.16 123.807 100.396 123.548 99.4707 123.548C98.5173 123.548 97.7715 123.756 97.2334 124.171C96.6953 124.586 96.4263 125.129 96.4263 125.799C96.4263 126.432 96.6764 126.909 97.1768 127.229C97.6771 127.55 98.5786 127.857 99.8813 128.15C101.194 128.443 102.256 128.792 103.067 129.198C103.879 129.604 104.479 130.095 104.866 130.67C105.262 131.237 105.46 131.931 105.46 132.752C105.46 134.121 104.913 135.221 103.818 136.051C102.723 136.873 101.302 137.283 99.5557 137.283C98.3285 137.283 97.2428 137.066 96.2988 136.632C95.3548 136.198 94.6138 135.593 94.0757 134.819C93.547 134.036 93.2827 133.191 93.2827 132.285H95.9023C95.9495 133.163 96.2988 133.861 96.9502 134.38C97.611 134.89 98.4795 135.145 99.5557 135.145C100.547 135.145 101.34 134.947 101.935 134.55C102.539 134.144 102.841 133.606 102.841 132.936ZM108.179 129.198C108.179 127.697 108.472 126.347 109.057 125.148C109.652 123.949 110.473 123.024 111.521 122.373C112.578 121.721 113.782 121.396 115.132 121.396C117.218 121.396 118.903 122.118 120.187 123.562C121.48 125.006 122.127 126.927 122.127 129.325V129.509C122.127 131.001 121.839 132.341 121.263 133.531C120.697 134.711 119.88 135.631 118.813 136.292C117.756 136.953 116.538 137.283 115.16 137.283C113.083 137.283 111.398 136.561 110.105 135.117C108.821 133.672 108.179 131.761 108.179 129.382V129.198ZM110.813 129.509C110.813 131.208 111.205 132.573 111.988 133.602C112.781 134.631 113.839 135.145 115.16 135.145C116.491 135.145 117.549 134.626 118.332 133.587C119.116 132.54 119.507 131.076 119.507 129.198C119.507 127.517 119.106 126.158 118.304 125.12C117.511 124.072 116.453 123.548 115.132 123.548C113.839 123.548 112.795 124.062 112.002 125.091C111.209 126.12 110.813 127.593 110.813 129.509ZM127.876 121.679L127.947 123.378C129.07 122.056 130.585 121.396 132.492 121.396C134.635 121.396 136.094 122.217 136.868 123.859C137.377 123.123 138.038 122.528 138.85 122.075C139.671 121.622 140.639 121.396 141.753 121.396C145.114 121.396 146.822 123.175 146.879 126.734V137H144.259V126.89C144.259 125.795 144.009 124.978 143.509 124.44C143.008 123.892 142.168 123.619 140.988 123.619C140.016 123.619 139.209 123.911 138.567 124.497C137.925 125.072 137.552 125.851 137.448 126.833V137H134.814V126.96C134.814 124.733 133.724 123.619 131.543 123.619C129.825 123.619 128.65 124.35 128.018 125.813V137H125.398V121.679H127.876ZM157.202 137.283C155.125 137.283 153.435 136.604 152.132 135.244C150.83 133.875 150.178 132.049 150.178 129.764V129.283C150.178 127.763 150.466 126.408 151.042 125.219C151.627 124.02 152.439 123.085 153.478 122.415C154.525 121.735 155.658 121.396 156.876 121.396C158.868 121.396 160.416 122.052 161.521 123.364C162.625 124.676 163.177 126.555 163.177 129V130.09H152.798C152.836 131.6 153.275 132.823 154.115 133.757C154.964 134.682 156.041 135.145 157.343 135.145C158.268 135.145 159.052 134.956 159.694 134.579C160.336 134.201 160.897 133.701 161.379 133.078L162.979 134.324C161.695 136.297 159.769 137.283 157.202 137.283ZM156.876 123.548C155.819 123.548 154.931 123.935 154.214 124.709C153.496 125.474 153.053 126.55 152.883 127.938H160.558V127.739C160.482 126.408 160.123 125.379 159.481 124.652C158.84 123.916 157.971 123.548 156.876 123.548ZM187.504 118.62H180.877V137H178.173V118.62H171.56V116.383H187.504V118.62ZM200.815 131.619H192.177L190.237 137H187.434L195.307 116.383H197.686L205.573 137H202.783L200.815 131.619ZM192.999 129.382H200.008L196.496 119.739L192.999 129.382ZM214.423 127.81C212.091 127.14 210.392 126.319 209.325 125.346C208.268 124.364 207.739 123.156 207.739 121.721C207.739 120.097 208.386 118.757 209.679 117.7C210.982 116.633 212.672 116.1 214.749 116.1C216.165 116.1 217.425 116.373 218.529 116.921C219.643 117.468 220.502 118.224 221.106 119.187C221.72 120.149 222.027 121.202 222.027 122.344H219.294C219.294 121.098 218.897 120.121 218.104 119.413C217.312 118.696 216.193 118.337 214.749 118.337C213.408 118.337 212.36 118.634 211.605 119.229C210.859 119.814 210.486 120.631 210.486 121.679C210.486 122.519 210.84 123.232 211.548 123.817C212.266 124.393 213.479 124.921 215.188 125.403C216.906 125.884 218.246 126.418 219.209 127.003C220.181 127.579 220.899 128.254 221.361 129.028C221.833 129.802 222.069 130.713 222.069 131.761C222.069 133.432 221.418 134.772 220.115 135.782C218.812 136.783 217.071 137.283 214.89 137.283C213.474 137.283 212.153 137.014 210.925 136.476C209.698 135.929 208.749 135.183 208.079 134.239C207.418 133.295 207.088 132.223 207.088 131.024H209.821C209.821 132.271 210.279 133.257 211.194 133.984C212.119 134.701 213.351 135.06 214.89 135.06C216.325 135.06 217.425 134.767 218.189 134.182C218.954 133.597 219.336 132.799 219.336 131.789C219.336 130.779 218.982 130 218.274 129.453C217.566 128.896 216.283 128.348 214.423 127.81ZM230.806 127.414L228.286 130.033V137H225.567V116.383H228.286V126.578L237.447 116.383H240.732L232.619 125.488L241.37 137H238.113L230.806 127.414ZM249.823 127.81C247.492 127.14 245.792 126.319 244.726 125.346C243.668 124.364 243.14 123.156 243.14 121.721C243.14 120.097 243.786 118.757 245.08 117.7C246.382 116.633 248.072 116.1 250.149 116.1C251.565 116.1 252.825 116.373 253.93 116.921C255.044 117.468 255.903 118.224 256.507 119.187C257.12 120.149 257.427 121.202 257.427 122.344H254.694C254.694 121.098 254.298 120.121 253.505 119.413C252.712 118.696 251.593 118.337 250.149 118.337C248.808 118.337 247.761 118.634 247.005 119.229C246.26 119.814 245.887 120.631 245.887 121.679C245.887 122.519 246.241 123.232 246.949 123.817C247.666 124.393 248.879 124.921 250.588 125.403C252.306 125.884 253.646 126.418 254.609 127.003C255.582 127.579 256.299 128.254 256.762 129.028C257.234 129.802 257.47 130.713 257.47 131.761C257.47 133.432 256.818 134.772 255.516 135.782C254.213 136.783 252.471 137.283 250.291 137.283C248.875 137.283 247.553 137.014 246.326 136.476C245.098 135.929 244.15 135.183 243.479 134.239C242.819 133.295 242.488 132.223 242.488 131.024H245.221C245.221 132.271 245.679 133.257 246.595 133.984C247.52 134.701 248.752 135.06 250.291 135.06C251.725 135.06 252.825 134.767 253.59 134.182C254.354 133.597 254.737 132.799 254.737 131.789C254.737 130.779 254.383 130 253.675 129.453C252.967 128.896 251.683 128.348 249.823 127.81Z" fill="#ABB0BB"/>
</g>
<defs>
<filter id="filter0_d" x="19.0347" y="23.25" width="250.435" height="130.033" filterUnits="userSpaceOnUse" color-interpolation-filters="sRGB">
<feFlood flood-opacity="0" result="BackgroundImageFix"/>
<feColorMatrix in="SourceAlpha" type="matrix" values="0 0 0 0 0 0 0 0 0 0 0 0 0 0 0 0 0 0 127 0"/>
<feOffset dy="4"/>
<feGaussianBlur stdDeviation="6"/>
<feColorMatrix type="matrix" values="0 0 0 0 0.260677 0 0 0 0 0.272135 0 0 0 0 0.320833 0 0 0 1 0"/>
<feBlend mode="normal" in2="BackgroundImageFix" result="effect1_dropShadow"/>
<feBlend mode="normal" in="SourceGraphic" in2="effect1_dropShadow" result="shape"/>
</filter>
</defs>
</svg>
