<svg width="60" height="48" viewBox="0 0 60 48" fill="none" xmlns="http://www.w3.org/2000/svg">
<g filter="url(#filter0_d)">
<path d="M13.4292 9.87846C10.0131 13.8269 6.38637 15.2576 5 15.4794V34.0568C12.4088 39.2474 27.2374 39.5469 33.7257 39.0478C37.4966 39.0478 37.589 34.9811 37.1639 32.9477C40.713 30.907 40.5651 27.2174 40.0475 25.6277C43.0643 23.1877 42.4876 20.0267 41.8221 18.7513H51.6931C57.6822 15.1578 54.1886 12.5218 51.6931 11.653H24.132C27.7254 10.9432 32.0251 7.62329 33.7257 6.05206C35.1453 0.462203 31.6184 0.617478 29.6775 1.39385C26.9713 3.43459 23.8547 4.57327 22.6347 4.88751C18.287 5.90788 14.6861 8.63996 13.4292 9.87846Z" fill="#484C5B"/>
<path d="M33.7257 18.7513H41.8221M41.8221 18.7513H51.6931C57.6822 15.1578 54.1886 12.5218 51.6931 11.653H24.132C27.7254 10.9432 32.0251 7.62329 33.7257 6.05207C35.1453 0.462203 31.6184 0.617478 29.6775 1.39385C26.9713 3.43459 23.8547 4.57327 22.6347 4.88751C18.287 5.90788 14.6861 8.63996 13.4292 9.87846C10.0131 13.8269 6.38637 15.2576 5 15.4794V34.0568C12.4088 39.2474 27.2374 39.5469 33.7257 39.0478C37.4966 39.0478 37.589 34.9811 37.1639 32.9477M41.8221 18.7513C42.4876 20.0267 43.0643 23.1877 40.0475 25.6277M40.0475 25.6277H33.7257M40.0475 25.6277C40.5651 27.2174 40.713 30.907 37.1639 32.9477M37.1639 32.9477H34.1693" stroke="#23252E"/>
</g>
<defs>
<filter id="filter0_d" x="0.5" y="0.5" width="59.0001" height="47.2188" filterUnits="userSpaceOnUse" color-interpolation-filters="sRGB">
<feFlood flood-opacity="0" result="BackgroundImageFix"/>
<feColorMatrix in="SourceAlpha" type="matrix" values="0 0 0 0 0 0 0 0 0 0 0 0 0 0 0 0 0 0 127 0"/>
<feOffset dy="4"/>
<feGaussianBlur stdDeviation="2"/>
<feColorMatrix type="matrix" values="0 0 0 0 0 0 0 0 0 0 0 0 0 0 0 0 0 0 0.25 0"/>
<feBlend mode="normal" in2="BackgroundImageFix" result="effect1_dropShadow"/>
<feBlend mode="normal" in="SourceGraphic" in2="effect1_dropShadow" result="shape"/>
</filter>
</defs>
</svg>
