<svg width="228" height="274" viewBox="0 0 228 274" fill="none" xmlns="http://www.w3.org/2000/svg">
<path fill-rule="evenodd" clip-rule="evenodd" d="M203.246 188.994C218.741 169.098 228 143.904 228 116.5C228 52.1588 176.96 0 114 0C51.0395 0 0 52.1588 0 116.5C0 143.225 8.80577 167.848 23.614 187.505L23 187.5C33.8333 201.333 55.4 233 55 249L55.0825 248.999C55.028 249.492 55 249.993 55 250.5V260.5C55 267.956 61.0442 274 68.5 274H159.5C166.956 274 173 267.956 173 260.5V250.5C173 249.47 172.885 248.468 172.666 247.504L173 247.5C175.167 237.167 184.4 211 204 189L203.246 188.994Z" fill="#CECECE"/>
<path fill-rule="evenodd" clip-rule="evenodd" d="M52.6113 155.569C52.2075 151.937 52 148.244 52 144.5C52 91.7568 93.1898 49 144 49C146.811 49 149.592 49.1308 152.338 49.3869C140.942 42.1727 127.455 38 113 38C72.1309 38 39 71.3548 39 112.5C39 128.547 44.0392 143.408 52.6113 155.569Z" fill="#A6A4A4"/>
</svg>
